<svg width="28" height="22" viewBox="0 0 28 22" fill="none" xmlns="http://www.w3.org/2000/svg">
<mask id="mask0_271_566" style="mask-type:alpha" maskUnits="userSpaceOnUse" x="0" y="0" width="28" height="22">
<rect width="28" height="21.2121" fill="#D9D9D9"/>
</mask>
<g mask="url(#mask0_271_566)">
<path d="M0.0793457 18.1464V3.06587L1.8194 0.165771H10.5197L13.9998 0.74579L17.4799 0.165771H26.1802L27.9203 3.06587V18.1464L26.1802 21.0465H17.4799L13.9998 20.4664L10.5197 21.0465H1.8194L0.0793457 18.1464Z" fill="#0053B5"/>
<path d="M0.0793457 7.12598H27.9203V14.0862H0.0793457V7.12598Z" fill="white"/>
<path d="M0.0793457 8.28601H27.9203V12.9262H0.0793457V8.28601Z" fill="#D80027"/>
<path d="M10.5198 0.165771H17.48V21.0465H10.5198V0.165771Z" fill="white"/>
<path d="M11.6798 0.165771H16.32V21.0465H11.6798V0.165771Z" fill="#D80027"/>
<path d="M27.9203 0.165771H26.1803L17.48 5.96596V7.70602L22.1201 7.126L27.9203 3.06587V0.165771Z" fill="white"/>
<path d="M27.9203 0.165771L17.48 7.126H20.3801L27.9203 1.90583V0.165771Z" fill="#D80027"/>
<path d="M0.0793457 0.165771H1.8194L10.5197 5.96596V7.70602L5.87953 7.126L0.0793457 3.06587V0.165771Z" fill="white"/>
<path d="M0.0793457 0.165771L10.5197 7.126H7.61959L0.0793457 1.90583V0.165771Z" fill="#D80027"/>
<path d="M0.0793457 21.0465H1.8194L10.5197 15.2463V13.5062L5.87953 14.0862L0.0793457 18.1464V21.0465Z" fill="white"/>
<path d="M0.0793457 21.0464L10.5197 14.0862H7.61959L0.0793457 19.3064V21.0464Z" fill="#D80027"/>
<path d="M27.9203 21.0465H26.1803L17.48 15.2463V13.5062L22.1201 14.0862L27.9203 18.1464V21.0465Z" fill="white"/>
<path d="M27.9203 21.0464L17.48 14.0862H20.3801L27.9203 19.3064V21.0464Z" fill="#D80027"/>
</g>
</svg>
