<svg width="28" height="23" viewBox="0 0 28 23" fill="none" xmlns="http://www.w3.org/2000/svg">
<mask id="mask0_271_683" style="mask-type:alpha" maskUnits="userSpaceOnUse" x="0" y="0" width="28" height="23">
<rect y="0.848633" width="28" height="21.2121" fill="#D9D9D9"/>
</mask>
<g mask="url(#mask0_271_683)">
<path d="M7.21729 0.808594H20.7595V22.8086H7.21729V0.808594Z" fill="white"/>
<path d="M20.7595 0.808594H30.9768V22.8086H20.7595V0.808594Z" fill="#BF0A30"/>
<path d="M-3 0.808594H7.21732V22.8086H-3V0.808594Z" fill="#BF0A30"/>
<path d="M16.658 14.6117C16.6447 14.5789 16.6416 14.5427 16.6492 14.5081C16.6567 14.4734 16.6746 14.4419 16.7004 14.4176L19.3094 11.9907L18.5206 11.6266C18.4807 11.6069 18.4497 11.5728 18.4339 11.5311C18.4182 11.4894 18.4188 11.4434 18.4357 11.4021L19.1334 9.7943L17.5377 10.3161C17.5146 10.3234 17.4903 10.3259 17.4662 10.3234C17.4421 10.3208 17.4187 10.3134 17.3977 10.3014C17.3766 10.2894 17.3582 10.2732 17.3437 10.2539C17.3291 10.2345 17.3188 10.2123 17.3132 10.1887L17.1191 9.27858L15.9056 10.3404C15.878 10.3629 15.8442 10.3766 15.8087 10.3795C15.7731 10.3824 15.7375 10.3745 15.7066 10.3567C15.6757 10.339 15.6509 10.3122 15.6355 10.28C15.6201 10.2479 15.6149 10.2118 15.6205 10.1765L16.1058 7.55547L15.0865 7.99231C15.0453 8.0092 14.9992 8.00983 14.9576 7.99407C14.9159 7.9783 14.8818 7.94732 14.862 7.90737L13.9884 5.66248L13.1329 7.93771C13.1132 7.97766 13.079 8.00864 13.0374 8.0244C12.9957 8.04017 12.9496 8.03954 12.9084 8.02265L11.8891 7.56154L12.3745 10.1826C12.3801 10.2178 12.3748 10.2539 12.3594 10.2861C12.3441 10.3183 12.3193 10.345 12.2883 10.3628C12.2574 10.3806 12.2218 10.3885 12.1863 10.3856C12.1507 10.3827 12.1169 10.369 12.0893 10.3464L10.8758 9.28465L10.6817 10.1947C10.6761 10.2183 10.6658 10.2405 10.6512 10.2599C10.6367 10.2793 10.6183 10.2955 10.5973 10.3075C10.5762 10.3194 10.5529 10.3269 10.5288 10.3294C10.5047 10.332 10.4803 10.3295 10.4572 10.3222L8.8615 9.80037L9.55924 11.4082C9.57613 11.4494 9.57675 11.4955 9.56099 11.5372C9.54522 11.5788 9.51424 11.613 9.47429 11.6327L8.68555 11.9967L11.2945 14.4236C11.3203 14.448 11.3382 14.4795 11.3458 14.5142C11.3533 14.5488 11.3503 14.5849 11.337 14.6178L11.0397 15.3459L13.8549 14.9879L13.7821 17.8031H14.2311L14.1582 14.9879L16.9735 15.3459L16.658 14.6117Z" fill="#BF0A30"/>
</g>
</svg>
