<svg width="28" height="22" viewBox="0 0 28 22" fill="none" xmlns="http://www.w3.org/2000/svg">
<mask id="mask0_271_698" style="mask-type:alpha" maskUnits="userSpaceOnUse" x="0" y="0" width="28" height="22">
<rect y="0.272949" width="28" height="21.2121" fill="#D9D9D9"/>
</mask>
<g mask="url(#mask0_271_698)">
<path d="M-3 -0.00708008H31.3846V21.9929H-3V-0.00708008Z" fill="#CB000F"/>
<path d="M8.51272 11.6039C8.51096 10.5501 8.804 9.51681 9.35872 8.62084C9.91344 7.72486 10.7077 7.00192 11.6518 6.53371C12.5959 6.06551 13.6521 5.87072 14.7011 5.97135C15.75 6.07199 16.75 6.46403 17.5878 7.10319C16.6558 5.94206 15.3863 5.0989 13.9547 4.69012C12.523 4.28134 10.9997 4.32709 9.59513 4.82107C8.19056 5.31504 6.97399 6.23287 6.11337 7.44784C5.25275 8.66281 4.79053 10.115 4.79053 11.6039C4.79053 13.0928 5.25275 14.545 6.11337 15.7599C6.97399 16.9749 8.19056 17.8927 9.59513 18.3867C10.9997 18.8807 12.523 18.9264 13.9547 18.5176C15.3863 18.1089 16.6558 17.2657 17.5878 16.1046C16.75 16.7437 15.75 17.1358 14.7011 17.2364C13.6521 17.3371 12.5959 17.1423 11.6518 16.6741C10.7077 16.2059 9.91344 15.4829 9.35872 14.5869C8.804 13.691 8.51096 12.6577 8.51272 11.6039Z" fill="white"/>
<path d="M19.0184 8.11633L20.7622 9.94608L23.0402 8.85315L21.8367 11.0759L23.5867 12.9056L21.0999 12.4512L19.8965 14.674L19.5588 12.1688L17.072 11.7144L19.35 10.6215L19.0184 8.11633Z" fill="white"/>
</g>
</svg>
