<svg width="28" height="22" viewBox="0 0 28 22" fill="none" xmlns="http://www.w3.org/2000/svg">
<mask id="mask0_271_584" style="mask-type:alpha" maskUnits="userSpaceOnUse" x="0" y="0" width="28" height="22">
<rect width="28" height="21.2121" fill="#D9D9D9"/>
</mask>
<g mask="url(#mask0_271_584)">
<path d="M0 14V21H28V14L14 13.1833L0 14Z" fill="#6DA544"/>
<path d="M0 7V0H28V7L14 7.93333L0 7Z" fill="#FE9810"/>
<path d="M0 7H28V14H0V7Z" fill="#F8FAFC"/>
<path d="M13.5948 13.1896C12.164 13.1896 11 12.0256 11 10.5948C11 9.16397 12.164 8 13.5948 8C15.0256 8 16.1896 9.16397 16.1896 10.5948C16.1896 12.0256 15.0256 13.1896 13.5948 13.1896ZM13.5948 8.48273C12.4301 8.48273 11.4827 9.43008 11.4827 10.5948C11.4827 11.7595 12.4301 12.7069 13.5948 12.7069C14.7595 12.7069 15.7069 11.7595 15.7069 10.5948C15.7069 9.43008 14.7595 8.48273 13.5948 8.48273Z" fill="#41479B"/>
<path d="M13.5948 10.889C13.7573 10.889 13.889 10.7573 13.889 10.5948C13.889 10.4324 13.7573 10.3007 13.5948 10.3007C13.4324 10.3007 13.3007 10.4324 13.3007 10.5948C13.3007 10.7573 13.4324 10.889 13.5948 10.889Z" fill="#41479B"/>
<path d="M13.5948 10.639L12.8472 10.7144L11.2413 10.639V10.5507L12.8472 10.4752L13.5948 10.5507V10.639Z" fill="#41479B"/>
<path d="M13.5948 10.639L14.3424 10.7144L15.9483 10.639V10.5507L14.3424 10.4752L13.5948 10.5507V10.639Z" fill="#41479B"/>
<path d="M13.5507 10.5948L13.4752 9.84717L13.5507 8.24133H13.639L13.7144 9.84717L13.639 10.5948H13.5507Z" fill="#41479B"/>
<path d="M13.5507 10.5948L13.4752 11.3424L13.5507 12.9483H13.639L13.7144 11.3424L13.639 10.5948H13.5507Z" fill="#41479B"/>
<path d="M13.5637 10.626L12.9817 10.1508L11.8995 8.96193L11.9619 8.89954L13.1508 9.98169L13.626 10.5637L13.5637 10.626Z" fill="#41479B"/>
<path d="M13.5636 10.6259L14.0388 11.2079L15.2277 12.2901L15.2901 12.2277L14.2079 11.0388L13.6259 10.5636L13.5636 10.6259Z" fill="#41479B"/>
<path d="M13.5636 10.5637L14.0388 9.98169L15.2277 8.89954L15.2901 8.96193L14.2079 10.1508L13.6259 10.626L13.5636 10.5637Z" fill="#41479B"/>
<path d="M13.5637 10.5636L12.9817 11.0388L11.8995 12.2277L11.9619 12.2901L13.1508 11.2079L13.626 10.6259L13.5637 10.5636Z" fill="#41479B"/>
<path d="M13.6117 10.6355L12.9499 10.9913L11.4375 11.5361L11.4037 11.4546L12.8584 10.7704L13.5779 10.554L13.6117 10.6355Z" fill="#41479B"/>
<path d="M13.6117 10.6356L14.3312 10.4192L15.7859 9.73498L15.7521 9.65344L14.2397 10.1982L13.5779 10.554L13.6117 10.6356Z" fill="#41479B"/>
<path d="M13.554 10.6117L13.1982 9.94992L12.6534 8.43748L12.735 8.40369L13.4192 9.85843L13.6356 10.5779L13.554 10.6117Z" fill="#41479B"/>
<path d="M13.554 10.6117L13.7704 11.3312L14.4546 12.7859L14.5361 12.7521L13.9913 11.2397L13.6355 10.5779L13.554 10.6117Z" fill="#41479B"/>
<path d="M13.5779 10.6356L12.8584 10.4192L11.4037 9.73498L11.4375 9.65344L12.9499 10.1982L13.6117 10.554L13.5779 10.6356Z" fill="#41479B"/>
<path d="M13.5779 10.6355L14.2397 10.9913L15.7521 11.5361L15.7859 11.4546L14.3312 10.7704L13.6117 10.554L13.5779 10.6355Z" fill="#41479B"/>
<path d="M13.554 10.5779L13.7704 9.85843L14.4546 8.40369L14.5361 8.43748L13.9913 9.94992L13.6355 10.6117L13.554 10.5779Z" fill="#41479B"/>
<path d="M13.554 10.5779L13.1982 11.2397L12.6534 12.7521L12.735 12.7859L13.4192 11.3312L13.6356 10.6117L13.554 10.5779Z" fill="#41479B"/>
<path d="M13.5948 10.9916C13.814 10.9916 13.9916 10.814 13.9916 10.5948C13.9916 10.3757 13.814 10.198 13.5948 10.198C13.3757 10.198 13.198 10.3757 13.198 10.5948C13.198 10.814 13.3757 10.9916 13.5948 10.9916Z" fill="#F5F5F5"/>
<path d="M13.5949 10.8327C13.7263 10.8327 13.8328 10.7262 13.8328 10.5948C13.8328 10.4633 13.7263 10.3568 13.5949 10.3568C13.4635 10.3568 13.3569 10.4633 13.3569 10.5948C13.3569 10.7262 13.4635 10.8327 13.5949 10.8327Z" fill="#41479B"/>
</g>
</svg>
