<svg width="28" height="22" viewBox="0 0 28 22" fill="none" xmlns="http://www.w3.org/2000/svg">
<mask id="mask0_271_643" style="mask-type:alpha" maskUnits="userSpaceOnUse" x="0" y="0" width="28" height="22">
<rect y="0.636475" width="28" height="21.2121" fill="#D9D9D9"/>
</mask>
<g mask="url(#mask0_271_643)">
<path d="M0 0.636475H33.9768V22.6365H0V0.636475Z" fill="#DE2910"/>
<path d="M7.09263 8.85166L4.65358 10.7507L5.70929 7.84449L3.14282 6.11531L6.23714 6.21846L7.09263 3.24548L7.94205 6.21846L11.0364 6.11531L8.4699 7.84449L9.53168 10.7507L7.09263 8.85166Z" fill="#FFDE00"/>
<path d="M12.0618 3.6459L11.1395 3.93106L11.7705 3.20298L11.2184 2.40817L12.1042 2.78434L12.6867 2.01379L12.6017 2.97849L13.5179 3.29399L12.5775 3.51242L12.5593 4.47712L12.0618 3.6459Z" fill="#FFDE00"/>
<path d="M14.701 6.58243L13.7363 6.68558L14.4947 6.09098L14.1004 5.21123L14.9012 5.74515L15.6172 5.09595L15.3563 6.02424L16.1936 6.50356L15.2289 6.53996L15.0347 7.48646L14.701 6.58243Z" fill="#FFDE00"/>
<path d="M14.2825 10.1743L13.4816 9.64035L14.4463 9.66462L14.7072 8.73633L14.9802 9.66462L15.9449 9.62822L15.144 10.1743L15.4777 11.0783L14.7132 10.4837L13.9548 11.0844L14.2825 10.1743Z" fill="#FFDE00"/>
<path d="M11.8373 12.5223L11.0364 11.9823L12.0011 12.0126L12.262 11.0844L12.535 12.0126L13.4997 11.9702L12.6988 12.5162L13.0386 13.4203L12.2741 12.8317L11.5157 13.4324L11.8373 12.5223Z" fill="#FFDE00"/>
</g>
</svg>
