<svg width="28" height="22" viewBox="0 0 28 22" fill="none" xmlns="http://www.w3.org/2000/svg">
<mask id="mask0_271_654" style="mask-type:alpha" maskUnits="userSpaceOnUse" x="0" y="0" width="28" height="22">
<rect y="0.636475" width="28" height="21.2121" fill="#D9D9D9"/>
</mask>
<g mask="url(#mask0_271_654)">
<path d="M-1 0.636475H6.78434V22.6365H-1V0.636475Z" fill="#F0F0F0"/>
<path d="M6.71143 0.636475H32.9767V22.6365H6.71143V0.636475Z" fill="#0C590B"/>
<path d="M20.8421 16.824C19.497 16.8406 18.1845 16.4097 17.111 15.599C16.0375 14.7884 15.2639 13.6439 14.9117 12.3456C14.5595 11.0474 14.6488 9.66885 15.1654 8.42682C15.6821 7.1848 16.5969 6.1497 17.766 5.48425C16.8718 5.58583 16.0114 5.88507 15.2471 6.36027C14.4829 6.83547 13.8339 7.47474 13.3472 8.23175C12.8605 8.98876 12.5484 9.84456 12.4333 10.7371C12.3183 11.6297 12.4032 12.5367 12.682 13.3924C12.9608 14.248 13.4265 15.031 14.0453 15.6844C14.664 16.3379 15.4204 16.8456 16.2596 17.1706C17.0989 17.4956 17.9999 17.6298 18.8974 17.5636C19.7949 17.4974 20.6664 17.2323 21.4488 16.7876C21.2473 16.8098 21.0448 16.8219 20.8421 16.824Z" fill="white"/>
<path d="M21.3397 8.81516L22.5834 8.42079L22.1345 9.64638L22.8929 10.7082L21.5945 10.6657L20.8179 11.7093L20.4599 10.4594L19.2222 10.0468L20.3021 9.31875L20.3143 8.01428L21.3397 8.81516Z" fill="white"/>
</g>
</svg>
