<svg width="281" height="281" viewBox="0 0 281 281" fill="none" xmlns="http://www.w3.org/2000/svg">
<path d="M230.187 138.72C179.815 109.76 98.1511 109.76 47.779 138.72C-2.59302 167.68 -2.59302 214.64 47.779 243.6C98.1511 272.56 179.815 272.56 230.187 243.6C280.554 214.64 280.554 167.685 230.187 138.72Z" fill="#F5F5F5"/>
<path d="M78.2585 196.301C97.9524 196.301 113.917 187.082 113.917 175.709C113.917 164.337 97.9524 155.118 78.2585 155.118C58.5646 155.118 42.5996 164.337 42.5996 175.709C42.5996 187.082 58.5646 196.301 78.2585 196.301Z" fill="#E0E0E0"/>
<path d="M138.977 229.835L135.661 227.919L138.072 226.525C139.325 225.8 139.517 224.772 139.517 224.215C139.517 223.665 139.325 222.636 138.072 221.911L132.064 218.444C131.396 218.062 130.609 217.865 129.71 217.865C128.816 217.865 128.024 218.062 127.361 218.444L123.308 220.782L102.368 208.693C101.705 208.311 100.913 208.114 100.019 208.114C99.1256 208.114 98.3332 208.311 97.6644 208.693L89.1052 213.633C88.369 214.06 87.88 214.482 87.5709 214.971C87.2 215.561 87.0876 216.291 87.2393 217.174L91.6679 239.339C91.9264 240.452 92.7582 241.424 94.1463 242.222L100.154 245.69C100.823 246.072 101.61 246.268 102.498 246.268H102.503C103.397 246.268 104.189 246.072 104.852 245.69L121.881 235.855L126.838 238.715C127.507 239.097 128.293 239.294 129.193 239.294C130.081 239.294 130.873 239.097 131.542 238.715L138.96 234.433C140.219 233.708 140.41 232.679 140.41 232.123C140.421 231.589 140.23 230.56 138.977 229.835ZM105.999 230.785L105.004 225.795L109.826 228.577L105.999 230.785Z" fill="#E0E0E0"/>
<path d="M172.32 195.346C170.82 194.39 169.162 193.39 167.386 192.367C165.627 191.35 163.856 190.372 162.103 189.45C159.861 188.292 157.388 187.337 154.758 186.612C152.105 185.881 149.306 185.494 146.434 185.46H146.047C143.31 185.46 140.472 185.814 137.611 186.505C134.599 187.236 131.575 188.472 128.619 190.181C125.562 191.945 123.409 193.71 122.049 195.576C120.627 197.532 119.936 199.51 120.009 201.46C120.077 203.41 120.847 205.276 122.285 207.013C123.595 208.592 125.298 210.07 127.371 211.413C128.922 212.397 130.62 213.419 132.418 214.459C134.217 215.499 135.947 216.454 137.583 217.309C139.831 218.472 142.304 219.427 144.928 220.147C147.581 220.877 150.38 221.265 153.251 221.299H153.639C156.382 221.299 159.22 220.945 162.075 220.253C165.087 219.523 168.111 218.286 171.067 216.578C174.13 214.808 176.277 213.049 177.637 211.183C179.064 209.227 179.75 207.249 179.677 205.299C179.609 203.354 178.839 201.488 177.401 199.746C176.102 198.156 174.394 196.677 172.32 195.346ZM162.137 207.08C161.985 207.316 161.547 207.805 160.366 208.491C159.388 209.058 158.422 209.446 157.495 209.648C156.753 209.811 156.016 209.896 155.303 209.896C155.106 209.896 154.915 209.89 154.718 209.879C153.813 209.823 152.92 209.648 152.06 209.356C151.144 209.047 150.222 208.648 149.306 208.159C145.974 206.451 142.821 204.63 139.904 202.73C139.117 202.241 138.482 201.741 138.01 201.252C137.662 200.892 137.448 200.544 137.381 200.257C137.369 200.201 137.33 200.033 137.572 199.662C137.723 199.431 138.156 198.937 139.342 198.251C140.325 197.683 141.292 197.296 142.214 197.093C142.928 196.936 143.63 196.857 144.31 196.857C144.524 196.857 144.737 196.863 144.945 196.88C145.844 196.947 146.738 197.127 147.598 197.419C148.531 197.734 149.486 198.133 150.391 198.577C153.622 200.274 156.786 202.101 159.804 204.012C160.602 204.512 161.26 205.018 161.76 205.507C162.092 205.838 162.3 206.153 162.35 206.423C162.356 206.484 162.395 206.687 162.137 207.08Z" fill="#E0E0E0"/>
<path d="M221.748 182.049L218.433 180.132L220.844 178.738C222.097 178.013 222.288 176.985 222.288 176.434C222.288 175.883 222.103 174.855 220.844 174.13L214.836 170.663C214.173 170.28 213.38 170.084 212.481 170.078C211.588 170.078 210.795 170.275 210.132 170.657L206.08 172.995L185.14 160.906C184.477 160.524 183.684 160.327 182.791 160.327C181.897 160.327 181.11 160.524 180.436 160.906L171.877 165.846C171.14 166.273 170.651 166.695 170.342 167.184C169.971 167.774 169.859 168.504 170.016 169.387L174.445 191.552C174.703 192.665 175.535 193.637 176.923 194.435L182.931 197.903C183.6 198.29 184.387 198.482 185.28 198.482H185.286C186.18 198.482 186.972 198.285 187.635 197.903L204.664 188.073L209.621 190.934C210.289 191.316 211.076 191.513 211.975 191.513C212.869 191.513 213.656 191.316 214.324 190.934L221.743 186.651C223.002 185.932 223.193 184.898 223.193 184.336C223.193 183.796 223.002 182.768 221.748 182.049ZM188.77 182.993L187.776 178.002L192.598 180.784L188.77 182.993Z" fill="#E0E0E0"/>
<path d="M244.678 48.1915L239.362 45.123C239.39 44.915 239.407 44.7015 239.407 44.4711V42.9312C239.407 40.1886 237.484 36.856 235.107 35.4847C234.146 34.9283 233.264 34.7878 232.544 34.9901C232.157 31.0955 229.453 26.6838 226.166 24.7898C222.614 22.7385 219.737 24.402 219.737 28.5046V30.8088C219.737 31.871 219.933 32.995 220.282 34.1078L215.864 31.5563C214.549 30.7976 213.481 31.4102 213.481 32.9332C213.481 34.4562 214.549 36.3052 215.864 37.0639L244.684 53.7047C245.999 54.4634 247.067 53.8508 247.067 52.3278C247.061 50.8048 245.993 48.9558 244.678 48.1915Z" fill="#EBEBEB"/>
<path d="M212.436 53.8901L209.047 51.9344C209.064 51.8051 209.075 51.6646 209.075 51.5185V50.535C209.075 48.7872 207.85 46.6628 206.338 45.7917C205.726 45.4377 205.164 45.3477 204.708 45.477C204.461 42.993 202.736 40.1886 200.645 38.9803C198.38 37.6764 196.548 38.733 196.548 41.3463V42.8131C196.548 43.4875 196.672 44.2069 196.896 44.915L194.081 43.2908C193.243 42.8075 192.563 43.2009 192.563 44.1675C192.563 45.1342 193.243 46.3144 194.081 46.7977L212.436 57.4027C213.273 57.886 213.953 57.4926 213.953 56.5259C213.953 55.5537 213.273 54.3735 212.436 53.8901Z" fill="#EBEBEB"/>
<path d="M210.087 169.022C208.272 160.698 205.361 152.538 207.165 139.809C208.806 128.271 214.864 117.953 223.502 116.8C229.33 116.025 234.41 122.516 228.712 130.856C227.768 132.239 215.42 144.322 217.455 161.019L216.303 172.107L210.087 169.022Z" fill="#76543F"/>
<g opacity="0.2">
<path d="M210.087 169.022C208.272 160.698 205.361 152.538 207.165 139.809C208.806 128.271 214.864 117.953 223.502 116.8C229.33 116.025 234.41 122.516 228.712 130.856C227.768 132.239 215.42 144.322 217.455 161.019L216.303 172.107L210.087 169.022Z" fill="black"/>
</g>
<path d="M213.111 167.785C213.263 167.718 213.353 167.555 213.324 167.386C209.975 146.036 214.252 130.086 224.564 121.325C224.722 121.19 224.744 120.954 224.609 120.796C224.475 120.639 224.239 120.616 224.081 120.751C213.639 129.625 209.194 145.884 212.583 167.504C212.616 167.712 212.807 167.847 213.01 167.819C213.043 167.808 213.077 167.796 213.111 167.785Z" fill="white"/>
<path d="M219.821 175.378C219.776 172.141 221.563 165.088 225.801 158.928C231.14 151.161 239.468 148.621 240.317 144.552C241.34 139.663 236.22 136.875 229.594 139.247C221.625 142.096 212.206 153.578 215.471 172.933L219.821 175.378Z" fill="#BDBDBD"/>
<path d="M217.646 171.955C217.792 171.899 217.893 171.764 217.905 171.601C218.804 154.421 229.004 145.423 234.276 143.068C234.478 142.978 234.573 142.737 234.478 142.534C234.388 142.332 234.158 142.237 233.944 142.332C228.116 144.94 218.011 154.027 217.095 171.562C217.084 171.787 217.258 171.978 217.477 171.989C217.534 171.989 217.59 171.978 217.646 171.955Z" fill="white"/>
<path d="M137.499 225.553L130.075 229.835C129.659 230.077 129.148 230.195 128.546 230.195C127.939 230.195 127.434 230.077 127.023 229.835L121.24 226.497L103.391 236.804C102.975 237.04 102.464 237.164 101.862 237.164C101.256 237.164 100.75 237.04 100.334 236.804L94.3261 233.337C93.3426 232.769 92.775 232.162 92.6232 231.505L88.2003 209.39C88.1722 209.244 88.1666 209.115 88.1666 208.997C88.1666 209.424 88.1609 214.942 88.1666 215.212C88.1666 215.319 88.1778 215.431 88.2003 215.555L92.6232 237.67C92.775 238.327 93.337 238.94 94.3261 239.502L100.334 242.969C100.755 243.205 101.261 243.329 101.862 243.329C102.469 243.329 102.981 243.205 103.391 242.969L121.24 232.662L127.023 236.001C127.439 236.242 127.945 236.36 128.546 236.36C129.153 236.36 129.665 236.242 130.075 236.001L137.499 231.718C137.915 231.477 138.123 231.184 138.123 230.83V224.665C138.123 225.014 137.909 225.306 137.499 225.553Z" fill="#76543F"/>
<path d="M137.212 222.912V216.747C137.212 217.095 137.004 217.393 136.588 217.634L131.716 220.444L136.976 223.479C137.128 223.311 137.212 223.12 137.212 222.912Z" fill="#76543F"/>
<path d="M103.419 222.041L107.111 224.187L112.45 221.102L102.025 215.077L103.414 222.041H103.419Z" fill="#76543F"/>
<path opacity="0.35" d="M103.419 222.041L107.111 224.187L112.45 221.102L102.025 215.077L103.414 222.041H103.419Z" fill="black"/>
<path opacity="0.2" d="M137.212 222.912V216.747C137.212 217.095 137.004 217.393 136.588 217.634L131.716 220.444L136.976 223.479C137.128 223.311 137.212 223.12 137.212 222.912Z" fill="black"/>
<path opacity="0.2" d="M137.499 225.553L130.075 229.835C129.659 230.077 129.147 230.195 128.546 230.195V236.36C129.153 236.36 129.664 236.242 130.075 236.001L137.499 231.718C137.914 231.477 138.122 231.184 138.122 230.83V224.665C138.122 225.014 137.909 225.306 137.499 225.553Z" fill="black"/>
<path opacity="0.25" d="M92.6174 231.505L88.1944 209.39C88.1663 209.244 88.1607 209.115 88.1607 208.997C88.1607 209.424 88.1551 214.942 88.1607 215.212C88.1607 215.319 88.1719 215.431 88.1944 215.555L92.6174 237.67C92.6455 237.793 92.6904 237.917 92.7579 238.046V231.881C92.6904 231.752 92.6398 231.628 92.6174 231.505Z" fill="black"/>
<path opacity="0.35" d="M101.851 237.17C101.244 237.17 100.738 237.046 100.322 236.81L94.3143 233.342C93.5219 232.887 92.9936 232.404 92.752 231.881V238.046C92.9936 238.563 93.5219 239.052 94.3143 239.508L100.322 242.975C100.744 243.211 101.249 243.335 101.851 243.335C101.913 243.335 101.963 243.335 102.019 243.323V237.158C101.963 237.17 101.913 237.17 101.851 237.17Z" fill="black"/>
<path opacity="0.2" d="M103.385 236.804C103.009 237.023 102.559 237.141 102.025 237.153V243.318C102.559 243.307 103.009 243.189 103.385 242.969L121.235 232.662V226.497L103.385 236.804Z" fill="black"/>
<path opacity="0.35" d="M127.017 229.835L121.234 226.497V232.662L127.017 236.001C127.433 236.242 127.939 236.36 128.54 236.36V230.195C127.939 230.195 127.433 230.077 127.017 229.835Z" fill="black"/>
<path d="M130.075 229.835C129.659 230.077 129.147 230.195 128.546 230.195C127.939 230.195 127.433 230.077 127.017 229.835L121.235 226.497L103.385 236.804C102.97 237.046 102.464 237.164 101.857 237.164C101.25 237.164 100.744 237.046 100.328 236.804L94.3203 233.337C93.3368 232.769 92.7692 232.157 92.6175 231.505L88.2001 209.39C88.1271 208.952 88.1608 208.614 88.3125 208.378C88.4643 208.137 88.7846 207.878 89.2792 207.592L97.8328 202.652C98.2487 202.41 98.7601 202.292 99.3615 202.292C99.9684 202.292 100.474 202.41 100.89 202.652L122.651 215.212L127.523 212.397C127.939 212.155 128.451 212.037 129.052 212.037C129.659 212.037 130.165 212.155 130.581 212.397L136.588 215.864C137.004 216.106 137.212 216.398 137.212 216.747C137.212 217.095 137.004 217.393 136.588 217.629L131.716 220.444L137.493 223.783C137.909 224.024 138.117 224.317 138.117 224.665C138.117 225.014 137.909 225.311 137.493 225.547L130.075 229.835ZM112.45 221.102L102.025 215.083L104.178 225.879L112.45 221.102Z" fill="#76543F"/>
<path d="M177.39 198.189C177.362 199.673 176.777 201.19 175.653 202.736C174.445 204.394 172.427 206.04 169.589 207.676C166.757 209.311 163.907 210.475 161.035 211.177C158.164 211.874 155.359 212.211 152.617 212.177C149.885 212.144 147.244 211.778 144.715 211.082C142.186 210.385 139.842 209.48 137.684 208.361C136.06 207.513 134.369 206.574 132.587 205.551C130.811 204.529 129.153 203.528 127.602 202.545C125.674 201.303 124.106 199.948 122.904 198.493C121.69 197.026 121.055 195.509 121.004 193.929C121.038 194.907 120.965 199.015 121.004 200.094C121.055 201.679 121.69 203.197 122.904 204.658C124.106 206.119 125.674 207.468 127.602 208.71C129.153 209.693 130.817 210.694 132.587 211.717C134.369 212.739 136.06 213.684 137.684 214.538C139.837 215.651 142.186 216.555 144.715 217.252C147.244 217.949 149.885 218.314 152.617 218.348C155.359 218.382 158.164 218.045 161.035 217.348C163.907 216.645 166.757 215.482 169.589 213.847C172.427 212.211 174.445 210.559 175.653 208.907C176.861 207.249 177.44 205.63 177.378 204.051C177.35 203.135 177.412 199.589 177.39 198.189Z" fill="#76543F"/>
<path opacity="0.35" d="M154.134 212.144C153.629 212.161 153.123 212.183 152.623 212.177C149.891 212.144 147.25 211.778 144.721 211.082C142.192 210.385 139.848 209.48 137.69 208.361C136.066 207.513 134.374 206.574 132.593 205.551C130.817 204.529 129.159 203.528 127.608 202.545C125.68 201.303 124.112 199.948 122.91 198.493C121.696 197.026 121.061 195.509 121.01 193.929C121.044 194.907 120.971 199.015 121.01 200.094C121.061 201.679 121.696 203.197 122.91 204.658C124.112 206.119 125.68 207.468 127.608 208.71C129.159 209.693 130.823 210.694 132.593 211.717C134.374 212.739 136.066 213.684 137.69 214.538C139.843 215.651 142.192 216.555 144.721 217.252C147.25 217.949 149.891 218.314 152.623 218.348C153.123 218.354 153.629 218.337 154.134 218.314V212.144Z" fill="black"/>
<path opacity="0.2" d="M177.389 198.189C177.361 199.673 176.777 201.19 175.653 202.736C174.444 204.394 172.427 206.04 169.589 207.676C166.756 209.311 163.907 210.475 161.035 211.177C158.692 211.745 156.387 212.059 154.134 212.144V218.309C156.393 218.225 158.692 217.91 161.035 217.342C163.907 216.64 166.756 215.476 169.589 213.841C172.427 212.206 174.444 210.553 175.653 208.901C176.861 207.243 177.44 205.625 177.378 204.045C177.35 203.135 177.412 199.589 177.389 198.189Z" fill="black"/>
<path d="M136.162 194.913C136.476 195.239 136.847 195.57 137.263 195.885C137.454 195.761 137.645 195.638 137.853 195.509C138.988 194.857 140.101 194.413 141.197 194.171C142.293 193.935 143.366 193.851 144.4 193.929C145.44 194.008 146.457 194.21 147.463 194.548C148.464 194.89 149.475 195.312 150.493 195.806C153.78 197.532 156.95 199.358 160.013 201.303C160.412 201.55 160.783 201.809 161.114 202.056C161.924 201.533 162.508 201.016 162.845 200.499C163.261 199.87 163.413 199.246 163.301 198.633C163.188 198.026 162.84 197.431 162.255 196.852C161.665 196.273 160.923 195.7 160.013 195.138C156.95 193.193 153.78 191.361 150.493 189.641C149.475 189.141 148.464 188.72 147.463 188.382C146.457 188.045 145.44 187.843 144.4 187.764C143.361 187.686 142.293 187.77 141.197 188.006C140.101 188.247 138.988 188.697 137.853 189.343C136.724 190.001 135.948 190.642 135.532 191.277C135.116 191.906 134.976 192.524 135.105 193.126C135.251 193.733 135.6 194.323 136.162 194.913Z" fill="#76543F"/>
<path opacity="0.35" d="M136.162 194.913C136.476 195.239 136.847 195.57 137.263 195.885C137.454 195.761 137.645 195.638 137.853 195.509C138.988 194.857 140.101 194.413 141.197 194.171C142.293 193.935 143.366 193.851 144.4 193.929C145.44 194.008 146.457 194.21 147.463 194.548C148.464 194.89 149.475 195.312 150.493 195.806C153.78 197.532 156.95 199.358 160.013 201.303C160.412 201.55 160.783 201.809 161.114 202.056C161.924 201.533 162.508 201.016 162.845 200.499C163.261 199.87 163.413 199.246 163.301 198.633C163.188 198.026 162.84 197.431 162.255 196.852C161.665 196.273 160.923 195.7 160.013 195.138C156.95 193.193 153.78 191.361 150.493 189.641C149.475 189.141 148.464 188.72 147.463 188.382C146.457 188.045 145.44 187.843 144.4 187.764C143.361 187.686 142.293 187.77 141.197 188.006C140.101 188.247 138.988 188.697 137.853 189.343C136.724 190.001 135.948 190.642 135.532 191.277C135.116 191.906 134.976 192.524 135.105 193.126C135.251 193.733 135.6 194.323 136.162 194.913Z" fill="black"/>
<path d="M128.794 184.117C131.626 182.481 134.481 181.312 137.353 180.616C140.225 179.919 143.029 179.587 145.766 179.615C148.503 179.649 151.139 180.014 153.668 180.711C156.197 181.408 158.54 182.313 160.693 183.426C162.39 184.319 164.132 185.28 165.908 186.303C167.684 187.326 169.308 188.309 170.781 189.248C172.708 190.49 174.276 191.844 175.485 193.305C176.693 194.767 177.328 196.29 177.384 197.869C177.441 199.448 176.867 201.072 175.659 202.725C174.451 204.383 172.427 206.029 169.595 207.665C166.762 209.3 163.908 210.469 161.036 211.166C158.164 211.863 155.36 212.194 152.623 212.166C149.886 212.132 147.25 211.767 144.721 211.07C142.186 210.373 139.848 209.469 137.69 208.356C136.066 207.507 134.369 206.569 132.593 205.54C130.817 204.517 129.153 203.511 127.602 202.528C125.675 201.286 124.107 199.931 122.898 198.47C121.69 197.009 121.055 195.486 120.999 193.907C120.943 192.328 121.522 190.709 122.724 189.051C123.938 187.399 125.961 185.752 128.794 184.117ZM160.019 195.143C156.956 193.204 153.786 191.372 150.498 189.647C149.481 189.147 148.469 188.725 147.469 188.388C146.469 188.051 145.446 187.843 144.406 187.764C143.366 187.691 142.299 187.77 141.203 188.011C140.107 188.253 138.994 188.697 137.859 189.355C136.729 190.007 135.954 190.653 135.538 191.282C135.122 191.917 134.981 192.53 135.111 193.131C135.246 193.733 135.594 194.323 136.162 194.913C136.729 195.503 137.465 196.082 138.37 196.649C141.315 198.571 144.49 200.404 147.891 202.146C148.874 202.668 149.863 203.101 150.864 203.438C151.864 203.776 152.892 203.978 153.949 204.045C155.005 204.113 156.085 204.023 157.18 203.781C158.276 203.54 159.389 203.096 160.524 202.438C161.66 201.786 162.429 201.14 162.845 200.51C163.261 199.881 163.413 199.257 163.301 198.644C163.188 198.032 162.84 197.442 162.255 196.863C161.671 196.284 160.923 195.711 160.019 195.143Z" fill="#76543F"/>
<path d="M220.27 177.761L212.846 182.043C212.431 182.285 211.919 182.403 211.318 182.403C210.711 182.403 210.205 182.285 209.795 182.043L204.012 178.705L186.163 189.012C185.747 189.248 185.235 189.371 184.634 189.371C184.027 189.371 183.521 189.248 183.105 189.012L177.098 185.544C176.114 184.977 175.546 184.37 175.395 183.712L170.972 161.597C170.944 161.451 170.938 161.322 170.938 161.204C170.938 161.631 170.932 167.15 170.938 167.42C170.938 167.527 170.949 167.639 170.972 167.763L175.395 189.877C175.546 190.535 176.108 191.147 177.098 191.709L183.105 195.177C183.527 195.413 184.033 195.537 184.634 195.537C185.241 195.537 185.752 195.413 186.163 195.177L204.012 184.87L209.795 188.208C210.211 188.45 210.716 188.568 211.318 188.568C211.925 188.568 212.436 188.45 212.846 188.208L220.27 183.926C220.686 183.684 220.894 183.392 220.894 183.038V176.873C220.894 177.221 220.686 177.519 220.27 177.761Z" fill="#76543F"/>
<path d="M219.99 175.119V168.954C219.99 169.302 219.782 169.6 219.366 169.842L214.493 172.652L219.753 175.687C219.9 175.518 219.99 175.333 219.99 175.119Z" fill="#76543F"/>
<path d="M186.191 174.254L189.883 176.395L195.222 173.315L184.797 167.291L186.185 174.254H186.191Z" fill="#76543F"/>
<path opacity="0.35" d="M186.191 174.254L189.883 176.395L195.222 173.315L184.797 167.291L186.185 174.254H186.191Z" fill="black"/>
<path opacity="0.2" d="M219.99 175.119V168.954C219.99 169.302 219.782 169.6 219.366 169.842L214.493 172.652L219.753 175.687C219.9 175.518 219.99 175.333 219.99 175.119Z" fill="black"/>
<path opacity="0.2" d="M220.27 177.761L212.846 182.043C212.43 182.285 211.919 182.403 211.317 182.403V188.568C211.924 188.568 212.436 188.45 212.846 188.208L220.27 183.926C220.686 183.684 220.894 183.392 220.894 183.038V176.873C220.894 177.221 220.686 177.519 220.27 177.761Z" fill="black"/>
<path opacity="0.25" d="M175.389 183.712L170.966 161.597C170.938 161.451 170.932 161.322 170.932 161.204C170.932 161.631 170.927 167.15 170.932 167.42C170.932 167.527 170.943 167.639 170.966 167.763L175.389 189.877C175.417 190.001 175.462 190.125 175.529 190.254V184.089C175.462 183.965 175.417 183.836 175.389 183.712Z" fill="black"/>
<path opacity="0.35" d="M184.628 189.377C184.021 189.377 183.515 189.253 183.099 189.017L177.092 185.55C176.299 185.095 175.771 184.611 175.529 184.089V190.254C175.771 190.771 176.299 191.26 177.092 191.715L183.099 195.183C183.521 195.419 184.027 195.542 184.628 195.542C184.69 195.542 184.74 195.542 184.797 195.531V189.366C184.74 189.377 184.684 189.377 184.628 189.377Z" fill="black"/>
<path opacity="0.2" d="M186.157 189.017C185.78 189.237 185.331 189.355 184.797 189.366V195.531C185.331 195.52 185.78 195.402 186.157 195.183L204.006 184.875V178.71L186.157 189.017Z" fill="black"/>
<path opacity="0.35" d="M209.789 182.043L204.006 178.705V184.87L209.789 188.208C210.205 188.45 210.711 188.568 211.312 188.568V182.403C210.711 182.408 210.205 182.29 209.789 182.043Z" fill="black"/>
<path d="M212.846 182.043C212.43 182.285 211.919 182.403 211.318 182.403C210.711 182.403 210.205 182.285 209.789 182.043L204.006 178.705L186.157 189.012C185.741 189.253 185.235 189.371 184.628 189.371C184.021 189.371 183.515 189.253 183.1 189.012L177.092 185.544C176.108 184.977 175.541 184.364 175.389 183.712L170.972 161.597C170.899 161.159 170.932 160.822 171.084 160.586C171.236 160.344 171.556 160.086 172.051 159.799L180.604 154.859C181.02 154.617 181.532 154.499 182.133 154.499C182.74 154.499 183.246 154.617 183.662 154.859L205.422 167.42L210.295 164.604C210.711 164.362 211.222 164.244 211.823 164.244C212.43 164.244 212.936 164.362 213.352 164.604L219.36 168.072C219.776 168.313 219.984 168.606 219.984 168.954C219.984 169.302 219.776 169.6 219.36 169.836L214.487 172.652L220.265 175.99C220.681 176.232 220.888 176.524 220.888 176.873C220.888 177.221 220.681 177.519 220.265 177.755L212.846 182.043ZM195.222 173.31L184.797 167.291L186.949 178.087L195.222 173.31Z" fill="#76543F"/>
<path d="M174.433 229.948C174.557 229.875 174.714 229.835 174.9 229.835C175.085 229.835 175.237 229.875 175.366 229.948L177.199 231.004C177.328 231.078 177.39 231.167 177.39 231.274C177.39 231.381 177.328 231.471 177.199 231.544L169.01 236.27C168.881 236.343 168.729 236.383 168.544 236.377C168.358 236.377 168.207 236.343 168.077 236.27L156.922 229.83C156.798 229.757 156.73 229.667 156.73 229.56C156.73 229.453 156.792 229.363 156.922 229.29L164.969 224.643C165.093 224.57 165.25 224.53 165.436 224.53C165.621 224.53 165.779 224.57 165.902 224.643L167.734 225.699C167.858 225.772 167.925 225.862 167.925 225.969C167.925 226.076 167.864 226.166 167.734 226.239L162.412 229.307L164.278 230.386L169.218 227.537C169.342 227.464 169.499 227.425 169.685 227.425C169.87 227.425 170.022 227.464 170.151 227.537L171.983 228.593C172.112 228.667 172.174 228.756 172.174 228.863C172.174 228.97 172.112 229.06 171.983 229.133L167.043 231.982L168.976 233.101L174.433 229.948Z" fill="#BDBDBD"/>
<path d="M177.16 221.198C177.283 221.124 177.441 221.091 177.626 221.091C177.812 221.091 177.963 221.124 178.093 221.203L179.835 222.209C179.958 222.282 180.026 222.372 180.026 222.479C180.026 222.586 179.964 222.676 179.835 222.749L178.261 223.653C177.205 224.266 177.199 224.879 178.261 225.486L182.51 227.942C182.639 228.015 182.701 228.105 182.701 228.211C182.701 228.318 182.639 228.408 182.51 228.481L180.335 229.74C180.206 229.813 180.054 229.852 179.868 229.852C179.683 229.852 179.531 229.819 179.402 229.74L171.354 225.092C171.225 225.019 171.163 224.929 171.163 224.822C171.163 224.716 171.225 224.626 171.354 224.553L173.361 223.395C173.484 223.322 173.642 223.288 173.827 223.288C174.012 223.288 174.164 223.322 174.293 223.401L174.692 223.631C174.704 223.333 174.816 223.03 175.03 222.721C175.243 222.411 175.609 222.108 176.126 221.81L177.16 221.198Z" fill="#BDBDBD"/>
<path d="M185.522 216.37C185.646 216.297 185.803 216.258 185.988 216.258C186.174 216.258 186.326 216.291 186.455 216.37L188.197 217.376C188.326 217.449 188.388 217.539 188.388 217.646C188.388 217.752 188.326 217.842 188.197 217.915L186.623 218.82C185.567 219.433 185.561 220.045 186.623 220.652L190.872 223.108C191.001 223.181 191.063 223.271 191.063 223.378C191.063 223.485 191.001 223.575 190.872 223.648L188.697 224.907C188.568 224.98 188.416 225.019 188.231 225.019C188.045 225.019 187.894 224.985 187.764 224.907L179.716 220.259C179.587 220.186 179.525 220.096 179.525 219.989C179.525 219.882 179.587 219.793 179.716 219.719L181.723 218.562C181.846 218.489 182.004 218.455 182.189 218.449C182.375 218.449 182.526 218.489 182.656 218.562L183.055 218.792C183.066 218.494 183.178 218.191 183.392 217.882C183.606 217.573 183.971 217.269 184.488 216.971L185.522 216.37Z" fill="#BDBDBD"/>
<path d="M200.375 212.222C200.561 212.318 200.786 212.442 201.055 212.599C201.325 212.756 201.544 212.886 201.702 212.992C202.23 213.324 202.623 213.695 202.876 214.111C203.129 214.521 203.236 214.948 203.196 215.392C203.157 215.836 202.955 216.28 202.59 216.73C202.224 217.179 201.696 217.606 200.993 218.011C200.291 218.416 199.549 218.725 198.774 218.933C197.998 219.141 197.222 219.259 196.458 219.281C195.694 219.304 194.952 219.242 194.238 219.096C193.524 218.95 192.878 218.725 192.305 218.416C192.119 218.32 191.895 218.196 191.625 218.039C191.355 217.882 191.136 217.752 190.979 217.646C190.439 217.32 190.04 216.949 189.787 216.539C189.534 216.128 189.427 215.696 189.478 215.252C189.523 214.808 189.725 214.358 190.085 213.903C190.439 213.453 190.973 213.02 191.675 212.616C192.378 212.211 193.12 211.902 193.901 211.7C194.682 211.492 195.463 211.379 196.233 211.351C197.003 211.323 197.745 211.385 198.453 211.537C199.156 211.689 199.796 211.913 200.375 212.222ZM195.328 216.567C195.801 216.797 196.301 216.904 196.829 216.887C197.357 216.865 197.852 216.724 198.313 216.46C198.774 216.196 199.021 215.909 199.055 215.6C199.088 215.297 198.903 215.004 198.504 214.735C198.352 214.622 198.172 214.504 197.953 214.375C197.734 214.251 197.526 214.144 197.329 214.055C196.857 213.824 196.357 213.717 195.829 213.734C195.3 213.757 194.8 213.897 194.345 214.161C193.884 214.425 193.637 214.712 193.603 215.021C193.569 215.325 193.755 215.617 194.154 215.887C194.306 215.999 194.485 216.117 194.705 216.246C194.929 216.376 195.132 216.482 195.328 216.567Z" fill="#BDBDBD"/>
<path d="M204.866 205.203C204.995 205.13 205.147 205.096 205.332 205.091C205.518 205.091 205.669 205.13 205.799 205.203L207.541 206.209C207.67 206.282 207.732 206.372 207.732 206.479C207.732 206.586 207.67 206.675 207.541 206.749L205.967 207.653C204.911 208.266 204.905 208.879 205.967 209.485L210.216 211.941C210.345 212.014 210.407 212.104 210.407 212.211C210.407 212.318 210.345 212.408 210.216 212.481L208.041 213.74C207.912 213.813 207.76 213.852 207.575 213.852C207.389 213.852 207.237 213.819 207.108 213.74L199.06 209.092C198.931 209.019 198.869 208.929 198.869 208.822C198.869 208.716 198.931 208.626 199.06 208.553L201.067 207.395C201.196 207.322 201.348 207.288 201.533 207.288C201.718 207.288 201.876 207.322 201.999 207.4L202.399 207.631C202.41 207.333 202.522 207.03 202.736 206.72C202.949 206.411 203.315 206.108 203.832 205.81L204.866 205.203Z" fill="#BDBDBD"/>
<path d="M85.7556 154.19C83.384 154.095 82.3386 154.331 82.7039 156.837C83.0749 159.344 83.1816 161.277 83.1816 161.277C83.1816 161.277 87.4023 161.401 89.3636 160.305C91.3194 159.209 89.3187 154.331 85.7556 154.19Z" fill="#76543F"/>
<path opacity="0.5" d="M85.7556 154.19C83.384 154.095 82.3386 154.331 82.7039 156.837C83.0749 159.344 83.1816 161.277 83.1816 161.277C83.1816 161.277 87.4023 161.401 89.3636 160.305C91.3194 159.209 89.3187 154.331 85.7556 154.19Z" fill="black"/>
<path d="M86.1323 164.958C85.9805 164.958 85.8232 164.941 85.6658 164.913C84.3732 164.66 83.5302 163.402 83.7831 162.109C84.3957 158.995 85.0026 156.596 85.5365 154.471C86.3177 151.38 86.9303 148.936 87.3068 145.491C87.8969 140.095 86.1885 134.942 84.3957 131.924C83.7213 130.789 84.0978 129.327 85.2331 128.653C86.3627 127.979 87.8295 128.355 88.5039 129.49C89.5661 131.278 92.9549 137.752 92.0557 146.013C91.6455 149.79 90.9598 152.504 90.1674 155.646C89.6448 157.708 89.0547 160.052 88.4646 163.042C88.251 164.171 87.2506 164.958 86.1323 164.958Z" fill="#BDBDBD"/>
<path d="M80.422 168.184C80.422 168.184 80.1916 169.184 80.4052 169.584C80.7368 170.202 82.5689 170.96 83.5355 171.359C84.5022 171.758 85.57 172.349 86.5816 174.186C87.6662 176.153 89.6276 177.491 91.8306 178.328C94.0281 179.166 97.2315 179.598 100.986 178.66C104.745 177.721 104.903 175.456 104.903 175.456C104.903 175.456 104.959 173.332 103.992 173.062C103.026 172.793 80.422 168.184 80.422 168.184Z" fill="#BDBDBD"/>
<path d="M81.939 160.294C81.8322 160.962 81.6805 161.626 81.4838 162.272C80.9442 164.053 80.0507 165.891 80.4216 168.184C81.0398 169.286 82.3268 169.702 83.2934 170.129C84.5972 170.708 85.5245 171.09 86.4575 172.214C88.1266 174.231 89.7227 176.783 94.7694 177.44C99.8162 178.098 103.492 176.26 104.318 174.776C105.144 173.298 104.211 172.017 100.906 170.505C99.2261 169.741 95.3933 166.588 94.9549 166.172C94.5278 165.768 94.2074 165.295 93.8759 164.818C93.2071 163.846 92.69 162.615 92.5271 161.451C92.3753 160.367 92.4315 158.962 92.7125 157.607C92.7743 157.315 92.9148 157.017 92.7912 156.747C92.4709 156.045 91.3637 156.23 90.7511 156.275C89.8351 156.348 88.9303 156.545 88.0311 156.742C87.7388 156.804 87.4297 156.877 87.2218 157.09C87.0195 157.293 86.9408 157.585 86.8677 157.866C86.7553 158.287 86.6317 158.709 86.4912 159.125C86.3956 159.411 86.272 159.726 85.9966 159.855C85.7269 159.985 85.384 159.878 85.1817 159.659C84.9794 159.439 84.8951 159.13 84.8726 158.832C84.8558 158.535 84.8951 158.237 84.9063 157.933C84.9176 157.647 84.9007 157.343 84.7434 157.102C84.4118 156.579 83.5744 156.5 83.3608 155.916C83.2484 155.607 83.3721 155.241 83.6137 155.011C83.8554 154.78 84.187 154.674 84.5129 154.64C84.8389 154.606 85.1424 154.617 85.5021 154.623L85.6763 153.926C84.8164 153.848 84.1589 153.881 83.3777 154.213C82.9618 154.393 82.501 154.775 82.3268 155.208C82.0233 155.961 82.2031 156.584 82.2425 156.927C82.3942 158.259 82.1525 158.979 81.939 160.294Z" fill="#76543F"/>
<path opacity="0.35" d="M81.939 160.294C81.8322 160.962 81.6805 161.626 81.4838 162.272C80.9442 164.053 80.0507 165.891 80.4216 168.184C81.0398 169.286 82.3268 169.702 83.2934 170.129C84.5972 170.708 85.5245 171.09 86.4575 172.214C88.1266 174.231 89.7227 176.783 94.7694 177.44C99.8162 178.098 103.492 176.26 104.318 174.776C105.144 173.298 104.211 172.017 100.906 170.505C99.2261 169.741 95.3933 166.588 94.9549 166.172C94.5278 165.768 94.2074 165.295 93.8759 164.818C93.2071 163.846 92.69 162.615 92.5271 161.451C92.3753 160.367 92.4315 158.962 92.7125 157.607C92.7743 157.315 92.9148 157.017 92.7912 156.747C92.4709 156.045 91.3637 156.23 90.7511 156.275C89.8351 156.348 88.9303 156.545 88.0311 156.742C87.7388 156.804 87.4297 156.877 87.2218 157.09C87.0195 157.293 86.9408 157.585 86.8677 157.866C86.7553 158.287 86.6317 158.709 86.4912 159.125C86.3956 159.411 86.272 159.726 85.9966 159.855C85.7269 159.985 85.384 159.878 85.1817 159.659C84.9794 159.439 84.8951 159.13 84.8726 158.832C84.8558 158.535 84.8951 158.237 84.9063 157.933C84.9176 157.647 84.9007 157.343 84.7434 157.102C84.4118 156.579 83.5744 156.5 83.3608 155.916C83.2484 155.607 83.3721 155.241 83.6137 155.011C83.8554 154.78 84.187 154.674 84.5129 154.64C84.8389 154.606 85.1424 154.617 85.5021 154.623L85.6763 153.926C84.8164 153.848 84.1589 153.881 83.3777 154.213C82.9618 154.393 82.501 154.775 82.3268 155.208C82.0233 155.961 82.2031 156.584 82.2425 156.927C82.3942 158.259 82.1525 158.979 81.939 160.294Z" fill="black"/>
<path d="M91.4259 176.564C91.4259 176.564 91.1674 172.984 94.7979 170.809C98.4284 168.634 100.789 169.718 101.997 170.471C103.43 171.365 105.526 173.293 104.442 174.866C103.267 176.564 101.261 177.468 97.4337 177.772C93.5952 178.075 91.4259 176.564 91.4259 176.564Z" fill="#FAFAFA"/>
<path d="M86.4243 163.52C86.5592 163.531 86.6941 163.486 86.784 163.385C87.2842 162.845 90.319 161.007 92.6232 161.957C92.6794 161.873 92.7749 161.311 92.4939 161.137C89.3861 160.355 86.7334 162.182 86.1321 162.834C85.9747 163.002 85.9916 163.267 86.1714 163.418C86.2501 163.475 86.3344 163.508 86.4243 163.52Z" fill="#FAFAFA"/>
<path d="M93.59 164.379C93.5956 163.98 93.3595 163.621 93.219 163.52C90.6001 163.143 87.97 164.79 87.3967 165.413C87.2394 165.582 87.2562 165.846 87.4361 165.998C87.5091 166.06 87.5934 166.094 87.6833 166.099C87.8182 166.11 87.9531 166.065 88.043 165.964C88.5263 165.447 91.5218 163.711 93.59 164.379Z" fill="#FAFAFA"/>
<path d="M97.5522 168.274C97.5129 168.004 96.9846 167.6 96.5406 167.487C93.6463 167.291 91.2016 169.494 90.7239 170.224C90.5947 170.421 90.6565 170.674 90.8588 170.792C90.9431 170.842 91.033 170.859 91.123 170.854C91.2578 170.842 91.3815 170.775 91.4545 170.663C91.8873 170.011 94.8097 167.543 97.5522 168.274Z" fill="#FAFAFA"/>
<path d="M89.1897 168.622C89.3245 168.617 89.4538 168.555 89.5325 168.443C89.9596 167.853 92.4942 165.633 95.1075 166.301C95.1244 166.071 94.6467 165.621 94.4106 165.554C91.8142 165.318 89.3133 167.279 88.8187 167.971C88.6839 168.156 88.7344 168.415 88.9311 168.544C89.0098 168.6 89.0997 168.628 89.1897 168.622Z" fill="#FAFAFA"/>
<path d="M59.3805 162.48C57.0201 162.283 55.958 162.474 56.2221 164.998C56.4862 167.521 56.5087 169.449 56.5087 169.449C56.5087 169.449 60.7237 169.746 62.7244 168.741C64.7308 167.735 62.938 162.772 59.3805 162.48Z" fill="#76543F"/>
<path opacity="0.5" d="M59.3805 162.48C57.0201 162.283 55.958 162.474 56.2221 164.998C56.4862 167.521 56.5087 169.449 56.5087 169.449C56.5087 169.449 60.7237 169.746 62.7244 168.741C64.7308 167.735 62.938 162.772 59.3805 162.48Z" fill="black"/>
<path d="M59.3076 173.253C59.1558 173.248 58.9985 173.225 58.8467 173.186C57.5654 172.877 56.7786 171.584 57.0877 170.303C57.8295 167.217 58.5376 164.846 59.1615 162.744C60.0719 159.687 60.7913 157.27 61.3083 153.842C62.1232 148.475 60.6339 143.259 58.9704 140.163C58.3466 138.999 58.7793 137.555 59.9426 136.931C61.1004 136.307 62.5503 136.74 63.1741 137.904C64.1576 139.736 67.2767 146.345 66.0291 154.561C65.4615 158.315 64.6634 161.002 63.7361 164.104C63.1292 166.144 62.4435 168.46 61.7242 171.421C61.4544 172.556 60.426 173.304 59.3076 173.253Z" fill="#BDBDBD"/>
<path d="M53.4681 176.238C53.4681 176.238 53.1984 177.227 53.3951 177.631C53.6985 178.266 55.5025 179.098 56.4523 179.537C57.4021 179.975 58.4418 180.61 59.3747 182.493C60.3751 184.505 62.2803 185.921 64.444 186.848C66.6021 187.775 69.783 188.343 73.5821 187.562C77.3756 186.781 77.6285 184.527 77.6285 184.527C77.6285 184.527 77.7746 182.408 76.8192 182.099C75.8582 181.796 53.4681 176.238 53.4681 176.238Z" fill="#BDBDBD"/>
<path d="M55.3113 168.42C55.1764 169.083 54.9966 169.735 54.7718 170.376C54.1536 172.135 53.1869 173.933 53.4623 176.238C54.0355 177.362 55.3057 177.834 56.2498 178.3C57.5256 178.93 58.4416 179.351 59.324 180.514C60.9088 182.599 62.3925 185.218 67.4111 186.084C72.4298 186.949 76.1783 185.269 77.0663 183.825C77.9543 182.38 77.0775 181.065 73.8348 179.413C72.1881 178.576 68.4902 175.265 68.0687 174.833C67.6584 174.411 67.3606 173.928 67.0515 173.433C66.422 172.433 65.9612 171.18 65.8432 170.016C65.7364 168.926 65.8488 167.527 66.186 166.183C66.259 165.897 66.4164 165.599 66.304 165.329C66.0118 164.61 64.899 164.75 64.2864 164.773C63.3647 164.807 62.4543 164.964 61.5495 165.121C61.2572 165.172 60.9425 165.234 60.7233 165.43C60.5098 165.621 60.4199 165.914 60.3356 166.189C60.2063 166.605 60.0602 167.021 59.9084 167.431C59.8017 167.718 59.6612 168.021 59.3802 168.145C59.1048 168.263 58.7676 168.139 58.5709 167.914C58.3742 167.684 58.3011 167.375 58.2955 167.077C58.2899 166.779 58.3405 166.481 58.3629 166.183C58.3854 165.897 58.3798 165.593 58.2337 165.346C57.9246 164.812 57.0872 164.694 56.9017 164.104C56.8006 163.789 56.9411 163.43 57.194 163.21C57.4413 162.991 57.7785 162.901 58.11 162.879C58.4416 162.856 58.7395 162.879 59.0992 162.907L59.3015 162.221C58.4472 162.109 57.7841 162.109 56.9973 162.412C56.5758 162.575 56.0981 162.941 55.907 163.357C55.5698 164.098 55.7272 164.728 55.7496 165.076C55.8508 166.408 55.581 167.111 55.3113 168.42Z" fill="#76543F"/>
<path opacity="0.35" d="M55.3113 168.42C55.1764 169.083 54.9966 169.735 54.7718 170.376C54.1536 172.135 53.1869 173.933 53.4623 176.238C54.0355 177.362 55.3057 177.834 56.2498 178.3C57.5256 178.93 58.4416 179.351 59.324 180.514C60.9088 182.599 62.3925 185.218 67.4111 186.084C72.4298 186.949 76.1783 185.269 77.0663 183.825C77.9543 182.38 77.0775 181.065 73.8348 179.413C72.1881 178.576 68.4902 175.265 68.0687 174.833C67.6584 174.411 67.3606 173.928 67.0515 173.433C66.422 172.433 65.9612 171.18 65.8432 170.016C65.7364 168.926 65.8488 167.527 66.186 166.183C66.259 165.897 66.4164 165.599 66.304 165.329C66.0118 164.61 64.899 164.75 64.2864 164.773C63.3647 164.807 62.4543 164.964 61.5495 165.121C61.2572 165.172 60.9425 165.234 60.7233 165.43C60.5098 165.621 60.4199 165.914 60.3356 166.189C60.2063 166.605 60.0602 167.021 59.9084 167.431C59.8017 167.718 59.6612 168.021 59.3802 168.145C59.1048 168.263 58.7676 168.139 58.5709 167.914C58.3742 167.684 58.3011 167.375 58.2955 167.077C58.2899 166.779 58.3405 166.481 58.3629 166.183C58.3854 165.897 58.3798 165.593 58.2337 165.346C57.9246 164.812 57.0872 164.694 56.9017 164.104C56.8006 163.789 56.9411 163.43 57.194 163.21C57.4413 162.991 57.7785 162.901 58.11 162.879C58.4416 162.856 58.7395 162.879 59.0992 162.907L59.3015 162.221C58.4472 162.109 57.7841 162.109 56.9973 162.412C56.5758 162.575 56.0981 162.941 55.907 163.357C55.5698 164.098 55.7272 164.728 55.7496 165.076C55.8508 166.408 55.581 167.111 55.3113 168.42Z" fill="black"/>
<path d="M64.1068 185.072C64.1068 185.072 64 181.481 67.7148 179.463C71.4296 177.446 73.7507 178.626 74.9196 179.43C76.3134 180.385 78.331 182.397 77.1733 183.92C75.9256 185.567 73.8856 186.387 70.0471 186.528C66.2143 186.674 64.1068 185.072 64.1068 185.072Z" fill="#FAFAFA"/>
<path d="M59.6616 171.826C59.7909 171.843 59.9314 171.803 60.0269 171.708C60.5496 171.191 63.663 169.482 65.9223 170.522C65.9785 170.438 66.1021 169.881 65.8267 169.702C62.7526 168.791 60.0269 170.505 59.3975 171.129C59.2345 171.292 59.2401 171.556 59.4143 171.713C59.4874 171.781 59.5717 171.815 59.6616 171.826Z" fill="#FAFAFA"/>
<path d="M66.7824 172.995C66.8049 172.596 66.5857 172.231 66.4508 172.124C63.8544 171.64 61.1511 173.175 60.5498 173.77C60.3868 173.933 60.3924 174.198 60.5667 174.355C60.6341 174.422 60.724 174.456 60.8083 174.467C60.9376 174.484 61.0781 174.445 61.1736 174.349C61.6794 173.843 64.7423 172.236 66.7824 172.995Z" fill="#FAFAFA"/>
<path d="M70.5756 177.047C70.5475 176.777 70.0361 176.35 69.5977 176.221C66.7146 175.9 64.18 178.002 63.6742 178.71C63.5393 178.901 63.5899 179.154 63.7866 179.284C63.8653 179.334 63.9552 179.357 64.0451 179.357C64.18 179.351 64.3093 179.289 64.388 179.177C64.8432 178.547 67.8667 176.204 70.5756 177.047Z" fill="#FAFAFA"/>
<path d="M62.2016 177.047C62.3365 177.047 62.4658 176.991 62.5501 176.884C62.9997 176.316 65.6298 174.198 68.2094 174.979C68.2375 174.748 67.7767 174.276 67.5462 174.203C64.961 173.86 62.3815 175.715 61.8532 176.384C61.7071 176.564 61.7464 176.828 61.9375 176.963C62.0274 177.019 62.1117 177.047 62.2016 177.047Z" fill="#FAFAFA"/>
<path d="M120.301 121.055C118.019 121.055 115.176 120.257 112.017 118.099C111.242 117.565 111.039 116.508 111.573 115.727C112.107 114.952 113.164 114.749 113.945 115.283C118.199 118.189 121.24 117.846 122.364 117.188C122.819 116.919 123.162 116.289 123.291 115.452C123.555 113.783 123.004 111.057 120.655 108.41C115.687 102.801 109.454 99.9124 99.8161 98.7659C98.8832 98.6535 98.2144 97.8049 98.3268 96.872C98.4392 95.9391 99.2822 95.2647 100.221 95.3827C110.623 96.6247 117.716 99.9461 123.212 106.151C125.876 109.157 127.163 112.838 126.657 115.991C126.359 117.863 125.443 119.335 124.083 120.133C123.133 120.69 121.846 121.055 120.301 121.055Z" fill="#BDBDBD"/>
<path d="M98.7323 77.32C101.312 74.8921 103.582 67.7435 102.413 60.2352C101.239 52.7269 94.3037 45.7019 91.5387 44.1845C88.7736 42.6671 86.8291 44.6284 87.5822 47.4272C88.605 51.2376 89.8808 59.8024 82.7715 63.5735C82.7715 63.5735 83.8224 69.1654 87.4867 73.6052C91.1509 78.045 98.7323 77.32 98.7323 77.32Z" fill="#76543F"/>
<path opacity="0.75" d="M98.7323 77.32C101.312 74.8921 103.582 67.7435 102.413 60.2352C101.239 52.7269 94.3037 45.7019 91.5387 44.1845C88.7736 42.6671 86.8291 44.6284 87.5822 47.4272C88.605 51.2376 89.8808 59.8024 82.7715 63.5735C82.7715 63.5735 83.8224 69.1654 87.4867 73.6052C91.1509 78.045 98.7323 77.32 98.7323 77.32Z" fill="white"/>
<path d="M89.0885 48.8996C88.4591 48.8996 87.8409 48.8097 87.2677 48.6242C87.0878 48.568 86.9867 48.377 87.0485 48.1971C87.1047 48.0173 87.2958 47.9161 87.4756 47.9779C89.7124 48.6917 92.7303 47.8599 93.489 45.522C93.5452 45.3422 93.7363 45.2466 93.9161 45.3028C94.096 45.359 94.1915 45.5557 94.1353 45.7299C93.4553 47.8318 91.2354 48.8996 89.0885 48.8996Z" fill="#76543F"/>
<path d="M91.6449 53.6204C89.7285 53.6204 88.4022 52.8673 87.8907 52.5751C87.7278 52.4796 87.6716 52.2716 87.7615 52.1086C87.8514 51.9457 88.065 51.8895 88.2279 51.9794C89.2789 52.5751 90.9424 53.3001 93.2859 52.7381C96.3882 51.9906 97.0513 50.1754 97.1918 49.4279C97.2256 49.2424 97.4054 49.1244 97.5909 49.1581C97.7763 49.1919 97.9 49.3717 97.8606 49.5572C97.6976 50.4339 96.9333 52.5639 93.4433 53.4069C92.797 53.553 92.1957 53.6204 91.6449 53.6204Z" fill="#76543F"/>
<path d="M95.1748 59.5327C95.1636 59.5327 95.158 59.5327 95.1467 59.5327C91.1397 59.5271 88.6612 57.5207 87.5372 56.3293C87.408 56.1944 87.4136 55.9752 87.5541 55.846C87.689 55.7167 87.9082 55.7223 88.0374 55.8628C89.0827 56.9756 91.4038 58.8414 95.1523 58.8527C95.1636 58.8527 95.1692 58.8527 95.1804 58.8527C99.5584 58.8527 100.862 56.7957 101.419 55.919C101.52 55.7617 101.733 55.7111 101.891 55.8122C102.048 55.9134 102.099 56.1213 101.998 56.2843C101.424 57.1667 99.9293 59.5327 95.1748 59.5327Z" fill="#76543F"/>
<path d="M96.9622 66.3891C95.7089 66.3891 94.3602 66.2036 92.9776 65.7371C89.7518 64.6525 87.4251 62.781 86.0538 60.179C85.9639 60.0104 86.0313 59.808 86.1943 59.7181C86.3573 59.6338 86.5652 59.6956 86.6551 59.8586C87.9534 62.3314 90.0946 64.0455 93.1912 65.0852C97.468 66.5239 101.548 65.0908 102.683 64.0455C102.824 63.9163 103.037 63.9275 103.167 64.0624C103.296 64.2029 103.285 64.4164 103.15 64.5457C102.262 65.3775 99.8902 66.3891 96.9622 66.3891Z" fill="#76543F"/>
<path opacity="0.1" d="M88.3407 71.2222C94.4552 64.2366 92.0948 53.227 90.5887 50.0685C88.4699 45.6287 89.3691 43.6786 91.2181 44.027C88.6273 42.8244 86.857 44.7352 87.5763 47.4271C88.5992 51.2375 89.8749 59.8024 82.7656 63.5734C82.7656 63.5734 83.6873 68.4684 86.8008 72.734C87.3234 72.3013 87.8349 71.8067 88.3407 71.2222Z" fill="black"/>
<path d="M104.353 118.779C102.273 113.715 101.239 99.7269 101.666 90.527C103.06 90.2347 104.763 88.3352 104.077 85.8792C103.459 83.6706 102.858 83.3783 100.997 80.9954C99.6711 79.2926 98.7438 77.0446 97.5524 75.2181C93.4666 68.9574 88.2625 64.7817 80.6137 62.9777C79.2986 62.6686 78.5118 61.3142 78.8883 60.016C79.3773 58.3356 79.7932 56.1269 79.2818 54.5084C78.332 51.5185 76.4493 51.2151 75.196 51.7715C73.9427 52.3222 73.8528 53.5642 74.2294 55.5762C74.6059 57.5825 74.0158 57.931 73.347 57.7174C72.6782 57.5038 72.1837 53.8565 67.5135 52.1424C62.8432 50.4283 59.6904 52.6763 59.7635 54.6039C59.8478 56.7058 61.3764 56.8688 64.6192 57.2229C65.9961 57.3746 67.4629 57.9535 68.3902 58.8976C69.694 60.2239 68.969 62.4607 67.1594 62.8653C55.2843 65.5124 46.0619 75.4092 43.4542 88.7623C43.0608 90.8024 42.7855 93.2639 42.6225 96.0121C42.6225 96.0121 41.431 93.7753 38.8796 93.1459C36.5866 92.5839 35.6762 93.6798 35.7099 94.7026C35.738 95.7255 37.0193 96.2144 38.3063 96.7483C40.3689 97.6025 40.7061 98.395 40.7061 98.395C40.7061 98.395 38.9245 98.0915 37.5139 98.7153C36.1033 99.3391 35.7324 100.862 37.098 101.447C37.8623 101.773 39.0201 101.188 40.2171 100.913C40.9702 100.739 42.364 100.463 42.4426 101.368C42.4145 103.481 42.4314 105.695 42.4932 107.966C42.6674 114.378 43.7914 118.767 42.763 124.584C41.9874 128.99 38.1321 132.475 42.0043 136.111C43.7352 137.735 45.7584 137.864 47.3433 137.589C48.6415 137.364 49.8554 138.168 50.1533 139.455C50.586 141.287 51.9067 143.507 55.6384 144.496C59.0835 145.406 61.2865 144.361 62.6297 143.08C63.6019 142.152 65.1531 142.141 66.0185 143.175C67.4516 144.889 70.1099 146.727 74.915 146.705C79.7089 146.682 82.1367 144.597 83.3394 142.821C84.0475 141.776 85.43 141.394 86.5147 142.04C88.3412 143.119 91.2748 143.984 94.9278 142.034C97.6423 140.584 98.3448 137.982 98.4122 135.869C98.4572 134.487 99.7048 133.402 101.076 133.61C103.172 133.93 105.308 133.385 106.747 131.205C109.326 127.287 106.224 123.337 104.353 118.779Z" fill="#76543F"/>
<g opacity="0.1">
<path d="M38.2946 96.754C40.3571 97.6082 40.6943 98.4006 40.6943 98.4006C40.6943 98.4006 38.9128 98.0972 37.5022 98.721C36.0916 99.3448 35.7206 100.868 37.0863 101.452C37.8506 101.778 39.0083 101.194 40.2054 100.918C40.9585 100.744 42.3522 100.469 42.4309 101.374C42.4028 103.487 42.4197 105.701 42.4815 107.971C42.6557 114.384 43.7797 118.773 42.7513 124.59C41.9757 128.996 38.1204 132.48 41.9926 136.116C42.903 136.971 43.8865 137.403 44.8531 137.589C44.7351 137.527 42.9255 134.61 45.0611 130.412C48.0622 124.511 47.8767 120.813 47.0899 108.854C46.1289 94.2193 47.9217 87.9643 53.2326 77.6235C58.6727 67.0242 67.3331 66.5127 71.0086 63.7027C73.0037 62.1741 72.3237 59.4034 70.5759 57.6444C69.1091 56.1663 66.8161 55.5706 65.4617 55.4301C62.4999 55.121 59.7518 54.6096 60.3081 53.1315C59.9316 53.598 59.7349 54.115 59.7518 54.6096C59.8361 56.7115 61.3647 56.8745 64.6074 57.2285C65.9843 57.3803 67.4512 57.9591 68.3785 58.9033C69.6823 60.2296 68.9573 62.4664 67.1477 62.871C55.2726 65.518 46.0502 75.4148 43.4425 88.7679C43.0491 90.808 42.7737 93.2696 42.6108 96.0178C42.6108 96.0178 41.4193 93.781 38.8678 93.1515C36.5749 92.5895 35.6644 93.6855 35.6982 94.7083C35.7319 95.7311 37.0076 96.2201 38.2946 96.754Z" fill="black"/>
<path d="M53.2326 139.517C51.7208 137.533 50.5069 137.207 48.4107 137.645C48.405 137.645 48.405 137.645 48.3994 137.651C49.2424 137.875 49.9281 138.544 50.1416 139.46C50.5744 141.292 51.8951 143.512 55.6267 144.501C58.0602 145.142 59.8698 144.811 61.1962 144.108C55.8066 145.277 54.7444 141.5 53.2326 139.517Z" fill="black"/>
<path d="M79.1298 146.013C76.4716 146.362 73.9819 145.76 71.1831 143.715C68.1652 141.506 66.6927 141.708 64.8213 142.456C65.2653 142.557 65.6812 142.793 66.0015 143.175C67.4346 144.889 70.0929 146.727 74.898 146.705C76.584 146.693 77.9777 146.429 79.1298 146.013Z" fill="black"/>
<path d="M75.4593 54.7051C75.3582 52.9348 76.4878 51.5916 77.8815 52.1761C76.9936 51.4174 75.9651 51.4343 75.1896 51.7771C73.9363 52.3278 73.8464 53.5699 74.2229 55.5818C74.5995 57.5882 74.0094 57.9366 73.3406 57.723C73.2394 57.6893 73.1439 57.5769 73.0371 57.4139C73.5485 58.5548 74.0543 59.69 75.2233 59.055C76.3922 58.4143 75.5605 56.4754 75.4593 54.7051Z" fill="black"/>
</g>
<path opacity="0.2" d="M64.1514 95.2197C64.1514 95.2197 64.7977 97.9679 67.81 97.9285C70.8167 97.8892 71.1483 96.5235 72.379 94.6633C73.6098 92.7975 76.2512 92.3816 78.5498 92.3422C80.8484 92.3029 82.9952 89.6952 81.7645 87.0594C81.7645 87.0594 82.0792 88.9421 80.2358 90.1448C78.3924 91.3475 75.9477 90.2628 73.5311 91.4206C71.1202 92.5727 70.9122 95.1747 69.1363 96.0009C67.366 96.8158 65.2192 96.1863 64.1514 95.2197Z" fill="black"/>
<path d="M78.2359 93.663C77.9717 96.1414 75.7462 97.9285 73.2678 97.6588C71.8009 97.5014 70.5758 96.6584 69.8789 95.4782C71.0703 94.3655 71.5256 92.4434 73.5375 91.415C75.128 90.6057 76.3363 90.971 77.6626 90.9373C78.1178 91.7353 78.3426 92.6795 78.2359 93.663Z" fill="#BDBDBD"/>
<path d="M63.1963 93.8372C63.747 95.0848 65.0228 96.5685 67.9227 96.3156C70.9575 96.0514 70.7158 92.8424 73.5315 91.4093C76.111 90.0942 77.6903 91.8758 80.3935 90.0324C82.8326 88.3689 81.4501 85.0812 80.534 84.4068" stroke="#BDBDBD" stroke-width="1.2138" stroke-miterlimit="10" stroke-linecap="round"/>
<path d="M77.0605 93.174C77.0492 93.8597 76.4929 94.4048 75.8072 94.3992C75.1216 94.3879 74.5765 93.8316 74.5821 93.1459C74.5933 92.4603 75.1497 91.9151 75.8353 91.9208C76.521 91.9264 77.0661 92.4884 77.0605 93.174Z" fill="#F5F5F5"/>
<path opacity="0.2" d="M101.66 90.6788L101.362 90.527C101.362 90.527 100.305 90.454 99.704 89.8976C99.1027 89.3412 98.4283 87.5203 96.5006 87.0539C94.5786 86.5874 93.4995 87.5259 91.3695 87.6159C89.2339 87.7058 88.5202 86.2333 88.0931 84.9969C87.8683 87.0932 88.4584 88.4982 89.9814 89.1164C91.6674 89.802 94.7191 88.3633 96.0229 89.1164C97.3267 89.8695 98.0798 91.4262 99.704 91.6061C100.643 91.7128 101.272 91.4543 101.643 91.2183C101.643 91.0328 101.654 90.8586 101.66 90.6788Z" fill="black"/>
<path d="M99.6984 89.8976C99.1758 91.9432 97.2144 93.3539 95.0451 93.1234C92.6734 92.8649 90.9537 90.7293 91.2122 88.3577C91.2403 88.1048 91.2853 87.8519 91.364 87.6158C92.9488 87.5765 94.3932 86.475 96.5007 87.0538C98.3553 87.5653 98.4789 89.0321 99.6984 89.8976Z" fill="#BDBDBD"/>
<path d="M88.1715 83.5751C87.7388 84.7834 88.312 86.3513 89.5484 87.0988C91.9988 88.5825 93.6286 86.2558 96.5004 87.0482C98.6529 87.6439 98.4786 89.5042 100.367 90.2573C100.732 90.4034 101.311 90.5383 101.671 90.5214" stroke="#BDBDBD" stroke-width="1.2138" stroke-miterlimit="10" stroke-linecap="round"/>
<path d="M97.8266 89.6671C97.821 90.3078 97.2927 90.8192 96.6576 90.808C96.017 90.8024 95.5055 90.2741 95.5168 89.639C95.5224 88.9983 96.0507 88.4869 96.6857 88.4982C97.3264 88.5038 97.8378 89.0264 97.8266 89.6671Z" fill="#F5F5F5"/>
<path d="M84.1928 99.2717C78.3536 101.885 73.2226 107.05 70.8509 112.743C69.3897 116.255 70.1878 119.172 72.1435 119.835C76.0101 121.139 80.3431 115.114 84.648 113.013C88.9136 110.933 92.4654 112.94 94.6516 111.535C97.2256 109.877 96.849 105.645 95.4665 102.627C93.9322 99.2605 90.0376 96.6584 84.1928 99.2717Z" fill="#BDBDBD"/>
<path d="M94.5111 111.619C92.3699 104.172 85.3786 101.857 78.2862 102.975C75.0322 105.662 72.3739 109.09 70.8509 112.743C69.3897 116.255 70.1878 119.172 72.1435 119.835C76.0101 121.139 80.3431 115.114 84.648 113.013C88.8237 110.984 92.3137 112.855 94.5111 111.619Z" fill="#F28F8F"/>
<path opacity="0.1" d="M89.8973 112.007C82.7206 110.079 78.0897 116.244 75.8248 116.188C73.5544 116.132 72.4585 114.148 75.6057 109.112C78.7248 104.122 85.5025 102.711 88.4474 104.178C85.5081 102.728 81.9169 102.396 78.292 102.97C75.038 105.656 72.3798 109.084 70.8568 112.737C69.3956 116.25 70.1936 119.167 72.1494 119.83C76.0159 121.134 80.349 115.109 84.6539 113.007C86.5647 112.085 88.3294 111.979 89.8973 112.007Z" fill="black"/>
<path d="M92.6508 104.88C91.2682 105.482 91.2851 107.32 90.1442 111.225C90.0656 111.501 89.9869 111.759 89.9082 112.012C91.8302 112.057 93.4544 112.316 94.6571 111.54C94.9044 111.383 95.1179 111.192 95.3146 110.989C95.5956 108.028 94.112 104.245 92.6508 104.88Z" fill="#F5F5F5"/>
<path d="M95.3146 110.99C95.3484 110.647 95.354 110.293 95.3427 109.933C94.9718 110.411 94.3873 110.877 93.7354 111.006C92.6845 111.214 91.5155 111.006 91.5155 111.006C91.5155 111.006 91.8752 108.725 92.2349 106.763C92.4709 105.448 93.2633 104.875 93.8872 105.33C93.4994 104.898 93.0779 104.701 92.6508 104.886C91.2682 105.488 91.2851 107.325 90.1442 111.231C90.0656 111.507 89.9869 111.765 89.9082 112.018C91.8302 112.063 93.4544 112.322 94.6571 111.546C94.9044 111.383 95.1179 111.192 95.3146 110.99Z" fill="#E0E0E0"/>
<path d="M77.8201 109.73C76.4376 110.332 76.4544 112.17 75.3136 116.075C74.8134 117.784 74.3863 119.043 74.0547 119.942C76.1172 119.543 78.2809 117.688 80.4783 115.907C80.7874 112.94 79.2925 109.09 77.8201 109.73Z" fill="#F5F5F5"/>
<path d="M80.4781 115.907C80.5287 115.435 80.5287 114.935 80.4894 114.44C78.3032 115.856 76.9881 117.374 76.6453 117.183C76.2968 116.991 76.5947 115.457 76.7464 113.766C76.9263 111.725 77.1792 109.612 78.5336 109.764C78.2976 109.652 78.0559 109.624 77.8142 109.73C76.4317 110.332 76.4486 112.169 75.3077 116.075C74.8075 117.784 74.3804 119.043 74.0488 119.942C76.117 119.549 78.2807 117.694 80.4781 115.907Z" fill="#E0E0E0"/>
<path d="M30.2124 135.099C30.0326 135.099 29.8527 135.071 29.6729 135.009C28.7793 134.711 28.296 133.745 28.5995 132.851C33.1404 119.313 39.8114 113.591 49.1069 108.747C49.9386 108.309 50.9727 108.635 51.4054 109.472C51.8438 110.309 51.5178 111.338 50.6805 111.771C41.9189 116.334 36.0291 121.426 31.831 133.93C31.5893 134.644 30.9262 135.099 30.2124 135.099Z" fill="#BDBDBD"/>
<path d="M29.0102 131.632C28.2964 133.486 27.2062 134.239 26.1665 135.33C25.1268 136.42 24.0028 137.089 22.9181 138.803C21.8334 140.511 21.322 143.406 21.648 144.76C21.8334 145.524 22.89 145.536 22.9518 144.861C23.1822 142.371 23.5981 140.225 25.3459 138.887C25.3459 138.887 24.1601 141.292 24.0028 143.484C23.8454 145.676 24.132 148.295 25.0425 148.424C25.9529 148.553 25.9136 147.626 25.7899 146.305C25.6607 144.99 25.5426 141.5 27.3017 139.011C27.3017 139.011 26.6779 142.686 27.3017 145.03C27.9255 147.373 29.1451 149.054 29.8138 148.767C30.4882 148.48 30.4545 148.031 29.7239 146.227C29.1563 144.827 29.1844 143.051 29.3305 141.545C29.4766 140.011 29.8307 138.938 30.8592 137.87C31.3088 137.403 31.7808 137.145 32.1574 137.038C32.5845 136.914 33.3151 137.162 33.7085 137.544C34.3436 138.162 34.8999 138.938 35.0742 140.219C35.2371 141.399 37.1873 141.506 36.4567 138.19C35.7317 134.869 31.646 134.29 32.6688 131.581L29.0102 131.632Z" fill="#BDBDBD"/>
<path d="M113.901 119.217L115.452 116.205C113.041 114.946 115.8 111.242 114.401 108.14C113.001 105.038 111.506 106.291 112.08 107.336C112.703 108.466 112.821 109.449 112.58 110.298C112.344 111.124 111.81 111.602 111.237 111.119C110.663 110.63 110.304 109.022 108.219 107.252C106.325 105.645 104.532 105.336 103.751 105.33C102.121 105.324 102.694 106.46 103.481 106.774C106.847 108.123 107.263 108.871 108.112 109.972C108.961 111.074 108.848 111.709 108.404 111.574C107.966 111.445 107.303 110.489 105.246 109.545C103.189 108.601 100.918 108.607 100.559 109.039C100.199 109.472 100.244 110.028 101.222 110.259C102.2 110.495 104.262 111.006 105.386 111.658C106.819 112.484 107.471 113.552 107.235 113.867C106.999 114.182 105.774 113.31 103.908 112.968C102.042 112.625 101.081 112.625 100.311 112.923C99.7381 113.147 99.9405 114.3 101.655 114.378C103.037 114.446 105.296 115.114 106.555 115.969C107.258 116.446 108.191 117.098 109.399 117.627C110.731 118.2 111.529 118.453 113.901 119.217Z" fill="#BDBDBD"/>
<path d="M58.0987 73.7176C60.0713 74.7516 63.2354 80.1356 59.3576 85.8624C55.4798 91.5892 49.9891 91.3812 47.4713 90.9485C45.8977 90.1842 37.6644 86.6155 37.2541 75.2237C36.8495 63.832 43.8576 59.4765 45.6111 58.4705C47.3645 57.4589 50.8602 57.1554 50.4274 61.0557C49.9947 64.956 49.5844 68.4179 52.4169 70.9244C54.6424 72.8914 58.0987 73.7176 58.0987 73.7176Z" fill="#76543F"/>
<path opacity="0.75" d="M58.0987 73.7176C60.0713 74.7516 63.2354 80.1356 59.3576 85.8624C55.4798 91.5892 49.9891 91.3812 47.4713 90.9485C45.8977 90.1842 37.6644 86.6155 37.2541 75.2237C36.8495 63.832 43.8576 59.4765 45.6111 58.4705C47.3645 57.4589 50.8602 57.1554 50.4274 61.0557C49.9947 64.956 49.5844 68.4179 52.4169 70.9244C54.6424 72.8914 58.0987 73.7176 58.0987 73.7176Z" fill="white"/>
<path d="M43.3469 88.5263C43.0209 88.5263 42.7399 88.5094 42.5207 88.4869C42.3353 88.4645 42.2004 88.2959 42.2172 88.1104C42.2397 87.9249 42.4083 87.7901 42.5938 87.8069C44.3079 87.9924 49.5345 87.6102 53.1425 83.6706C56.8405 79.6354 56.9866 75.7127 56.4583 73.1275C56.419 72.942 56.537 72.7622 56.7225 72.7228C56.9023 72.6835 57.0878 72.8015 57.1271 72.987C57.6891 75.7239 57.5374 79.8827 53.6483 84.1258C50.31 87.7676 45.6567 88.5263 43.3469 88.5263Z" fill="#76543F"/>
<path d="M41.2563 81.0067C39.1938 81.0067 37.6651 80.6751 37.5359 80.647C37.3504 80.6077 37.238 80.4222 37.2774 80.2424C37.3167 80.0569 37.5022 79.9445 37.6876 79.9839C37.9461 80.0401 44.0551 81.3664 48.4387 78.4328C52.4064 75.7745 52.7492 72.5599 52.8953 71.1886C52.9178 71.0031 53.092 70.8682 53.2719 70.8851C53.4573 70.9076 53.5922 71.0706 53.5754 71.2616C53.4292 72.5992 53.0471 76.1623 48.8152 78.9948C46.4042 80.6133 43.5099 81.0067 41.2563 81.0067Z" fill="#76543F"/>
<path d="M42.8857 71.9304C39.9465 71.9304 38.0244 71.0031 37.0522 70.368C36.8948 70.2669 36.8499 70.0533 36.9566 69.896C37.0578 69.7386 37.2714 69.6936 37.4287 69.7948C38.564 70.5366 41.0705 71.6944 45.1337 71.0705C48.3428 70.5816 49.7309 69.5475 50.7537 68.5078C50.883 68.3729 51.1022 68.3729 51.2371 68.5022C51.3719 68.6315 51.3719 68.8506 51.2427 68.9855C50.1355 70.1095 48.6406 71.2279 45.2349 71.7449C44.3919 71.8742 43.6051 71.9304 42.8857 71.9304Z" fill="#76543F"/>
<path d="M46.4654 65.3606C45.8304 65.3606 45.1447 65.2819 44.4085 65.0908C42.6045 64.6188 41.2557 63.5903 40.5138 62.1066C40.4295 61.938 40.497 61.7357 40.6656 61.6514C40.8342 61.5671 41.0365 61.6345 41.1264 61.8031C41.7896 63.1238 42.9529 64.0118 44.5827 64.4333C47.123 65.0965 49.045 64.3097 50.214 63.5341C50.3713 63.4273 50.5849 63.4723 50.686 63.6296C50.7928 63.787 50.7479 64.0006 50.5905 64.1017C49.6407 64.7255 48.247 65.3606 46.4654 65.3606Z" fill="#76543F"/>
<path opacity="0.1" d="M51.9167 86.8852C49.4327 86.6604 46.3192 85.9523 43.6272 81.8272C40.9352 77.6965 40.0979 69.0979 42.5538 63.9106C44.1724 60.4993 47.4039 57.3746 49.7362 58.4199C48.6965 57.4476 46.7744 57.8017 45.6111 58.4705C43.8576 59.4821 36.8495 63.8376 37.2541 75.2237C37.6588 86.6098 45.8977 90.1841 47.4713 90.9485C49.9891 91.3812 55.4798 91.5891 59.3576 85.8624C61.954 82.0295 61.392 78.3484 60.1444 76.0218C62.0945 82.1307 55.6147 87.2224 51.9167 86.8852Z" fill="black"/>
<path d="M57.0207 85.705C57.0207 85.705 54.0926 88.9365 54.0645 92.0444C54.0533 93.618 55.1885 95.0567 57.0207 95.0567C58.8528 95.0567 59.988 93.618 59.9768 92.0444C59.9487 88.9365 57.0207 85.705 57.0207 85.705Z" fill="#FAFAFA"/>
<path d="M157.372 34.1078L121.134 55.0029C120.758 55.2221 120.454 55.7504 120.454 56.1831V78.9666C120.454 79.3993 120.763 79.9276 121.14 80.1412L123.584 81.5125C123.961 81.726 124.574 81.726 124.95 81.5068L161.188 60.6117C161.564 60.3925 161.868 59.8642 161.868 59.4315V36.648C161.868 36.2153 161.559 35.687 161.182 35.4734L158.738 34.1022C158.361 33.8886 157.748 33.8942 157.372 34.1078Z" fill="#76543F"/>
<path d="M124.265 81.1134V58.3299C124.265 57.8972 124.568 57.3689 124.945 57.1497L161.182 36.2546C161.559 36.0354 161.862 36.2152 161.862 36.648V59.4315C161.862 59.8642 161.559 60.3925 161.182 60.6117L124.945 81.5068C124.568 81.726 124.265 81.5462 124.265 81.1134Z" fill="#76543F"/>
<path opacity="0.2" d="M124.944 81.5069C124.54 81.7373 123.916 81.726 123.573 81.5125L121.134 80.1412C120.757 79.9276 120.448 79.405 120.448 78.9666V56.1888C120.448 55.964 120.533 55.7111 120.667 55.4919L124.467 57.6612C124.343 57.8748 124.264 58.1164 124.264 58.33V81.1078C124.264 81.5125 124.545 81.7429 124.944 81.5069Z" fill="black"/>
<path opacity="0.4" d="M161.856 36.5244C161.8 36.1816 161.525 36.0579 161.182 36.2546L124.944 57.1498C124.753 57.2622 124.585 57.4476 124.461 57.6612L120.656 55.4919C120.78 55.2896 120.943 55.1097 121.128 55.0086L157.366 34.1134C157.743 33.8942 158.35 33.8942 158.732 34.1078L161.171 35.4791C161.525 35.6701 161.812 36.1197 161.856 36.5244Z" fill="white"/>
<path d="M120.448 64.2816L114.963 69.8622C114.671 70.1601 114.772 70.6041 115.064 70.7951C115.177 70.8682 118.863 72.9813 118.863 72.9813L124.264 66.479L120.448 64.2816Z" fill="#76543F"/>
<path opacity="0.1" d="M120.448 64.2816L114.963 69.8622C114.671 70.1601 114.772 70.6041 115.064 70.7951C115.177 70.8682 118.863 72.9813 118.863 72.9813L124.264 66.479L120.448 64.2816Z" fill="black"/>
<path d="M124.264 66.479L118.779 72.0597C118.374 72.4699 118.722 73.1612 119.296 73.0825L124.269 72.3631C124.798 72.3631 124.798 66.479 124.264 66.479Z" fill="#76543F"/>
<path d="M128.704 64.6412C128.727 64.0061 128.817 63.3655 128.968 62.7248C129.126 62.0841 129.345 61.4771 129.631 60.9039C129.918 60.3307 130.266 59.808 130.671 59.3303C131.081 58.8526 131.553 58.4648 132.087 58.1557C132.616 57.8522 133.088 57.7005 133.498 57.7005C133.908 57.7005 134.262 57.8241 134.543 58.0658C134.83 58.3075 135.049 58.6615 135.206 59.1224C135.364 59.5832 135.448 60.1227 135.471 60.7297C135.487 61.2018 135.493 61.6963 135.493 62.219C135.493 62.7416 135.487 63.2362 135.471 63.7027C135.448 64.3377 135.358 64.9784 135.206 65.6191C135.049 66.2598 134.83 66.8723 134.543 67.4456C134.257 68.0244 133.908 68.5471 133.498 69.0192C133.088 69.4913 132.616 69.879 132.087 70.1825C131.553 70.4916 131.081 70.649 130.671 70.649C130.261 70.649 129.912 70.531 129.631 70.2837C129.345 70.0364 129.126 69.6823 128.968 69.2215C128.811 68.7607 128.727 68.2211 128.704 67.6142C128.687 67.1646 128.682 66.6813 128.682 66.1586C128.682 65.6303 128.687 65.1245 128.704 64.6412ZM133.47 64.7761C133.476 64.5738 133.487 64.3433 133.492 64.0961C133.498 63.8488 133.504 63.5959 133.504 63.3374C133.504 63.0788 133.498 62.8372 133.492 62.6011C133.487 62.3651 133.476 62.1572 133.47 61.9717C133.453 61.7019 133.419 61.4659 133.357 61.2692C133.296 61.0725 133.211 60.9151 133.099 60.8084C132.987 60.7016 132.846 60.6454 132.683 60.6398C132.514 60.6341 132.323 60.696 132.099 60.8252C131.874 60.9545 131.677 61.1175 131.514 61.3142C131.346 61.5109 131.211 61.73 131.098 61.9661C130.986 62.2021 130.902 62.455 130.84 62.7248C130.778 62.9945 130.739 63.2699 130.727 63.5622C130.71 63.7589 130.705 63.978 130.699 64.2197C130.694 64.4614 130.694 64.7086 130.694 64.9672C130.694 65.2257 130.694 65.473 130.699 65.7146C130.705 65.9563 130.71 66.1755 130.727 66.3665C130.755 66.9061 130.879 67.2995 131.104 67.5355C131.323 67.7772 131.66 67.7659 132.11 67.5074C132.559 67.2489 132.891 66.8723 133.11 66.3778C133.307 65.8945 133.436 65.3549 133.47 64.7761Z" fill="white"/>
<path d="M142.287 59.1561C142.293 59.3191 142.298 59.5326 142.298 59.7912C142.298 60.0553 142.293 60.2689 142.287 60.4431C142.27 60.9882 142.192 61.5334 142.051 62.0841C141.905 62.6349 141.708 63.1575 141.455 63.6577C141.203 64.1523 140.899 64.6075 140.539 65.0121C140.18 65.4224 139.781 65.754 139.342 66.0069C138.898 66.2598 138.499 66.3947 138.14 66.4003C137.78 66.4059 137.477 66.3047 137.224 66.1024C136.971 65.9001 136.774 65.6022 136.628 65.2201C136.482 64.8379 136.403 64.3771 136.386 63.8544C136.381 63.6914 136.375 63.4779 136.375 63.2194C136.375 62.9552 136.381 62.7417 136.386 62.5674C136.392 62.0279 136.471 61.4828 136.617 60.932C136.763 60.3813 136.959 59.853 137.218 59.3584C137.477 58.8582 137.78 58.403 138.14 57.9871C138.499 57.5769 138.898 57.2397 139.342 56.9868C139.786 56.7339 140.185 56.6046 140.539 56.6046C140.899 56.6046 141.203 56.7058 141.461 56.9081C141.72 57.1104 141.916 57.4027 142.057 57.7904C142.192 58.1726 142.27 58.6278 142.287 59.1561ZM138.331 62.6405C138.353 63.0508 138.454 63.3261 138.629 63.461C138.808 63.6015 139.039 63.5847 139.331 63.4161C139.618 63.2475 139.854 62.9946 140.034 62.6517C140.213 62.3089 140.309 61.9211 140.331 61.4828C140.348 61.3086 140.354 61.1119 140.354 60.9039C140.354 60.6904 140.348 60.5049 140.331 60.3475C140.309 59.9373 140.208 59.6619 140.034 59.527C139.854 59.3921 139.623 59.4034 139.331 59.572C139.039 59.7406 138.808 59.9935 138.629 60.3363C138.449 60.6791 138.353 61.0669 138.331 61.5053C138.314 61.6795 138.308 61.8762 138.308 62.0841C138.308 62.2921 138.32 62.4831 138.331 62.6405Z" fill="white"/>
<path d="M146.716 61.7469C146.508 61.8706 146.323 61.9436 146.16 61.9661C146.003 61.9886 145.862 61.9886 145.75 61.9548C145.632 61.9211 145.536 61.8706 145.457 61.7975C145.379 61.7244 145.311 61.657 145.261 61.5839V65.1414C145.261 65.265 145.233 65.3887 145.176 65.5067C145.12 65.6303 145.047 65.7146 144.968 65.7596L143.603 66.552C143.524 66.597 143.457 66.5914 143.395 66.5352C143.339 66.479 143.311 66.389 143.311 66.2654V55.3064C143.311 55.1828 143.339 55.0591 143.395 54.9411C143.451 54.8175 143.524 54.7332 143.603 54.6882L144.918 53.9295C144.997 53.8845 145.064 53.8902 145.126 53.9464C145.182 54.0026 145.21 54.0925 145.21 54.2161V54.5983C145.278 54.4522 145.345 54.2892 145.424 54.1262C145.497 53.9576 145.592 53.7946 145.705 53.6373C145.817 53.4799 145.952 53.3225 146.115 53.1652C146.278 53.0078 146.48 52.8617 146.716 52.7268C147.042 52.5414 147.351 52.4346 147.638 52.4177C147.925 52.4008 148.183 52.4908 148.397 52.6819C148.616 52.8729 148.79 53.1708 148.925 53.5698C149.06 53.9745 149.133 54.4971 149.15 55.1434C149.155 55.3064 149.161 55.5312 149.161 55.8122C149.161 56.0932 149.155 56.3236 149.15 56.4978C149.133 57.1666 149.06 57.7736 148.925 58.33C148.79 58.8863 148.616 59.3865 148.397 59.8305C148.177 60.2745 147.925 60.6566 147.638 60.977C147.346 61.3029 147.042 61.5558 146.716 61.7469ZM147.205 57.4195C147.228 57.0936 147.228 56.7845 147.205 56.481C147.183 56.1044 147.098 55.8122 146.958 55.6043C146.812 55.3963 146.57 55.3907 146.233 55.5874C146.076 55.6773 145.935 55.7953 145.823 55.9415C145.705 56.0876 145.609 56.2449 145.536 56.4192C145.457 56.5934 145.401 56.7676 145.356 56.9474C145.311 57.1273 145.283 57.3071 145.272 57.4813C145.255 57.6556 145.249 57.8579 145.249 58.077C145.249 58.3018 145.255 58.4929 145.272 58.6503C145.283 58.8077 145.317 58.9538 145.356 59.083C145.401 59.2123 145.457 59.3191 145.536 59.409C145.615 59.4933 145.71 59.5383 145.823 59.5495C145.941 59.5607 146.076 59.5214 146.233 59.4258C146.576 59.2292 146.817 58.9425 146.958 58.5716C147.098 58.2063 147.183 57.8185 147.205 57.4195Z" fill="white"/>
<path d="M153.381 55.1209C153.381 54.9973 153.353 54.9186 153.302 54.8849C153.246 54.8511 153.156 54.8455 153.027 54.8792C152.898 54.913 152.724 54.9635 152.51 55.0422C152.296 55.1209 152.032 55.2052 151.712 55.3007C151.161 55.4637 150.74 55.3963 150.442 55.0984C150.144 54.8006 149.998 54.2723 149.998 53.5192C149.998 53.1427 150.06 52.7549 150.183 52.3615C150.307 51.9681 150.476 51.5859 150.7 51.2094C150.92 50.8385 151.189 50.49 151.498 50.1697C151.808 49.8493 152.156 49.5796 152.538 49.3604C152.915 49.1412 153.263 49.012 153.578 48.967C153.898 48.922 154.168 48.9445 154.404 49.0232C154.634 49.1075 154.82 49.2536 154.949 49.4559C155.084 49.6639 155.157 49.8999 155.174 50.1697C155.179 50.2877 155.151 50.4113 155.095 50.535C155.033 50.6586 154.96 50.7429 154.882 50.7879L153.589 51.5353C153.51 51.5803 153.449 51.5915 153.398 51.5634C153.353 51.5353 153.297 51.5072 153.229 51.4791C153.162 51.451 153.078 51.4398 152.976 51.4398C152.87 51.4454 152.724 51.5016 152.538 51.6084C152.37 51.7039 152.235 51.822 152.122 51.9568C152.01 52.0917 151.954 52.2435 151.954 52.4121C151.954 52.5357 151.97 52.62 152.01 52.665C152.049 52.7099 152.117 52.7212 152.229 52.6987C152.336 52.6762 152.488 52.6312 152.684 52.5582C152.881 52.4907 153.134 52.4008 153.454 52.2997C154.112 52.0861 154.589 52.1535 154.893 52.4964C155.191 52.8392 155.342 53.345 155.342 54.0138C155.342 54.3903 155.281 54.7837 155.157 55.1827C155.033 55.5817 154.854 55.9751 154.612 56.3629C154.376 56.7507 154.084 57.116 153.746 57.4588C153.404 57.8016 153.021 58.0939 152.583 58.3468C152.15 58.5997 151.768 58.7402 151.437 58.7795C151.105 58.8189 150.83 58.7851 150.605 58.684C150.38 58.5772 150.206 58.4198 150.088 58.2119C149.97 58.004 149.902 57.7679 149.885 57.5094C149.88 57.3914 149.908 57.2677 149.97 57.1441C150.032 57.0205 150.099 56.9362 150.183 56.8856L151.532 56.11C151.611 56.0651 151.667 56.0594 151.706 56.1044C151.74 56.1437 151.791 56.1831 151.847 56.2224C151.903 56.2618 151.987 56.2786 152.094 56.2786C152.201 56.2786 152.364 56.2112 152.583 56.0875C152.802 55.9639 152.988 55.8122 153.145 55.6267C153.297 55.4637 153.381 55.2895 153.381 55.1209Z" fill="white"/>
<path d="M158.276 50.861C158.276 50.9846 158.248 51.1082 158.192 51.2263C158.136 51.3499 158.063 51.4342 157.984 51.4792L156.613 52.266C156.534 52.3109 156.466 52.3053 156.405 52.2491C156.348 52.1929 156.32 52.103 156.32 51.9793V44.7857C156.32 44.6621 156.348 44.5385 156.405 44.4204C156.461 44.2968 156.534 44.2125 156.613 44.1675L157.978 43.3751C158.057 43.3302 158.124 43.3358 158.186 43.392C158.242 43.4482 158.27 43.5381 158.27 43.6617V50.861H158.276ZM158.276 54.4521C158.276 54.5758 158.248 54.6994 158.192 54.8174C158.136 54.9411 158.063 55.0254 157.984 55.0703L156.618 55.8628C156.539 55.9077 156.472 55.9021 156.41 55.8459C156.354 55.7897 156.326 55.6998 156.326 55.5761V53.8901C156.326 53.7665 156.354 53.6429 156.41 53.5248C156.466 53.4012 156.539 53.3169 156.618 53.2719L157.984 52.4795C158.063 52.4346 158.13 52.4402 158.192 52.4964C158.248 52.5526 158.276 52.6425 158.276 52.7661V54.4521Z" fill="white"/>
</svg>
