<svg width="20" height="20" viewBox="0 0 20 20" fill="none" xmlns="http://www.w3.org/2000/svg">
<path fill-rule="evenodd" clip-rule="evenodd" d="M5.00244 0C3.67636 0 2.40459 0.526784 1.46691 1.46447C0.529226 2.40215 0.00244141 3.67392 0.00244141 5V15C0.00244141 16.3261 0.529226 17.5979 1.46691 18.5355C2.40459 19.4732 3.67636 20 5.00244 20H15.0024C16.3285 20 17.6003 19.4732 18.538 18.5355C19.4757 17.5979 20.0024 16.3261 20.0024 15V5C20.0024 3.67392 19.4757 2.40215 18.538 1.46447C17.6003 0.526784 16.3285 0 15.0024 0L5.00244 0ZM6.32744 15H10.6712C12.9262 15 14.2812 13.865 14.2812 12.005C14.2812 10.6275 13.3299 9.61 11.9012 9.4625V9.3375C12.9412 9.1625 13.7537 8.175 13.7537 7.0675C13.7537 5.4425 12.5599 4.43 10.5762 4.43H6.32744V15ZM7.96869 8.90625V5.8225H10.1937C11.4099 5.8225 12.1212 6.39375 12.1212 7.36875C12.1212 8.37125 11.3662 8.90625 9.91619 8.90625H7.96869ZM7.96869 13.6088H10.3412C11.8212 13.6088 12.6037 13.0088 12.6037 11.8875C12.6037 10.7813 11.7912 10.2025 10.2462 10.2025H7.96869V13.6088Z" fill="#7432F9"/>
</svg>
