<svg width="115" height="107" viewBox="0 0 115 107" fill="none" xmlns="http://www.w3.org/2000/svg">
<path d="M109.663 26.6206L106.615 26.6193C107.144 27.7165 107.592 28.9486 107.94 30.1245L109.603 30.129L111.407 30.1356C110.862 28.9575 110.352 27.7099 109.663 26.6206Z" fill="#F1A35A"/>
<path d="M22.7605 72.3719C18.6143 70.7235 12.8386 70.8352 8.63094 72.2237C8.18762 72.37 7.7388 72.5303 7.3197 72.7247C4.39345 73.963 1.72305 75.7312 6.48499e-05 78.1915C1.78662 78.1069 3.57122 77.9971 5.35377 77.8623C6.27235 77.7859 7.30109 77.5837 8.21431 77.6102C9.11999 77.4159 10.1221 77.3808 11.0495 77.306C13.9411 77.073 16.7177 76.9304 19.6087 77.2669C20.7565 75.6942 21.5583 73.9226 22.7605 72.3719Z" fill="#E94031"/>
<path d="M16.3303 72.361C15.8802 72.3116 15.4083 72.3322 14.9574 72.359C11.1289 72.5869 7.61905 74.0142 4.53227 76.3319C3.7788 76.8977 3.02025 77.4717 2.39647 78.1915C3.25137 77.6097 4.03019 76.9237 4.90299 76.3632C5.0488 76.2795 5.19539 76.1975 5.3427 76.117C5.49013 76.0364 5.63828 75.9573 5.78724 75.8798C5.93608 75.8024 6.08573 75.7264 6.23618 75.652C6.38656 75.5775 6.53762 75.5047 6.68939 75.4335C6.84127 75.3621 6.99375 75.2924 7.14685 75.2243C7.29996 75.1562 7.45375 75.0896 7.6082 75.0247C7.76265 74.9598 7.91773 74.8964 8.07341 74.8346C8.22911 74.7728 8.38535 74.7127 8.54209 74.6542C8.69895 74.5957 8.85634 74.5389 9.01426 74.4836C9.17216 74.4283 9.33062 74.3747 9.48961 74.3228C9.6486 74.2707 9.80807 74.2204 9.96804 74.1716C10.128 74.1229 10.2884 74.0759 10.4493 74.0306C10.6101 73.9852 10.7714 73.9415 10.933 73.8995C11.0948 73.8574 11.2569 73.817 11.4193 73.7783C11.5819 73.7396 11.7447 73.7026 11.9079 73.6673C12.0711 73.632 12.2346 73.5984 12.3985 73.5664C12.5623 73.5345 12.7265 73.5043 12.8909 73.4757C13.0554 73.4471 13.2201 73.4203 13.3851 73.3952C13.55 73.37 13.7152 73.3466 13.8806 73.3249C14.046 73.3031 14.2116 73.2831 14.3775 73.2648C14.5433 73.2465 14.7093 73.2299 14.8754 73.215C15.0415 73.2002 15.2077 73.1871 15.3741 73.1756C15.5405 73.1642 15.707 73.1545 15.8736 73.1465C16.0402 73.1385 16.2067 73.1322 16.3734 73.1276C16.5401 73.1231 16.7068 73.1203 16.8736 73.1192C17.0403 73.1181 17.207 73.1187 17.3738 73.1211C17.5405 73.1234 17.7072 73.1275 17.8739 73.1333C18.0406 73.1391 18.2071 73.1466 18.3736 73.1559C18.5401 73.1651 18.7066 73.176 18.8728 73.1887C19.0391 73.2014 19.2053 73.2158 19.3713 73.232C19.5373 73.2481 19.7031 73.2659 19.8688 73.2855C20.0345 73.305 20.2 73.3262 20.3652 73.3492C19.0508 72.7482 17.761 72.4628 16.3303 72.361Z" fill="#F06D5D"/>
<path d="M109.518 35.996L109.104 35.9968C109.01 36.9184 109.051 37.8782 109.052 38.8055L109.056 43.2446L109.046 57.856C109.046 58.7074 109.162 62.2842 109.01 62.8808C110.024 62.8783 112.928 62.7424 113.733 62.9542C113.836 60.4661 113.746 57.9348 113.765 55.441C113.808 48.9617 113.814 42.4825 113.781 36.0036L109.518 35.996Z" fill="#F1A35A"/>
<path d="M59.062 0.94347C55.8887 0.562425 52.9647 1.13674 50.4003 3.15624C48.4798 4.66862 47.3622 6.72233 46.4977 8.97715L46.4517 9.03957C45.3767 8.73797 41.8776 7.96816 41.0189 8.46798C40.8674 8.5561 40.8059 8.65109 40.7334 8.80669C40.6936 9.20795 40.9223 9.59533 41.1775 9.89003C41.5822 10.3573 45.2434 10.4491 46.0635 10.5892C46.7009 10.6686 47.3378 10.752 47.9742 10.8394C50.5944 11.1168 53.2015 11.6342 55.7702 12.2158L66.6379 14.5965C66.9965 14.6638 67.3323 14.7806 67.6763 14.8983C68.0509 12.9076 68.548 10.8721 68.1095 8.85342C67.6339 6.58609 66.4119 4.48853 64.5492 3.10373C63.0309 1.87093 60.9663 1.2096 59.062 0.94347Z" fill="#D72726"/>
<path d="M59.2391 0.944906C56.0883 0.558905 53.1852 1.14069 50.639 3.18645C48.7321 4.7185 47.6225 6.79891 46.7641 9.08305L46.7185 9.14628C47.943 9.54426 49.1687 9.94155 50.4201 10.2423C52.2441 10.681 54.1032 10.9848 55.9371 11.382C56.8677 8.18811 58.7007 5.08 61.9258 3.94276C62.8039 3.63308 63.8109 3.67999 64.6155 3.17912C64.6396 3.16409 64.6633 3.14863 64.6873 3.13332C63.1797 1.88443 61.1298 1.21449 59.2391 0.944906Z" fill="#F06D5D"/>
<path d="M58.6978 0.949208C55.6722 0.548355 52.8845 1.15252 50.4394 3.277C48.6084 4.868 47.5429 7.02846 46.7186 9.4005C47.7805 9.62653 48.8336 9.93252 49.8859 10.2099C50.1679 9.38169 50.4595 8.57552 50.8397 7.79504C52.0197 5.37254 53.9187 2.85648 56.2473 1.75932C57.0415 1.38507 57.8768 1.22265 58.6978 0.949208Z" fill="#D72726"/>
<path d="M62.249 21.9309C62.052 22.0801 61.8575 22.2342 61.6497 22.368C60.8203 23.5183 58.8141 24.4303 57.5007 24.823C57.926 25.8322 58.5141 27.161 58.6108 28.2528L58.4717 28.3539C58.2255 28.459 57.76 28.59 57.6372 28.8464C57.6035 28.9168 57.5937 29.037 57.5826 29.1103C57.6508 29.9255 57.7338 30.6979 57.9359 31.4924C57.6092 32.4727 58.1688 35.9993 58.2688 37.1249C58.8056 36.4413 59.3375 35.7537 59.9042 35.0948C60.8202 35.9482 61.7504 36.7856 62.6947 37.607C63.2178 38.0673 63.8125 38.5258 64.2823 39.0408L63.6035 39.6996C63.0258 40.3288 61.0243 42.2772 60.7343 42.839C61.7066 45.6837 62.8392 48.5389 63.4778 51.4824C63.5504 51.7889 63.6324 52.096 63.6904 52.4054C64.6897 52.3795 65.6914 52.3085 66.6901 52.2599C66.6589 51.9396 66.6145 51.6278 66.5556 51.3114C67.847 51.314 69.1806 51.1545 70.4717 51.0647C72.2067 50.9533 73.9385 50.8037 75.667 50.6158C76.9314 50.4842 78.1914 50.41 79.4095 50.0183C79.277 49.7149 79.1853 49.385 79.0799 49.0706C79.0393 48.9741 78.981 48.8608 78.9611 48.7586C78.9349 48.6231 78.933 48.5788 79.0072 48.4685C79.6173 47.5609 80.3971 46.7691 81.0488 45.8896C81.6578 45.0678 82.1485 44.1346 82.657 43.2468C82.5858 42.0068 82.6293 40.754 82.5816 39.5111C82.5854 38.7111 82.6651 37.7999 82.5453 37.0138C80.414 34.861 78.1939 32.893 75.931 30.8873C74.7347 29.8268 73.5581 28.6231 72.1865 27.7973C71.4217 27.337 70.6118 27.0303 69.7152 27.0007C69.4939 26.9122 68.7268 26.0546 68.225 25.7854C66.7541 24.9961 65.2349 25.3137 63.7149 25.7672C63.1332 24.9478 62.4208 22.9322 62.249 21.9309Z" fill="#E94031"/>
<path d="M65.8857 26.6193C65.6458 26.6775 65.4473 26.7933 65.2427 26.9226C63.321 28.1365 61.5668 30.2824 61.0941 32.4797C62.0747 31.6338 63.0234 29.9726 63.8054 28.9204C64.4218 28.091 65.1502 27.3493 65.8857 26.6193Z" fill="#AC2F20"/>
<path d="M58.5737 28.9634C58.2765 29.0589 57.7142 29.1778 57.5659 29.4105C57.5253 29.4744 57.5134 29.5835 57.5 29.6501C57.5824 30.39 57.6826 31.0912 57.9267 31.8124C58.1831 32.3416 58.4786 32.8581 58.813 33.3616C59.1475 33.8652 59.5188 34.3526 59.9269 34.8239C60.2638 34.3426 60.6694 33.911 61.0938 33.4719C60.0814 32.0097 59.1573 30.561 58.5737 28.9634Z" fill="#0E374A"/>
<path d="M67.309 40.6844C68.2999 38.9788 69.1975 37.2192 70.0017 35.4056C70.6295 34.0009 70.9261 32.8191 70.4195 31.3076C69.9648 32.3441 69.6987 33.4118 69.1647 34.4295C68.207 36.2546 66.9137 37.841 65.8848 39.6122C66.3566 39.9585 66.8166 40.3778 67.309 40.6844Z" fill="#AC2F20"/>
<path d="M62.077 21.9309C61.8872 22.0969 61.6997 22.2683 61.4994 22.4172C60.7 23.6968 58.7664 24.7112 57.5004 25.1481C57.9103 26.2708 58.4771 27.7489 58.5704 28.9635C59.2744 28.7102 60.0087 28.1181 60.675 27.7211C61.6002 27.1807 62.5385 26.6731 63.49 26.1984C62.9293 25.287 62.2427 23.0448 62.077 21.9309Z" fill="#F1A35A"/>
<path d="M82.5897 37.1725C80.412 35.1556 78.1435 33.3118 75.8313 31.4327C74.6089 30.4391 73.4067 29.3113 72.0051 28.5376C71.2236 28.1064 70.3961 27.819 69.4799 27.7913C69.7157 28.1292 69.9432 28.4789 70.1974 28.8049C70.9833 29.1273 71.7205 29.5789 72.4007 30.0625C73.4212 30.7879 74.3536 31.6523 75.3165 32.4431C76.8818 33.7286 81.8944 37.5232 82.4337 39.0504C82.4654 39.14 82.47 39.2248 82.4794 39.3182C82.4825 39.3479 82.4865 39.3774 82.4895 39.4072C82.4913 39.4257 82.4924 39.4442 82.4938 39.4627L82.6268 39.5123C82.6307 38.7627 82.7122 37.909 82.5897 37.1725Z" fill="#13152A"/>
<path d="M65.2809 40.0758L64.5842 39.5123L63.9165 40.1479C63.3483 40.7549 61.3797 42.6345 61.0945 43.1765C62.0508 45.9208 63.1648 48.6753 63.793 51.515C63.8643 51.8106 63.945 52.1069 64.002 52.4054C64.9849 52.3804 65.9702 52.3119 66.9524 52.265C66.9217 51.956 66.8781 51.6552 66.8202 51.3499C68.0904 51.3524 69.402 51.1986 70.6719 51.1119C72.3784 51.0045 74.0817 50.8602 75.7819 50.6789C77.0255 50.552 78.2648 50.4803 79.4629 50.1025C79.3325 49.8098 79.2423 49.4916 79.1386 49.1882C79.0988 49.0951 79.0414 48.9858 79.0218 48.8872C78.9961 48.7565 78.9942 48.7138 79.0671 48.6074C79.6672 47.7318 80.4342 46.9679 81.0752 46.1195C81.6742 45.3267 82.1568 44.4264 82.657 43.5699C82.587 42.3737 82.6297 41.165 82.5828 39.966L82.4547 39.915C82.0542 42.247 81.2313 44.0986 79.7192 45.9531C79.3474 46.4089 78.9086 46.9554 78.4397 47.3115L78.3178 47.3097C74.4293 45.6988 70.8897 43.118 67.4524 40.7354L67.2452 40.5746C66.7303 40.2766 66.2493 39.8692 65.7561 39.5327L65.2809 40.0758Z" fill="#E94031"/>
<path d="M82.58 39.5639L82.4471 39.5123C82.0314 41.8704 81.1774 43.7426 79.6081 45.6179C79.2223 46.0788 78.7669 46.6314 78.2803 46.9914L78.1538 46.9896C74.1182 45.3607 70.4448 42.7511 66.8776 40.3419C66.4532 40.7596 66.2956 41.3506 65.8861 41.7554L66.1817 41.9846C68.9066 43.8032 71.6369 45.5047 74.5809 46.9808C75.5726 47.478 78.4215 48.4459 79.0056 48.8891C78.9643 48.7949 78.9047 48.6844 78.8844 48.5847C78.8577 48.4525 78.8557 48.4093 78.9314 48.3017C79.5542 47.4164 80.3502 46.644 81.0154 45.7861C81.6371 44.9844 82.1379 44.0741 82.657 43.208C82.5843 41.9984 82.6287 40.7763 82.58 39.5639Z" fill="url(#paint0_linear_25_5120)"/>
<path d="M65.0374 40.0758L64.381 39.5123L63.752 40.1479C63.2167 40.7549 61.3622 42.6345 61.0934 43.1765C61.9944 45.9208 63.0439 48.6753 63.6356 51.515C63.7028 51.8106 63.7788 52.1069 63.8325 52.4054C64.7585 52.3804 65.6867 52.3119 66.612 52.265C66.5831 51.956 66.542 51.6552 66.4874 51.3499C66.3629 50.7775 66.3318 50.1415 66.268 49.5565C66.0039 47.1337 65.8931 44.7471 66.4512 42.36L66.183 42.1333C66.5546 41.733 66.6977 41.1485 67.083 40.7354L66.8879 40.5746C66.4028 40.2766 65.9496 39.8692 65.485 39.5327L65.0374 40.0758Z" fill="#D72726"/>
<path d="M66.9326 51.2333C66.0351 51.3073 64.234 51.1496 63.4893 51.4166C63.5704 51.7449 63.6622 52.0739 63.727 52.4054C64.845 52.3776 65.9657 52.3015 67.083 52.2495C67.0481 51.9064 66.9985 51.5722 66.9326 51.2333Z" fill="#A52019"/>
<path d="M64.876 40.0163L64.1679 39.5123L63.4893 40.0807C64.2909 40.7327 65.2297 41.2901 66.112 41.8565C66.513 41.4985 66.6673 40.9757 67.083 40.6063L66.8725 40.4624C66.3491 40.1959 65.8602 39.8315 65.3589 39.5305L64.876 40.0163Z" fill="#13152A"/>
<path d="M69.2386 81.7078C68.6743 84.1404 67.7608 86.2015 66.3544 88.2467C65.8307 89.0083 65.2961 89.7563 64.4966 90.2408C63.3902 90.9114 60.9771 90.7238 59.6599 90.6805C59.6377 90.034 59.5808 89.3819 59.3924 88.7604C59.2743 88.3705 59.1395 87.9899 58.7726 87.7975C58.6515 87.4704 58.5153 84.5065 58.5075 83.9369C56.9948 83.928 55.4869 83.928 53.9755 84.0069C54.0524 84.5639 54.3194 86.1332 54.0764 86.6396L54.0446 86.6653C53.0949 86.4919 51.6515 86.6343 50.6573 86.6585C49.9612 86.8435 46.9963 88.1926 46.4017 88.5926C45.9176 88.9182 45.4893 89.3667 45.1987 89.8797C45.0933 90.0657 45.003 90.2654 44.9218 90.4635C44.162 89.7245 43.1471 87.6686 42.5696 86.6852C41.7191 86.9091 38.1197 86.819 37.1358 86.7579C38.8134 89.9938 40.2829 93.4084 43.4668 95.412C43.7314 95.513 44.0168 95.6342 44.2952 95.6856C45.2164 95.8554 46.3636 95.7259 47.3079 95.7226L54.125 95.6912L65.5803 95.6751C67.0432 95.6763 69.9456 95.8363 71.2564 95.5723C72.3754 95.347 72.8768 94.4606 73.7631 93.8918C73.7867 93.8765 73.812 93.8639 73.8366 93.85C74.2371 93.3706 74.1057 89.8491 74.1579 89.0071C74.2208 88.6351 74.2163 88.2478 74.2305 87.8709L74.2712 86.9393C73.3972 86.9433 72.5506 86.9329 71.8767 86.2737C71.2823 85.6922 71.2395 84.8728 71.2361 84.0865C70.5537 83.3527 69.7211 82.5977 69.2386 81.7078Z" fill="#E94031"/>
<path d="M58.7718 84.0554C57.2963 84.0477 55.8257 84.0477 54.3514 84.1161C54.4265 84.599 54.6869 85.9596 54.4498 86.3986L54.4189 86.4209C53.4925 86.2706 52.0847 86.394 51.115 86.415C50.436 86.5754 47.5441 87.7451 46.9642 88.0918C46.492 88.3741 46.0743 88.763 45.7909 89.2077C45.6881 89.369 45.6 89.5421 45.5207 89.7139C45.702 89.8367 45.8725 89.8423 46.0969 89.8565C47.7722 89.9632 49.5072 89.8845 51.1876 89.8854L59.8958 89.902C59.8742 89.3415 59.8187 88.7761 59.6349 88.2373C59.5197 87.8992 59.3882 87.5693 59.0303 87.4025C58.9122 87.1189 58.7794 84.5493 58.7718 84.0554Z" fill="#13152A"/>
<path d="M58.4574 84.0552C57.0857 84.048 55.7184 84.048 54.3479 84.1119C54.4176 84.5634 54.6597 85.8353 54.4394 86.2456L54.4106 86.2664C53.882 86.7234 53.3823 87.1811 52.763 87.5356C52.7445 87.5462 52.7264 87.5574 52.7082 87.5683C54.1973 87.16 55.6638 87.2065 57.2024 87.2107C57.6866 87.2121 58.2236 87.2572 58.6978 87.1841C58.5879 86.9189 58.4644 84.5169 58.4574 84.0552Z" fill="#F7B622"/>
<path d="M29.3079 72.331C28.9777 72.8476 28.7703 73.4224 28.4413 73.9386C28.0718 74.0922 27.7061 74.2374 27.3242 74.3609L27.0675 74.3481C26.5753 74.0978 26.0435 73.8917 25.5344 73.6732C24.7771 73.3195 23.9491 72.8599 23.1426 72.6388C23.0094 72.6897 22.9207 72.7219 22.7764 72.7362C21.5902 74.4049 20.799 76.3115 19.6663 78.004C16.8137 77.6418 14.0738 77.7953 11.2205 78.0461C10.3053 78.1265 9.31649 78.1643 8.42279 78.3734C7.57579 78.839 6.72652 79.3101 5.95356 79.8848C3.44019 81.7537 1.45085 84.4937 0.606312 87.4397C-0.52211 91.3757 -0.0920944 95.3644 2.04636 98.9182C3.08229 100.64 4.44115 102.019 6.02501 103.284C6.50111 103.581 6.94883 103.906 7.43967 104.184C7.69648 104.329 7.95723 104.467 8.22197 104.598C8.48677 104.73 8.75513 104.854 9.02707 104.971C9.299 105.088 9.57405 105.198 9.85229 105.3C10.1306 105.403 10.4117 105.498 10.6954 105.585C10.9791 105.673 11.2651 105.753 11.5534 105.825C11.8418 105.898 12.1321 105.963 12.4242 106.02C12.7162 106.076 13.0097 106.126 13.3047 106.167C13.5995 106.209 13.8954 106.242 14.1923 106.268C18.752 106.634 22.8741 105.115 26.3231 102.318C28.9323 99.8952 30.5786 97.2322 31.3304 93.8042C31.3367 93.8112 31.3445 93.8173 31.3495 93.8254C31.3674 93.854 31.3821 93.8843 31.3984 93.9138C33.2547 94.2303 35.2331 94.2702 37.1143 94.4114C38.8916 94.5448 41.3983 94.9031 43.1255 94.7117C39.98 92.8434 38.5282 89.6592 36.8709 86.6416C36.4889 86.0704 36.189 85.4115 35.8602 84.8086L33.3663 80.1246C32.0051 77.5878 30.2721 75.026 29.3079 72.331Z" fill="#302740"/>
<path d="M17.3654 80.6043C14.1725 80.2741 11.2333 81.1326 8.73022 83.2411C8.66136 83.2988 8.59322 83.3573 8.52579 83.4168C8.45828 83.4763 8.39152 83.5367 8.32553 83.5979C8.25953 83.6591 8.19431 83.7211 8.12986 83.7839C8.06538 83.8469 8.0017 83.9106 7.93876 83.9752C7.87582 84.0397 7.81368 84.1051 7.75234 84.1712C7.69095 84.2375 7.63036 84.3044 7.57065 84.3722C7.51093 84.4399 7.45202 84.5084 7.39393 84.5777C7.33584 84.647 7.27857 84.7171 7.22219 84.7879C7.1658 84.8586 7.11028 84.9301 7.05571 85.0024C7.00101 85.0745 6.94722 85.1474 6.89431 85.2211C6.84143 85.2947 6.78945 85.369 6.73844 85.4439C6.68735 85.519 6.63714 85.5946 6.58784 85.6709C6.53859 85.7472 6.49027 85.8241 6.44284 85.9015C6.39552 85.9791 6.34906 86.0572 6.3035 86.136C6.25805 86.2147 6.21353 86.2941 6.16998 86.3741C6.12638 86.4539 6.08377 86.5344 6.04207 86.6154C6.00045 86.6964 5.95984 86.778 5.9202 86.8601C5.88049 86.9422 5.84182 87.0247 5.80414 87.1079C5.76649 87.1909 5.72986 87.2744 5.69427 87.3585C5.65861 87.4425 5.62395 87.5271 5.59031 87.612C5.55677 87.6969 5.52424 87.7823 5.49268 87.8681C5.46119 87.9538 5.43071 88.04 5.40124 88.1267C5.37182 88.2133 5.34345 88.3002 5.3161 88.3875C5.28873 88.4749 5.26247 88.5625 5.23729 88.6504C5.21209 88.7385 5.18794 88.8268 5.1648 88.9155C5.14175 89.0041 5.11979 89.093 5.09889 89.1823C5.0779 89.2714 5.05807 89.3609 5.03931 89.4506C5.02058 89.5404 5.0029 89.6303 4.98632 89.7205C4.96974 89.8107 4.95426 89.9011 4.93991 89.9916C4.92548 90.0823 4.91217 90.173 4.89997 90.2639C4.88779 90.3548 4.87669 90.4459 4.86675 90.5371C4.8568 90.6283 4.84791 90.7197 4.84012 90.8112C4.83169 90.9028 4.82437 90.9944 4.8182 91.0862C4.81192 91.178 4.80679 91.2698 4.80285 91.3617C4.79883 91.4535 4.79591 91.5455 4.79412 91.6375C4.79233 91.7295 4.79167 91.8215 4.79211 91.9134C4.79246 92.0054 4.79398 92.0973 4.79671 92.1893C4.7993 92.2812 4.80302 92.3732 4.80787 92.465C4.81272 92.5569 4.81869 92.6487 4.82574 92.7404C4.83282 92.832 4.84101 92.9236 4.85023 93.0151C4.85954 93.1066 4.86992 93.198 4.8813 93.2892C4.89278 93.3804 4.90537 93.4715 4.91909 93.5624C4.93273 93.6534 4.94746 93.7441 4.96333 93.8345C4.97922 93.925 4.99612 94.0153 5.01416 94.1054C5.03218 94.1955 5.05129 94.2853 5.07146 94.3748C5.09162 94.4645 5.11288 94.5538 5.13519 94.6428C5.15753 94.7318 5.18095 94.8206 5.20541 94.909C5.22986 94.9974 5.25542 95.0855 5.28205 95.1732C5.30858 95.2609 5.33626 95.3484 5.36505 95.4354C5.39375 95.5224 5.42346 95.6091 5.4542 95.6954C5.48505 95.7816 5.51687 95.8675 5.5497 95.953C5.58259 96.0384 5.61646 96.1235 5.65136 96.2081C5.68626 96.2926 5.72215 96.3767 5.75909 96.4604C5.79602 96.544 5.83395 96.6271 5.87286 96.7097C5.91178 96.7924 5.95172 96.8746 5.99271 96.9562C6.03361 97.0378 6.07548 97.1189 6.11834 97.1994C6.16119 97.2799 6.20504 97.3599 6.24988 97.4393C6.29469 97.5187 6.34044 97.5975 6.38704 97.6757C6.43376 97.7539 6.48141 97.8315 6.53002 97.9085C6.57853 97.9855 6.628 98.0618 6.67848 98.1375C6.72886 98.2133 6.78015 98.2883 6.83234 98.3626C6.88453 98.437 6.93758 98.5107 6.99156 98.5837C7.04555 98.6567 7.10042 98.729 7.15619 98.8006C7.21188 98.8722 7.26846 98.943 7.32592 99.0131C9.13426 101.252 11.8433 102.541 14.6318 102.773C17.4153 103.005 20.2111 101.978 22.3203 100.104C22.392 100.041 22.463 99.9779 22.5332 99.9134C22.6034 99.849 22.6728 99.7836 22.7414 99.7173C22.8101 99.6511 22.8779 99.584 22.9449 99.5159C23.012 99.448 23.0782 99.3791 23.1435 99.3094C23.2089 99.2397 23.2735 99.1692 23.3372 99.0978C23.4008 99.0265 23.4637 98.9543 23.5256 98.8814C23.5876 98.8084 23.6486 98.7346 23.7088 98.66C23.769 98.5854 23.8283 98.5101 23.8867 98.4341C23.9451 98.3579 24.0026 98.2811 24.0591 98.2035C24.1157 98.126 24.1713 98.0477 24.2259 97.9686C24.2806 97.8897 24.3344 97.81 24.3871 97.7296C24.4399 97.6492 24.4916 97.5682 24.5425 97.4865C24.5933 97.4047 24.6432 97.3224 24.692 97.2393C24.7409 97.1564 24.7888 97.0728 24.8356 96.9886C24.8825 96.9044 24.9283 96.8195 24.973 96.7341C25.0178 96.6486 25.0616 96.5626 25.1044 96.4762C25.1471 96.3896 25.1889 96.3025 25.2296 96.2149C25.2702 96.1272 25.3098 96.0391 25.3484 95.9505C25.387 95.8619 25.4245 95.7728 25.461 95.6831C25.4974 95.5936 25.5327 95.5035 25.5669 95.413C25.6013 95.3225 25.6345 95.2316 25.6666 95.1402C25.6986 95.0487 25.7296 94.957 25.7595 94.8649C25.7894 94.7727 25.8181 94.6802 25.8458 94.5873C25.8736 94.4944 25.9001 94.4011 25.9256 94.3075C25.951 94.2139 25.9753 94.12 25.9985 94.0258C26.0217 93.9316 26.0438 93.8371 26.0647 93.7422C26.0857 93.6475 26.1055 93.5525 26.1241 93.4572C26.1428 93.3618 26.1603 93.2663 26.1767 93.1706C26.193 93.0749 26.2082 92.979 26.2223 92.8828C26.2364 92.7867 26.2493 92.6904 26.261 92.5938C26.2729 92.4974 26.2835 92.4008 26.2929 92.304C26.3023 92.2073 26.3106 92.1105 26.3178 92.0135C26.3251 91.9228 26.3314 91.8319 26.3365 91.741C26.3416 91.65 26.3456 91.559 26.3486 91.4679C26.3515 91.3768 26.3534 91.2858 26.3541 91.1948C26.3549 91.1037 26.3545 91.0125 26.353 90.9214C26.3516 90.8304 26.3491 90.7393 26.3455 90.6483C26.3418 90.5573 26.3371 90.4663 26.3312 90.3754C26.3253 90.2845 26.3184 90.1937 26.3104 90.103C26.3023 90.0123 26.2932 89.9216 26.283 89.8312C26.2727 89.7407 26.2615 89.6504 26.2491 89.5602C26.2366 89.47 26.2231 89.38 26.2086 89.2902C26.194 89.2003 26.1783 89.1107 26.1617 89.0213C26.1449 88.9319 26.127 88.8428 26.1081 88.7538C26.0892 88.6648 26.0693 88.5761 26.0483 88.4877C26.0272 88.3992 26.0051 88.3109 25.982 88.2231C25.9589 88.1352 25.9346 88.0477 25.9094 87.9605C25.8841 87.8733 25.8578 87.7864 25.8304 87.6998C25.803 87.6132 25.7746 87.527 25.7451 87.4412C25.7156 87.3554 25.6852 87.2699 25.6537 87.1849C25.6221 87.0999 25.5896 87.0153 25.5561 86.931C25.5225 86.8469 25.488 86.7631 25.4524 86.6798C25.4168 86.5965 25.3802 86.5137 25.3426 86.4314C25.3051 86.3491 25.2665 86.2672 25.227 86.1858C25.1874 86.1045 25.1469 86.0237 25.1054 85.9434C25.0639 85.8631 25.0214 85.7834 24.978 85.7042C24.9345 85.625 24.8902 85.5464 24.8449 85.4684C24.7995 85.3903 24.7533 85.3128 24.7061 85.236C24.6589 85.1592 24.6109 85.083 24.5618 85.0074C24.5127 84.9318 24.4628 84.8569 24.412 84.7826C24.3611 84.7083 24.3094 84.6347 24.2568 84.5617C24.2041 84.4888 24.1507 84.4165 24.0963 84.3449C24.042 84.2734 23.9868 84.2026 23.9306 84.1325C23.8746 84.0623 23.8177 83.9929 23.76 83.9243C23.4767 83.5883 23.1747 83.2714 22.8542 82.9736C22.5338 82.6758 22.1971 82.3992 21.8441 82.1439C21.5988 82.6798 21.3399 83.2085 21.0672 83.73C21.351 83.8888 21.6255 84.0707 21.8699 84.2901C23.4949 85.7498 24.3974 88.1122 24.5372 90.2994C24.7011 92.8622 23.9869 95.4733 22.3206 97.4047C20.6134 99.3837 18.4776 100.722 15.8847 100.867C13.6431 100.993 11.2883 100.183 9.6202 98.6068C7.91245 96.9926 6.80507 94.4575 6.72343 92.0704C6.6403 89.6395 7.51032 87.0596 9.12043 85.276C11.2756 82.8888 13.7356 82.2972 16.7682 82.1977C17.012 81.8802 17.4958 81.0956 17.5093 80.6867L17.3654 80.6043Z" fill="#FAF0DC"/>
<path d="M26.3111 74.6752C25.5088 75.969 24.773 77.2966 23.9581 78.5839C25.0214 79.2221 26.1152 79.8449 27.0861 80.6065C29.4337 82.4484 31.1007 85.2124 31.7646 88.0152C31.91 88.629 31.9976 89.2563 32.0859 89.8796C32.9111 89.8602 33.892 90.0047 34.688 89.8069C35.3202 89.6495 35.6152 89.3044 35.9277 88.7838C35.9572 88.3187 35.9161 87.8772 35.8365 87.4185C35.1926 83.7081 32.9102 80.0779 30.054 77.4993C28.8896 76.448 27.6187 75.5586 26.3111 74.6752Z" fill="#AC2F20"/>
<path d="M26.0027 73.3936C25.2374 73.0302 24.4009 72.5581 23.5859 72.331C23.4513 72.3833 23.3617 72.4164 23.2159 72.4311C22.0173 74.1453 21.2178 76.1038 20.0733 77.8424C19.8625 78.2165 18.2341 81.0672 18.0808 81.1103C18.0522 81.1185 18.0215 81.1154 17.9917 81.1179L18.1376 81.1964C18.1239 81.5866 17.633 82.335 17.3855 82.638C14.3082 82.7328 11.812 83.2973 9.62503 85.5748C7.99118 87.2763 7.10835 89.7377 7.1927 92.0568C7.27554 94.3341 8.39925 96.7526 10.1322 98.2927C11.8249 99.7968 14.2144 100.569 16.4891 100.449C19.1201 100.311 21.2874 99.0338 23.0198 97.1458C24.7107 95.3032 25.4354 92.8122 25.2691 90.3672C25.1272 88.2805 24.2115 86.0268 22.5625 84.6341C22.3145 84.4248 22.036 84.2513 21.748 84.0998C22.0247 83.6023 22.2874 83.0979 22.5363 82.5866C23.121 81.4046 23.8937 80.2659 24.6007 79.1486C25.3526 77.9247 26.0316 76.6625 26.7718 75.4325C26.8219 75.0481 27.3273 74.4309 27.5518 74.0868C27.0545 73.8298 26.517 73.6181 26.0027 73.3936Z" fill="#E9D7C5"/>
<path d="M14.3547 87.5683C13.3006 88.2765 12.3935 89.2307 12.0927 90.5722C11.8513 91.6485 11.9934 92.8369 12.5546 93.7738C13.1257 94.7272 14.0024 95.4651 15.0519 95.692C16.1785 95.9356 17.3055 95.614 18.2463 94.9336C19.3021 94.1697 20.0717 92.9783 20.3 91.628C20.5446 90.1827 20.0738 88.9691 19.3488 87.779C19.3349 87.7968 19.3206 87.8143 19.307 87.8325C18.6421 88.7141 17.5382 92.0653 16.5198 92.1436C16.2668 92.1631 16.0604 91.9796 15.897 91.7956C15.7852 91.6698 15.7316 91.5606 15.6731 91.4006C15.3693 91.981 14.9859 92.9381 14.4171 93.2604C14.108 93.4355 13.6503 93.4096 13.3261 93.2967C13.0833 93.2121 12.8919 93.0468 12.7826 92.7971C12.1421 91.3324 13.9521 88.9529 14.3177 87.702C14.3307 87.6576 14.3424 87.6128 14.3547 87.5683Z" fill="#6A7EA6"/>
<path d="M25.9397 73.3987C25.1435 73.0335 24.2729 72.5592 23.4248 72.331C23.2848 72.3835 23.1915 72.4168 23.0399 72.4315C21.7925 74.1539 20.9606 76.1217 19.7697 77.8685C19.5503 78.2444 17.8558 81.1086 17.6963 81.1519C17.6664 81.1601 17.6345 81.157 17.6036 81.1596L17.7554 81.2384C17.741 81.6304 17.2302 82.3824 16.9727 82.6868C15.9537 84.4743 14.9417 86.297 13.7891 88.0128C13.776 88.0543 13.7637 88.096 13.7499 88.1373C13.3625 89.3016 11.4441 91.5166 12.1229 92.88C12.2387 93.1125 12.4416 93.2664 12.699 93.3451C13.0425 93.4502 13.5276 93.4742 13.8552 93.3113C14.4581 93.0113 14.8644 92.1204 15.1863 91.5801C15.2484 91.7291 15.3052 91.8307 15.4236 91.9478C15.5969 92.119 15.8156 92.2899 16.0837 92.2717C17.1632 92.1988 18.3331 89.0794 19.0377 88.2587C19.0522 88.2419 19.0673 88.2255 19.0821 88.2089C19.9812 86.9247 20.734 85.5083 21.5123 84.1556C21.8002 83.6557 22.0737 83.149 22.3326 82.6352C22.9411 81.4476 23.7452 80.3035 24.4808 79.1809C25.2633 77.9512 25.9699 76.683 26.7402 75.4472C26.7923 75.0609 27.3182 74.4409 27.5518 74.0952C27.0343 73.8369 26.475 73.6242 25.9397 73.3987Z" fill="#93A7BB"/>
<path d="M27.5518 74.1952C27.0504 73.9385 26.5087 73.7272 25.9901 73.5031C24.4179 75.7927 23.0776 78.2479 21.7193 80.6599C19.6707 84.2972 17.6716 87.9567 15.5726 91.5682C15.6327 91.7162 15.6877 91.8171 15.8025 91.9335C15.9703 92.1036 16.1822 92.2734 16.4419 92.2553C17.4876 92.1829 18.621 89.0835 19.3037 88.268C19.3177 88.2513 19.3323 88.2351 19.3466 88.2186C20.2176 86.9426 20.9469 85.5352 21.701 84.1912C21.9799 83.6945 22.2448 83.191 22.4956 82.6806C23.0851 81.5006 23.8641 80.3638 24.5767 79.2484C25.3348 78.0265 26.0192 76.7665 26.7655 75.5385C26.816 75.1548 27.3254 74.5387 27.5518 74.1952Z" fill="#6C7391"/>
<path d="M93.8586 26.7206C91.4701 26.7021 89.0817 26.6683 86.6935 26.6193C86.0777 27.7868 85.5184 28.9822 84.8849 30.1404C85.3721 30.1243 85.8595 30.1147 86.347 30.1117L86.3488 31.4655C86.386 33.0805 86.3939 34.6957 86.3724 36.311L82.6785 36.3134C82.6766 36.7304 82.7016 37.1677 82.6609 37.582C82.7807 38.3422 82.701 39.2234 82.6972 39.997C82.7449 41.1989 82.7014 42.4104 82.7726 43.6095C82.2644 44.468 81.774 45.3704 81.1654 46.1652C80.5141 47.0156 79.7348 47.7814 79.1251 48.659C79.051 48.7656 79.0529 48.8085 79.0791 48.9395C79.0989 49.0384 79.1572 49.1479 79.1977 49.2412C79.3031 49.5454 79.3947 49.8643 79.5272 50.1578L79.6892 50.6096C80.0806 51.8756 80.4675 53.1261 80.6985 54.4313C80.852 55.9745 80.7485 57.3768 80.255 58.8592C80.0983 59.3303 79.8447 59.804 79.7298 60.2805C80.6405 60.3396 81.5818 60.2981 82.4939 60.2658L82.697 60.3072C82.9442 60.8248 82.7561 62.3365 82.7521 62.9514L87.9943 62.9543L108.431 62.9345C108.601 62.3436 108.47 58.8004 108.47 57.957L108.482 43.483L108.478 39.0856C108.477 38.1671 108.43 37.2163 108.536 36.3033L109 36.3025L109.01 31.9601L109.009 30.1263L107.267 30.122C106.903 28.9887 106.433 27.8013 105.879 26.7439L98.8299 26.7116C97.1747 26.7114 95.5128 26.7668 93.8586 26.7206Z" fill="#FBAB44"/>
<path d="M87.8051 54.758C86.09 54.7543 84.3716 54.7331 82.6568 54.7765L82.6562 54.8596C84.3718 54.8642 86.0872 54.8462 87.8026 54.8054C87.8018 55.5468 87.8392 56.3278 87.7895 57.0636L87.8355 57.0798C89.3021 57.0681 90.7686 57.0727 92.2351 57.0938L92.2395 54.7571L87.8051 54.758Z" fill="#AE542B"/>
<path d="M88.6314 54.7496C86.6399 54.7915 84.6484 54.81 82.6567 54.8052L82.668 57.0549C84.6465 57.0609 86.6394 57.1306 88.6162 57.0676C88.6739 56.3123 88.6305 55.5105 88.6314 54.7496Z" fill="#AC2F20"/>
<path d="M103.02 44.2093L94.6358 44.2007L94.6419 46.5449C97.4313 46.4621 100.231 46.5179 103.021 46.5149L103.02 44.2093Z" fill="#AE542B"/>
<path d="M82.985 55.9217C82.9203 57.0648 83.1419 59.3558 82.9232 60.2999C82.7894 60.4031 82.816 60.383 82.6567 60.3965L82.8763 60.4359C83.1438 60.9284 82.9403 62.3665 82.9359 62.9515L88.6074 62.9542L88.5866 59.6718C88.5839 58.9351 88.5396 58.1679 88.6462 57.4366L88.596 57.4256C86.7348 57.4675 84.8585 57.4212 82.9957 57.4172L82.985 55.9217Z" fill="#D47B2A"/>
<path d="M88.6462 35.996L86.8867 36.0038L82.9331 36.0063C82.9311 36.4339 82.9578 36.8822 82.9143 37.3069C83.0425 38.0863 82.9572 38.9898 82.9531 39.783C83.0042 41.0153 82.9576 42.2574 83.0338 43.4869C82.4899 44.3671 81.965 45.2923 81.3136 46.1072C80.6165 46.9792 79.7824 47.7642 79.1298 48.6641C79.0505 48.7734 79.0525 48.8173 79.0806 48.9517C79.1018 49.053 79.1642 49.1653 79.2076 49.261C79.3203 49.5728 79.4184 49.8999 79.5602 50.2007L79.7336 50.664C80.1525 51.962 80.5667 53.2441 80.8139 54.5824C80.9782 56.1646 80.8674 57.6023 80.3392 59.1222C80.1714 59.6052 79.9 60.0909 79.7771 60.5795C80.7518 60.64 81.7593 60.5974 82.7355 60.5643C82.8932 60.5497 82.8669 60.5714 82.9992 60.4601C83.2156 59.4427 82.9963 56.9737 83.0604 55.7417L83.0611 55.6806C84.9154 55.6487 86.7735 55.6642 88.6283 55.667L88.6462 35.996Z" fill="#D47B2A"/>
<path d="M93.9637 26.7193C91.5917 26.701 89.2199 26.6676 86.8482 26.6193C86.2367 27.7709 85.6812 28.9501 85.0521 30.0926C85.536 30.0767 86.02 30.0672 86.5041 30.0643L86.5059 31.3996C86.5428 32.9927 86.5507 34.586 86.5294 36.1794L88.1619 36.1718C90.355 36.0374 92.6013 36.1047 94.8001 36.1283C94.7989 36.6282 94.7661 37.1517 94.8532 37.6449C94.8669 39.4338 94.8496 41.2226 94.8012 43.011L97.8127 43.0019L99.9444 43.001C100.391 43.0009 102.258 43.1118 102.499 42.8901C102.623 40.6657 102.525 38.3936 102.524 36.1637L106.071 36.1691L108.539 36.1718L109 36.171L109.01 31.8876L109.009 30.0787L107.279 30.0744C106.917 28.9565 106.451 27.7853 105.901 26.7422L98.9005 26.7104C97.2567 26.7102 95.6064 26.7648 93.9637 26.7193Z" fill="#F1A35A"/>
<path d="M102.996 35.996L100.635 36.002C100.645 38.3338 100.605 40.6694 100.641 43.0002C101.057 43.0001 102.796 43.114 103.021 42.8863C102.926 42.0919 102.982 41.2234 102.983 40.42L102.996 35.996Z" fill="#E94031"/>
<path d="M100.618 36.0532C98.9904 36.0425 97.25 35.9268 95.6358 36.0585L94.7025 36.0509C94.7011 36.5478 94.7137 37.0478 94.6963 37.5443C94.7122 39.3727 94.692 41.2008 94.6357 43.0286L98.1427 43.0193L100.625 43.0184C100.58 40.6985 100.631 38.3739 100.618 36.0532Z" fill="#E94031"/>
<path d="M100.618 36.0532C99.0552 36.0426 97.3838 35.9267 95.8336 36.0586C96.613 36.106 97.3934 36.0991 98.1741 36.099C98.18 38.4085 98.2601 40.7199 98.2412 43.0286L100.625 43.0277C100.582 40.7048 100.631 38.3771 100.618 36.0532Z" fill="#D97F4E"/>
<path d="M107.259 30.1676L106.035 30.1654L92.778 30.1615C90.6071 30.1608 88.4194 30.1059 86.2501 30.1579L86.252 31.4344C86.2699 31.5474 86.2643 31.76 86.3604 31.8339C86.4646 31.9141 86.5845 31.9446 86.7185 31.9453L106.013 31.898C106.081 33.2609 105.997 34.6295 106.038 35.9934L108.534 35.996L109 35.9953L109.01 31.9008L109.009 30.1717L107.259 30.1676Z" fill="#D47B2A"/>
<path d="M107.604 30.137L106.62 30.1356L106.615 31.2662C107.379 31.3447 108.235 31.2871 109.01 31.2896L109.009 30.1398L107.604 30.137Z" fill="#AE542B"/>
<path d="M94.1775 26.7205C91.7486 26.702 89.3199 26.6682 86.8913 26.6193C86.2651 27.7851 85.6963 28.9789 85.0521 30.1356C85.5475 30.1194 86.0431 30.1098 86.5388 30.1069C88.7354 30.0518 90.9507 30.1099 93.1489 30.1107L106.573 30.1148L107.812 30.1171C107.442 28.9855 106.965 27.7997 106.401 26.7438L99.2329 26.7115C97.5496 26.7113 95.8597 26.7666 94.1775 26.7205Z" fill="#FBAB44"/>
<path d="M90.6552 27.7923C90.5688 27.7906 90.4773 27.7902 90.3914 27.7993C90.2224 27.8173 90.0705 27.8882 89.9674 28.0211C89.8567 28.1636 89.828 28.2663 89.8509 28.4428C89.8833 28.6906 90.0656 28.8247 90.2622 28.9579C90.5186 28.969 90.7223 28.9831 90.9116 28.7823C91.0263 28.6606 91.05 28.5255 91.0391 28.3671C91.0209 28.104 90.8476 27.9541 90.6552 27.7923Z" fill="#FAF0DC"/>
<path d="M79.4072 50.0612C78.1793 50.4385 76.909 50.51 75.6344 50.6368C73.8918 50.8178 72.146 50.962 70.3969 51.0692C69.0953 51.1558 67.751 51.3094 66.4491 51.3069C66.5085 51.6117 66.5531 51.9122 66.5846 52.2208C65.5779 52.2675 64.568 52.3359 63.5606 52.3609C63.6922 53.0378 63.8395 53.7116 64.0024 54.3822C63.7634 54.3864 63.43 54.3516 63.2114 54.4477C63.1833 54.4664 63.1561 54.4862 63.1272 54.5035C62.6738 54.7763 60.8095 54.8959 60.1468 54.9906C58.6241 55.2081 57.1088 55.5412 55.596 55.8171C53.5696 56.1867 49.0454 56.8156 47.4065 57.6904C46.5568 58.1442 45.9346 58.8247 45.6626 59.7349C45.4014 60.6092 45.5443 61.5 45.7443 62.371C46.4393 65.3971 47.7657 68.3302 48.8617 71.2367C49.8583 73.8653 50.8883 76.4816 51.9516 79.0858C52.422 80.2339 52.8485 81.4587 53.4055 82.5665C53.6108 82.8833 53.76 83.2067 53.9116 83.5493C55.4173 83.4747 56.9194 83.4747 58.4264 83.4831C58.4341 84.0216 58.5698 86.8237 58.6905 87.1329C59.056 87.3148 59.1903 87.6746 59.308 88.0433C59.4957 88.6308 59.5523 89.2474 59.5744 89.8585C60.8866 89.8995 63.2905 90.0768 64.3928 89.4429C65.1892 88.9848 65.7217 88.2777 66.2435 87.5576C67.6445 85.624 68.5546 83.6755 69.1168 81.3757C69.5974 82.217 70.4268 82.9308 71.1067 83.6245C71.0791 80.8967 71.7906 78.3261 73.3668 76.0431C73.6865 75.5801 74.3224 74.5461 74.8972 74.4361C75.3208 74.1422 75.7076 73.681 76.111 73.3472C76.9898 72.62 77.9285 72.0444 78.9381 71.5052C83.807 68.9047 89.8732 68.3595 95.2886 69.3785C96.3088 69.5705 97.2871 69.8737 98.2837 70.1504C98.7041 69.7551 99.1143 69.3503 99.5143 68.9359C100.143 68.2014 100.781 67.4856 101.381 66.7277C104.03 66.6355 106.718 66.7132 109.371 66.7327C110.471 66.7409 112.778 66.9239 113.735 66.6443C114.183 66.5134 114.532 66.1796 114.74 65.7831C115.048 65.1967 115.083 64.409 114.841 63.7956C114.656 63.326 114.369 63.0744 113.908 62.8627C112.997 62.6536 109.711 62.7877 108.564 62.7902L87.9485 62.8099L82.6603 62.807C82.6644 62.1944 82.8541 60.6884 82.6048 60.1727L82.3999 60.1314C81.4798 60.1636 80.5303 60.205 79.6116 60.1462C79.7275 59.6714 79.9833 59.1995 80.1414 58.7301C80.6392 57.2533 80.7437 55.8563 80.5888 54.3188C80.3558 53.0185 79.9655 51.7726 79.5706 50.5114L79.4072 50.0612Z" fill="#176771"/>
<path d="M66.9176 52.4053C65.7764 52.456 64.6316 52.5302 63.4897 52.5573C63.6389 53.2915 63.8058 54.0222 63.9905 54.7495C65.7889 54.5655 67.6662 54.705 69.4792 54.6349C68.7544 54.5822 68.0063 54.6302 67.279 54.6437C67.1396 53.9057 66.962 53.1539 66.9176 52.4053Z" fill="#D72726"/>
<path d="M79.1596 50.0612C78.0152 50.4767 76.8315 50.5555 75.6436 50.695C74.0197 50.8944 72.3927 51.0531 70.7627 51.1712C69.5497 51.2665 68.2969 51.4357 67.0836 51.433C67.139 51.7686 67.1806 52.0995 67.2099 52.4393C67.2465 53.1994 67.3924 53.9626 67.5071 54.712C68.105 54.6982 68.72 54.6495 69.3159 54.703L80.2607 54.7496C80.0436 53.3176 79.6798 51.9457 79.3119 50.5569L79.1596 50.0612Z" fill="#E94031"/>
<path d="M80.0966 50.0612C78.8635 50.4708 77.5878 50.5484 76.3078 50.686C74.5579 50.8825 72.8047 51.039 71.0482 51.1554C69.7411 51.2493 68.391 51.4161 67.0836 51.4134C67.1433 51.7443 67.1881 52.0704 67.2197 52.4054C69.9438 52.3 78.2575 51.6499 80.2607 50.5498L80.0966 50.0612Z" fill="#AC2F20"/>
<path d="M79.4203 60.6246C79.3735 60.6344 79.3198 60.6287 79.2797 60.6538C79.1808 60.7157 78.2924 61.9052 78.0599 62.1432C77.6435 62.5749 77.1865 62.9629 76.689 63.3071C72.3443 63.357 67.9842 63.8167 63.6499 64.1175C62.7332 64.1811 59.2667 64.3354 58.7088 64.4978C58.6954 65.2486 58.6163 66.1175 59.2033 66.7086C59.7679 67.2772 60.7036 67.2685 61.464 67.2679C61.4925 68.4032 61.7457 70.4636 62.6523 71.299C63.1663 71.7727 63.9568 71.9273 64.5285 72.3327C67.0714 74.1363 68.7655 77.0371 68.9401 80.0716C68.9746 80.6526 68.9508 81.2314 68.8686 81.808C69.3518 82.6475 70.1857 83.3597 70.8693 84.052C70.8415 81.3301 71.5569 78.765 73.1416 76.487C73.463 76.0251 74.1023 74.9933 74.6803 74.8835C75.1062 74.5902 75.4951 74.13 75.9006 73.7969C76.7843 73.0714 77.728 72.4971 78.743 71.959C83.6383 69.3641 89.7373 68.8202 95.182 69.8369C96.2078 70.0285 97.1913 70.331 98.1932 70.6071C98.6159 70.2127 99.0283 69.8088 99.4305 69.3953C100.063 68.6624 100.704 67.9481 101.307 67.192C103.971 67.1 106.673 67.1774 109.341 67.1969C110.446 67.205 112.766 67.3877 113.728 67.1087C114.178 66.9781 114.53 66.645 114.739 66.2494C115.048 65.6642 115.083 64.8782 114.841 64.2662C114.655 63.7976 114.366 63.5465 113.902 63.3353C112.986 63.1267 109.683 63.2605 108.529 63.263L87.8022 63.2826L82.4854 63.2797C82.4895 62.6685 82.6803 61.1657 82.4296 60.6512L82.2236 60.61C81.2986 60.642 80.3439 60.6833 79.4203 60.6246Z" fill="#302740"/>
<path d="M79.4545 60.6225C79.4067 60.6309 79.3519 60.626 79.311 60.6474C79.2101 60.7 78.3036 61.7124 78.0663 61.9149C77.6414 62.2824 77.1751 62.6125 76.6674 62.9055C78.6139 63.0329 80.6259 62.8685 82.5822 62.8822C82.5864 62.3619 82.781 61.083 82.5252 60.645L82.315 60.61C81.3711 60.6373 80.3969 60.6725 79.4545 60.6225Z" fill="#13152A"/>
<path d="M101.823 66.4705L62.2912 66.5498C62.3195 67.7337 62.5707 69.8822 63.4702 70.7533C63.9802 71.2473 64.7645 71.4085 65.3317 71.8313C67.8547 73.7121 69.5356 76.7369 69.7088 79.9013C69.743 80.5072 69.7194 81.1108 69.6379 81.712C70.1173 82.5874 70.9447 83.3301 71.6229 84.052C71.5953 81.2136 72.3052 78.5388 73.8775 76.1633C74.1963 75.6816 74.8307 74.6057 75.4041 74.4912C75.8267 74.1854 76.2125 73.7055 76.6149 73.3582C77.4916 72.6016 78.4279 72.0027 79.435 71.4416C84.292 68.7357 90.3433 68.1685 95.7454 69.2287C96.7631 69.4285 97.739 69.744 98.7331 70.0319C99.1524 69.6206 99.5616 69.1994 99.9607 68.7682C100.588 68.0039 101.224 67.2591 101.823 66.4705Z" fill="#AC2F20"/>
<path d="M98.6201 70.0822C97.6394 69.8025 96.6767 69.496 95.6728 69.3019C90.3436 68.272 84.3741 68.823 79.5828 71.4516C78.5893 71.9966 77.6656 72.5784 76.8008 73.3133C76.4038 73.6508 76.0232 74.1169 75.6063 74.414C75.0406 74.5252 74.4149 75.5704 74.1003 76.0383C72.5493 78.3459 71.849 80.9442 71.8762 83.7014C71.8796 84.4528 71.9215 85.2358 72.5043 85.7915C73.1648 86.4214 73.9949 86.4314 74.8517 86.4275L74.8117 87.3178C74.7978 87.6779 74.8022 88.048 74.7405 88.4034C74.6894 89.2081 74.8181 92.5732 74.4256 93.0313C74.6188 93.24 74.9036 93.2316 75.171 93.2434C75.6923 93.2661 76.2686 93.2723 76.7872 93.2163C77.4203 96.5621 79.1221 99.9461 81.6932 102.251C85.2846 105.267 88.9866 106.643 93.758 106.259C96.9338 106.003 99.7231 104.968 102.286 103.115C103.462 102.143 104.554 101.091 105.475 99.8721C107.253 97.5191 108.443 94.4853 108.511 91.5307C108.537 90.3851 108.392 89.2723 108.228 88.1422C108.096 87.564 107.954 86.9885 107.8 86.4157C108.985 86.3196 110.217 86.3945 111.407 86.4066L111.226 84.9422C111.062 83.8614 110.85 82.7898 110.591 81.7275C110.226 80.7032 109.784 79.7131 109.264 78.7571C107.052 74.6835 103.103 71.4178 98.6201 70.0822Z" fill="#E94031"/>
<path d="M91.808 70.0866C90.5035 69.8986 88.5719 70.0067 87.2557 70.1601C83.6896 70.5756 78.9565 72.127 76.6666 75.1144C78.1625 74.4314 79.4988 73.5069 81.0618 72.9549C86.8358 70.915 93.3724 71.4812 98.8241 74.2816C101.704 75.7319 104.46 77.9127 106.195 80.7508C106.828 81.7868 107.31 82.9423 107.812 84.052C107.334 81.3925 105.947 78.6204 104.273 76.5565C101.054 72.5898 96.7293 70.5105 91.808 70.0866Z" fill="#F06D5D"/>
<path d="M75.6063 74.6752C75.0406 74.7849 74.4149 75.8157 74.1003 76.2771C72.5493 78.5529 71.849 81.1153 71.8762 83.8344C71.8796 84.5754 71.9215 85.3476 72.5043 85.8956C73.1648 86.5169 73.9949 86.5267 74.8517 86.5229L74.8117 87.4008C74.7978 87.756 74.8022 88.1209 74.7405 88.4715C75.1716 88.4798 76.2435 88.6222 76.573 88.4073C76.8025 88.5385 80.6023 88.4958 81.0968 88.4403L81.1732 88.3428C81.3167 88.4914 81.4285 88.487 81.6343 88.4962C81.9378 88.5098 82.2567 88.4925 82.5604 88.4758C84.0276 88.4093 85.5232 88.4884 86.9919 88.5161C87.5687 88.527 88.1695 88.5726 88.744 88.5254C89.6857 87.4605 90.5951 86.7428 92.052 86.5147C92.4986 86.4919 92.9509 86.5044 93.3983 86.5039C94.5916 86.7773 95.7485 87.5116 96.4139 88.533C96.4238 88.5482 96.4327 88.5641 96.442 88.5797L96.5144 88.6456C98.0657 88.6008 100.208 88.4449 101.714 88.6704C101.91 88.725 102.044 88.7663 102.25 88.7211C102.742 88.5886 103.379 88.6597 103.892 88.6601L103.84 88.3669C105.299 88.2289 106.762 88.1779 108.228 88.2139C108.096 87.6436 107.954 87.0761 107.8 86.5112C108.985 86.4164 110.217 86.4903 111.407 86.5022L111.226 85.058L86.798 85.0527L78.9139 85.059C77.6041 85.0601 76.2823 85.0961 74.9736 85.0512C74.6099 85.0388 73.8983 85.0108 73.5838 84.8262C73.1504 84.5719 73.1054 83.6883 73.0587 83.2531C72.7003 79.9255 73.4424 77.29 75.6063 74.6752Z" fill="#A52019"/>
<path d="M76.6667 86.4434C75.8852 86.4268 75.0989 86.3928 74.3173 86.3964L74.2709 87.4874C74.9966 87.5001 75.7551 87.4664 76.4737 87.5682L76.6667 86.4434Z" fill="#8EBFBB"/>
<path d="M76.6667 87.6361C75.9134 87.5507 75.1183 87.5789 74.3576 87.5683C74.3406 87.9384 74.346 88.3188 74.2709 88.6842C74.7961 88.6928 76.1022 88.8413 76.5038 88.6174C76.5532 88.2899 76.6122 87.963 76.6667 87.6361Z" fill="#8EBFBB"/>
<path d="M107.406 86.3994C106.286 86.5759 104.13 86.552 103.021 86.3961C103.265 87.1653 103.487 87.9322 103.643 88.7403C105.03 88.5663 106.42 88.5019 107.812 88.5473C107.688 87.8279 107.552 87.112 107.406 86.3994Z" fill="#13152A"/>
<path d="M81.458 86.4099C79.9862 86.6053 78.4269 86.4395 76.9476 86.3961L76.7918 87.4938C76.7498 87.8741 76.7044 88.2544 76.6663 88.6354C76.8816 88.7944 80.446 88.7427 80.9098 88.6754L80.9815 88.5571L81.458 86.4099Z" fill="#302740"/>
<path d="M92.2395 86.4786C90.183 86.4062 88.126 86.3814 86.0685 86.4044C84.8655 86.4077 83.6436 86.3725 82.4436 86.4544C82.0574 86.4562 81.1272 86.3625 80.8197 86.5424L80.2603 88.5136C80.4184 88.679 80.5415 88.6742 80.768 88.6844C81.1023 88.6996 81.4534 88.6803 81.7878 88.6617C83.4035 88.5877 85.0503 88.6757 86.6676 88.7066C87.3027 88.7187 87.9643 88.7695 88.5969 88.7169C89.6338 87.5315 90.6353 86.7325 92.2395 86.4786Z" fill="#C2938C"/>
<path d="M82.657 86.4198C82.2332 86.4216 81.2124 86.3244 80.8749 86.5112L80.2611 88.5573C80.4346 88.729 80.5697 88.724 80.8182 88.7346C81.185 88.7504 81.5703 88.7304 81.9373 88.711C82.1937 87.9518 82.4336 87.188 82.657 86.4198Z" fill="#E9D7C5"/>
<path d="M101.869 86.4415C99.0608 86.4511 96.2423 86.334 93.4372 86.4425C94.6633 86.7235 95.8518 87.4778 96.5355 88.5272C96.5457 88.5428 96.5548 88.5592 96.5644 88.5752L96.6388 88.6429C98.2326 88.5969 100.433 88.4367 101.981 88.6684C102.182 88.7245 102.32 88.7669 102.531 88.7205C103.037 88.5844 103.691 88.6574 104.219 88.6578L104.165 88.3566C103.997 87.6984 103.756 87.0738 103.492 86.4474C102.961 86.4079 102.404 86.4411 101.869 86.4415Z" fill="#C2938C"/>
<path d="M103.478 86.4157C102.936 86.3756 102.368 86.4093 101.823 86.4097C102.048 86.9037 102.577 88.0941 102.41 88.6087C102.252 88.6294 102.095 88.6512 101.937 88.6675C102.141 88.7243 102.282 88.7673 102.498 88.7202C103.014 88.5822 103.681 88.6563 104.219 88.6567L104.163 88.3513C103.992 87.684 103.747 87.0508 103.478 86.4157Z" fill="#E9D7C5"/>
<path d="M93.6062 86.3991C93.1503 86.3996 92.6893 86.387 92.2342 86.4101C90.7496 86.6414 89.8227 87.3696 88.863 88.4499C88.2775 88.4978 87.6652 88.4514 87.0775 88.4404C85.5806 88.4123 84.0565 88.332 82.5612 88.3995C82.2516 88.4165 81.9267 88.4341 81.6174 88.4202C81.4077 88.4109 81.2938 88.4154 81.1475 88.2646L81.0697 88.3635C80.5657 88.4198 76.6932 88.4631 76.4594 88.3301C76.1235 88.548 75.0311 88.4035 74.5919 88.3952C74.5397 89.2002 74.671 92.5669 74.2709 93.0251C74.4678 93.2339 74.7581 93.2255 75.0306 93.2374C75.5619 93.2601 76.1492 93.2663 76.6776 93.2103C77.3229 96.5575 79.0572 99.9431 81.6775 102.249C85.3375 105.266 89.1103 106.643 93.9728 106.259C97.2093 106.003 100.052 104.968 102.664 103.114C103.862 102.141 104.975 101.088 105.914 99.8691C107.725 97.515 108.939 94.4798 109.007 91.5239C109.034 90.3777 108.887 89.2645 108.719 88.1338C107.225 88.0974 105.734 88.1491 104.247 88.2891L104.301 88.5866C103.778 88.5861 103.129 88.5141 102.627 88.6484C102.417 88.6942 102.28 88.6524 102.081 88.597C100.546 88.3682 98.3629 88.5264 96.7819 88.5718L96.7082 88.505C96.6986 88.4892 96.6896 88.473 96.6795 88.4576C96.0014 87.4214 94.8224 86.6765 93.6062 86.3991Z" fill="#302740"/>
<path d="M104.051 88.7596C103.531 88.7592 102.885 88.6887 102.385 88.82C103.01 90.8112 102.459 93.2801 101.441 95.0659C101.362 95.2035 101.278 95.339 101.192 95.4727C101.105 95.6064 101.015 95.7379 100.921 95.8672C100.828 95.9965 100.731 96.1236 100.631 96.2484C100.531 96.3732 100.427 96.4955 100.321 96.6153C100.214 96.7352 100.105 96.8524 99.9919 96.9671C99.8793 97.0818 99.7637 97.1937 99.6453 97.3029C99.5269 97.4121 99.4056 97.5183 99.2815 97.6217C99.1576 97.7252 99.0309 97.8256 98.9017 97.923C98.7725 98.0205 98.6408 98.1147 98.5065 98.2059C98.3724 98.2971 98.236 98.385 98.0974 98.4697C97.9586 98.5544 97.8177 98.6358 97.6747 98.7138C97.5318 98.7919 97.3869 98.8664 97.24 98.9376C97.0932 99.0087 96.9446 99.0763 96.7942 99.1404C96.6439 99.2045 96.4919 99.265 96.3384 99.3218C96.1849 99.3787 96.03 99.4319 95.8737 99.4814C95.7174 99.531 95.56 99.5768 95.4013 99.6188C92.7812 100.332 90.1124 100.053 87.742 98.7699C85.4707 97.5408 83.922 95.6901 83.1967 93.3031C82.6369 93.3038 82.0073 93.3606 81.4581 93.266C81.4975 93.4227 81.5405 93.5785 81.5872 93.7334C81.6338 93.8883 81.684 94.0422 81.7377 94.195C81.7915 94.3477 81.8488 94.4994 81.9095 94.6498C81.9703 94.8001 82.0345 94.9491 82.1022 95.0968C82.1699 95.2445 82.2409 95.3906 82.3153 95.5353C82.3897 95.68 82.4674 95.823 82.5484 95.9644C82.6295 96.1058 82.7137 96.2455 82.8012 96.3833C82.8887 96.5212 82.9793 96.6571 83.073 96.7911C83.1668 96.9252 83.2637 97.0572 83.3636 97.1872C83.4634 97.3171 83.5662 97.4449 83.672 97.5705C83.7778 97.6961 83.8865 97.8194 83.998 97.9405C84.1095 98.0616 84.2237 98.1802 84.3407 98.2964C84.4577 98.4127 84.5773 98.5264 84.6995 98.6375C84.8217 98.7487 84.9465 98.8573 85.0737 98.9633C85.201 99.0691 85.3307 99.1724 85.4628 99.2729C85.5947 99.3733 85.729 99.4709 85.8656 99.5658C88.2789 101.231 91.5618 101.953 94.4978 101.501C94.592 101.487 94.686 101.472 94.7798 101.456C94.8735 101.44 94.967 101.422 95.0604 101.404C95.1537 101.385 95.2468 101.366 95.3396 101.345C95.4324 101.325 95.5249 101.303 95.6172 101.28C95.7094 101.257 95.8014 101.233 95.893 101.208C95.9846 101.183 96.0759 101.157 96.1668 101.13C96.2578 101.103 96.3484 101.075 96.4387 101.045C96.5288 101.016 96.6186 100.985 96.7081 100.954C96.7975 100.923 96.8864 100.89 96.9751 100.857C97.0636 100.823 97.1518 100.788 97.2395 100.753C97.3272 100.717 97.4144 100.68 97.5012 100.643C97.5879 100.605 97.6741 100.566 97.7599 100.527C97.8456 100.487 97.9308 100.446 98.0154 100.404C98.1001 100.363 98.1842 100.32 98.2677 100.276C98.3513 100.232 98.4343 100.188 98.5168 100.142C98.5992 100.096 98.681 100.05 98.7621 100.002C98.8433 99.9543 98.9239 99.9057 99.0038 99.8562C99.0838 99.8066 99.163 99.7561 99.2416 99.7048C99.3203 99.6534 99.3982 99.601 99.4754 99.5477C99.5527 99.4945 99.6293 99.4404 99.7052 99.3853C99.781 99.3302 99.8561 99.2742 99.9305 99.2174C100.005 99.1605 100.079 99.1028 100.152 99.0443C100.224 98.9857 100.297 98.9263 100.368 98.866C100.439 98.8057 100.51 98.7445 100.58 98.6826C100.649 98.6207 100.718 98.5579 100.787 98.4942C100.855 98.4306 100.922 98.3663 100.989 98.3011C101.055 98.2359 101.121 98.1699 101.185 98.1032C101.25 98.0365 101.314 97.969 101.377 97.9008C101.44 97.8325 101.502 97.7636 101.563 97.6938C101.625 97.6241 101.685 97.5537 101.744 97.4826C101.804 97.4114 101.862 97.3395 101.92 97.267C101.977 97.1945 102.034 97.1213 102.09 97.0475C103.924 94.5976 104.556 91.7133 104.051 88.7596Z" fill="#FAF0DC"/>
<path d="M102.2 88.8623C100.645 88.6314 98.4345 88.791 96.8334 88.8368C97.3389 90.0725 97.4852 91.1667 96.928 92.4073C96.4528 93.4656 95.4844 94.4072 94.3712 94.8304C93.2827 95.244 91.9824 95.2004 90.9195 94.734C90.2761 94.4518 89.7128 94.0135 89.2343 93.5143C88.8712 93.3911 82.0221 93.4112 81.4587 93.505C82.0175 93.6027 82.6583 93.5441 83.2278 93.5433C83.9658 96.0082 85.5417 97.9193 87.8528 99.1885C90.2647 100.513 92.9802 100.801 95.6462 100.065C95.8077 100.022 95.9679 99.9744 96.1269 99.9232C96.286 99.8721 96.4436 99.8172 96.5998 99.7584C96.756 99.6997 96.9106 99.6373 97.0636 99.5711C97.2166 99.5049 97.3677 99.4351 97.5172 99.3616C97.6666 99.2882 97.8141 99.2112 97.9595 99.1306C98.105 99.05 98.2484 98.966 98.3895 98.8786C98.5306 98.7911 98.6694 98.7003 98.8059 98.6061C98.9425 98.512 99.0765 98.4146 99.208 98.314C99.3395 98.2134 99.4683 98.1097 99.5945 98.0029C99.7207 97.8961 99.8441 97.7864 99.9646 97.6736C100.085 97.5609 100.203 97.4453 100.317 97.3269C100.432 97.2085 100.543 97.0875 100.652 96.9637C100.76 96.8399 100.865 96.7136 100.967 96.5848C101.069 96.456 101.168 96.3247 101.263 96.1911C101.358 96.0575 101.45 95.9218 101.538 95.7837C101.626 95.6457 101.711 95.5057 101.792 95.3637C102.828 93.5196 103.388 90.9701 102.753 88.9141C102.541 88.9603 102.402 88.9181 102.2 88.8623Z" fill="#E9D7C5"/>
<path d="M93.4417 86.399C92.9897 86.3995 92.5327 86.3872 92.0814 86.4098C90.6094 86.6358 89.6905 87.3473 88.739 88.4028C88.1585 88.4497 87.5514 88.4044 86.9687 88.3936C85.4846 88.3661 83.9735 88.2877 82.4909 88.3537C82.184 88.3703 81.8618 88.3874 81.5551 88.3739C81.3473 88.3648 81.2343 88.3691 81.0893 88.2218L81.0121 88.3185C80.5124 88.3735 76.673 88.4158 76.4412 88.2858C76.1082 88.4988 75.0251 88.3576 74.5896 88.3494C74.5378 89.136 74.668 92.4256 74.2713 92.8734C74.4666 93.0774 74.7543 93.0692 75.0245 93.0807C75.5513 93.1029 76.1336 93.109 76.6575 93.0543C77.5057 92.8987 80.5179 93.0099 81.5382 93.0425C82.0898 92.9516 88.7952 92.9322 89.1507 93.0514C89.6191 93.5349 90.1706 93.9593 90.8005 94.2326C91.841 94.6841 93.1141 94.7264 94.1797 94.3259C95.2696 93.9161 96.2177 93.0043 96.683 91.9795C97.2285 90.7782 97.0852 89.7186 96.5904 88.522L96.5172 88.4567C96.5077 88.4413 96.4988 88.4255 96.4888 88.4104C95.8165 87.3979 94.6475 86.6701 93.4417 86.399Z" fill="#748FB0"/>
<path d="M92.9911 86.3993C92.5734 86.3999 92.1511 86.3862 91.7341 86.4113C90.3739 86.6626 89.5247 87.4536 88.6455 88.6271C89.0337 88.7877 90.7 88.7437 91.1219 88.5895C91.7171 88.6114 92.3321 88.6134 92.9181 88.7315C93.0086 88.7498 92.9848 88.7387 93.1034 88.7074L93.1626 88.715C94.0512 88.7016 94.9459 88.7515 95.833 88.687C95.8242 88.6698 95.816 88.6522 95.8067 88.6355C95.1854 87.5099 94.1053 86.7007 92.9911 86.3993Z" fill="#514D7F"/>
<path d="M96.5621 88.8026L96.4843 88.7404C95.4629 88.7957 94.4327 88.7529 93.4095 88.7644C94.1492 89.4168 94.8886 89.9514 94.8633 90.9484C94.8482 91.5505 94.5355 92.1061 94.0207 92.5111C92.7088 93.5425 90.3021 93.2112 88.6463 93.123C89.1447 93.5841 89.7316 93.989 90.4017 94.2496C91.5088 94.6803 92.8634 94.7207 93.9972 94.3386C95.1568 93.9478 96.1655 93.0781 96.6606 92.1005C97.2411 90.9547 97.0886 89.944 96.5621 88.8026Z" fill="#6A7EA6"/>
<path d="M38.3335 35.996C38.166 36.0155 38.0162 36.0345 37.8544 36.0819C36.8822 37.0632 36.0765 38.2887 35.2503 39.3779C34.6873 40.1203 34.0227 40.8765 33.5418 41.661L33.9955 41.8565C34.3132 41.2664 34.8377 40.6948 35.2513 40.1548C36.2903 38.7979 37.4301 37.429 38.3335 35.996Z" fill="#3A3B5B"/>
<path d="M40.6136 38.3402C41.0586 36.2577 40.1475 32.8824 39.1505 30.9148C38.8916 30.4035 38.3715 29.8882 38.1973 29.3638C38.1515 29.2259 38.2043 29.0972 38.2474 28.9634C37.1068 30.1339 37.0187 32.0887 37.2217 33.5001C37.3471 34.3724 37.6811 35.1914 38.0954 36.0001C37.835 36.2514 37.5697 36.4938 37.3615 36.7763C37.547 36.7287 37.7187 36.7097 37.9107 36.6901L38.1905 36.4208L38.2666 36.4323C38.906 37.2592 39.4494 37.9481 40.6136 38.3402Z" fill="#514D7F"/>
<path d="M40.271 38.3388C40.6338 38.3438 40.9231 38.349 41.2184 38.0912C41.7068 37.6643 41.849 36.9217 41.8998 36.2723C42.0754 34.0265 41.3875 30.2836 40.014 28.54C39.7697 28.2299 39.3656 27.7697 38.9553 27.7921C38.7369 27.8039 38.5248 27.9716 38.387 28.145C38.3527 28.2903 38.3106 28.4303 38.3471 28.5802C38.4858 29.1504 38.8999 29.7105 39.106 30.2664C39.8999 32.4054 40.6253 36.0749 40.271 38.3388Z" fill="#748FB0"/>
<path d="M23.7693 41.8565C23.1772 41.9458 22.8657 42.1554 22.5357 42.5568C21.483 43.837 21.3709 46.012 21.7874 47.4654C22.0304 48.3133 22.5723 49.4568 23.5372 49.9396C23.6242 49.9832 23.7125 50.0221 23.8029 50.0612L24.0185 50.018C24.1609 49.8547 24.2654 49.6939 24.3594 49.5092C25.2945 47.6687 25.4983 44.2771 24.4707 42.4469C24.3017 42.1461 24.16 41.9749 23.7693 41.8565Z" fill="#FAF0DC"/>
<path d="M58.0171 28.9634C56.4163 31.1403 54.438 33.0063 52.7082 35.0571C52.8569 35.2574 53.0034 35.4422 53.1755 35.6192C54.2709 36.8158 55.3365 38.0008 56.56 39.0456C56.8176 39.202 57.0739 39.3726 57.3391 39.5123C57.815 38.8916 58.3245 38.2585 58.6978 37.5565C58.5986 36.3498 58.0435 32.5685 58.3675 31.5174C58.167 30.6657 58.0848 29.8374 58.0171 28.9634Z" fill="#A52019"/>
<path d="M56.3018 39.0092C55.0796 38.0904 54.0152 37.0483 52.921 35.996C50.7862 37.8562 48.8948 39.9722 46.7724 41.8444C46.0351 42.0069 45.2862 42.1065 44.5454 42.2521C43.5384 42.4499 42.5372 42.6964 41.5402 42.937C40.0844 43.2884 38.6136 43.7999 37.1351 44.0391C37.9799 44.8139 38.7179 45.5981 39.3543 46.5449C40.2934 46.3368 41.2654 46.2264 42.2187 46.0898C43.682 45.8752 45.1474 45.6749 46.6149 45.4888C47.5135 45.378 48.4252 45.2987 49.3139 45.1289C51.5858 43.0367 54.078 41.1557 56.3018 39.0092Z" fill="#D97F4E"/>
<path d="M55.9033 12.6929C53.2609 12.139 50.579 11.6462 47.8836 11.382C47.5302 12.9511 47.355 14.5408 47.1538 16.1316C47.0597 16.8755 47.0269 17.6937 46.8234 18.4168C46.7663 18.6193 46.6941 18.7533 46.4957 18.8706C46.1359 19.0836 45.6534 19.1379 45.5488 19.5948C45.4801 19.8953 45.5351 20.3094 45.727 20.564C46.1588 21.1363 47.1915 20.907 47.4734 21.2135C47.6846 21.4433 47.8139 21.9661 47.924 22.2552C48.3299 23.3218 49.3083 26.2842 50.5093 26.6193C52.6376 26.5452 55.621 25.8768 57.6538 25.2661C59.014 24.8889 61.0916 24.013 61.9505 22.9082C62.1657 22.7796 62.3672 22.6317 62.5711 22.4883C65.1805 20.2839 66.2062 18.0813 67.083 14.9604L55.9033 12.6929Z" fill="#F1A35A"/>
<path d="M50.201 12.5715C49.5449 12.5213 48.6763 12.5538 48.1192 13.0189C47.9545 13.1565 47.9389 13.2463 47.9166 13.4653C47.9759 13.6039 48.0449 13.8124 48.1962 13.8581C48.7322 14.0201 49.3327 13.1366 50.8753 13.8331L50.9778 13.8803C51.3401 14.1005 51.6475 14.4101 51.9765 14.6832C52.193 14.8631 52.3589 14.9273 52.6326 14.8864L52.7083 14.7579C52.6802 14.4899 52.5955 14.2915 52.4614 14.0701C51.9144 13.1685 51.1325 12.7526 50.201 12.5715Z" fill="#0A0604"/>
<path d="M59.1669 18.3589C59.3938 18.3832 59.6344 18.418 59.8634 18.4143C60.1846 18.4089 60.5447 18.2613 60.7581 18.0693C61.0431 17.8128 61.1184 17.4553 61.0872 17.1208C61.0568 16.7938 60.9217 16.4109 60.5953 16.1965C60.4269 16.0859 60.2362 16.051 60.0223 16.0803C59.6969 16.1247 59.4598 16.3774 59.3004 16.5896C59.2969 16.7459 59.3421 16.7455 59.4778 16.8597L59.4557 16.9021L59.2928 16.9238L59.4324 16.95C59.2862 17.0565 59.2286 17.1627 59.1504 17.3047C58.9594 17.488 58.6788 17.8223 58.6989 18.0725C58.7053 18.153 58.7333 18.228 58.8147 18.2757C58.9307 18.3439 59.0289 18.3445 59.1669 18.3589Z" fill="#D97F4E"/>
<path d="M59.1048 18.4146C59.2768 18.2427 59.5744 18.2191 59.7608 18.0783C60.0246 17.8788 59.8126 17.6553 59.8558 17.4188C59.8686 17.3483 59.8744 17.3129 59.8613 17.2425C59.6372 17.2675 59.3954 17.4385 59.1719 17.5019C59.1448 17.5096 59.1175 17.5167 59.0904 17.5242C58.9247 17.679 58.6813 17.9614 58.6987 18.1727C58.7042 18.2407 58.7285 18.304 58.7992 18.3443C58.8999 18.4019 58.985 18.4024 59.1048 18.4146Z" fill="#F06D5D"/>
<path d="M52.7083 21.9309C51.507 22.0814 50.3167 22.3206 49.1145 22.4732C49.2146 22.9732 49.3536 23.4384 49.5577 23.9033C49.7514 24.1146 49.9728 24.2168 50.2509 24.2591C50.842 24.3488 51.4908 24.0479 51.9431 23.6739C52.5367 23.183 52.6429 22.6671 52.7083 21.9309Z" fill="#FAF0DC"/>
<path d="M61.0938 22.8594C60.5613 22.6347 60.2243 22.3496 59.8351 21.9309C59.4565 22.6136 58.9534 23.2044 58.3236 23.6649C56.865 24.7312 53.5668 25.7266 51.769 26.2386C51.2927 26.3743 50.7703 26.4424 50.3125 26.6193C52.318 26.5442 55.1293 25.867 57.0449 25.2483C58.3266 24.8661 60.2844 23.9788 61.0938 22.8594Z" fill="#AE542B"/>
<path d="M67.083 14.8955L56.3017 12.5541C56.657 14.4275 56.8754 16.2201 56.9758 18.1223C57.4341 18.0734 57.8915 18.0175 58.3481 17.9545C58.51 17.0416 58.7279 15.8073 59.5237 15.2251C59.8975 14.9516 60.3892 14.8638 60.8402 14.9504C61.3991 15.0579 61.8861 15.4235 62.1856 15.9034C62.5746 16.5268 62.5868 17.2377 62.4041 17.9321C62.2227 18.6212 61.8134 19.4444 61.1798 19.8035C60.7344 20.056 60.3359 20.0616 59.8375 20.0478C60.106 20.7857 60.4596 21.4742 60.8453 22.1566C61.2436 22.5834 61.5885 22.8739 62.1334 23.103C62.341 22.9702 62.5352 22.8174 62.7319 22.6694C65.2483 20.3929 66.2374 18.1184 67.083 14.8955Z" fill="#0A0604"/>
<path d="M33.4841 41.7591C31.3996 40.8271 27.4526 40.5511 25.1362 40.7409C24.5941 40.8396 23.9803 40.899 23.4706 41.0993L23.4167 41.1958L23.542 41.2406C23.8997 41.3706 24.0294 41.5587 24.1841 41.889C25.1251 43.899 24.9385 47.6237 24.0822 49.645C23.9962 49.8478 23.9005 50.0244 23.7701 50.2037L23.5727 50.2512C23.5469 50.4621 23.6317 50.5258 23.7456 50.7031L23.9132 50.8415C24.3106 51.1606 24.681 51.4516 25.1695 51.6391C26.6063 52.1907 29.2034 51.8981 30.8137 51.9269L30.8141 52.0026L30.855 51.9837C30.7327 52.5075 30.3174 53.1048 30.0549 53.5834C28.8919 55.7031 27.4987 57.7407 26.4334 59.9046C26.05 60.4108 25.684 60.9283 25.3355 61.4571C24.987 61.9859 24.6568 62.5249 24.3448 63.0741C24.0329 63.6232 23.7398 64.1815 23.4655 64.7488C23.1913 65.3161 22.9365 65.8913 22.7012 66.4743C22.585 66.8738 22.4583 67.26 22.2925 67.6436C22.0364 68.2357 21.3112 69.281 21.6509 69.905C21.9125 70.3857 22.6169 70.5395 23.1108 70.7122C23.0813 71.0636 23.0375 71.3924 22.9564 71.7373C23.7867 71.964 24.6389 72.4353 25.4184 72.798C25.9423 73.0221 26.4898 73.2334 26.9964 73.49L27.2607 73.5031C27.6537 73.3766 28.0302 73.2277 28.4106 73.0701C28.7492 72.5408 28.9626 71.9514 29.3025 71.4217C29.3038 70.1128 33.4412 59.5339 34.148 57.6528C34.6719 56.2589 35.106 54.8244 35.7044 53.458C36.1761 53.4716 36.6118 53.44 37.062 53.2976C37.0851 53.2899 37.1085 53.2832 37.1312 53.2744C37.6427 53.0758 37.8141 52.665 38.035 52.2199L38.0326 52.1681C38.604 51.2349 39.2703 50.5319 39.5222 49.4421C39.5801 48.1612 39.349 47.2737 38.6638 46.1726C38.0029 45.1941 37.2364 44.3838 36.3591 43.583C35.5441 43.039 34.8348 42.3519 33.9182 41.953L33.4841 41.7591Z" fill="#E94031"/>
<path d="M38.3312 52.4142C38.0989 52.3885 37.8994 52.423 37.6705 52.4599C37.0912 52.5304 36.5219 52.5663 35.9377 52.5839C35.9841 52.9145 36.0183 53.25 36.1023 53.5748C36.5539 53.5871 36.971 53.5587 37.402 53.4306C37.4241 53.4236 37.4466 53.4175 37.4683 53.4097C37.9579 53.231 38.122 52.8613 38.3335 52.4608L38.3312 52.4142Z" fill="#13152A"/>
<path d="M27.5518 72.7936C26.8147 72.2859 24.9278 71.3653 24.0764 71.1589C24.0538 71.4541 24.0202 71.7302 23.958 72.02C24.5949 72.2104 25.2488 72.6062 25.8468 72.9109C26.2487 73.0991 26.6688 73.2766 27.0574 73.4921L27.2602 73.5031C27.3771 73.273 27.463 73.0365 27.5518 72.7936Z" fill="#302740"/>
<path d="M32.9759 49.0105L32.8776 48.8894C31.9639 48.8703 28.0336 49.6721 27.3056 50.1527L27.1618 50.3458C26.2673 51.1336 25.0373 51.0718 23.9587 51.0136C24.3665 51.3964 24.7465 51.7455 25.2477 51.9704C26.7219 52.6322 29.3864 52.2811 31.0386 52.3157C32.2423 52.2717 33.5588 52.5457 34.74 52.3054C34.3862 52.0831 34.0449 51.8479 33.7534 51.5281C33.1007 50.8119 32.9883 49.9841 32.9759 49.0105Z" fill="#D72726"/>
<path d="M25.601 40.6844C25.083 40.7872 24.4965 40.8491 24.0094 41.0577L23.958 41.1583L24.0777 41.205C24.4195 41.3404 24.5434 41.5363 24.6913 41.8804C25.5903 43.9742 25.4121 47.8542 24.5939 49.9598C24.5117 50.1711 24.4203 50.3551 24.2957 50.5419L24.107 50.5913C24.0823 50.811 24.1634 50.8774 24.2723 51.0621L24.4324 51.2063C25.4369 51.2568 26.5824 51.3105 27.4154 50.6264L27.5493 50.4587C27.5988 47.8351 26.8863 42.878 25.601 40.6844Z" fill="#F7B622"/>
<path d="M27.5518 50.0612C26.9618 50.0716 26.3807 50.3367 25.7917 50.4259C25.3376 50.4949 24.6887 50.3674 24.2651 50.5566C24.1251 50.6191 24.0639 50.7375 23.958 50.9026L24.141 51.1811C25.2896 51.2786 26.5993 51.3823 27.5518 50.0612Z" fill="#FBAB44"/>
<path d="M22.7609 66.5153C22.8134 66.5846 22.8687 66.6523 22.9268 66.7184C23.2938 67.1303 24.1062 67.5731 24.7156 67.6341C24.8851 67.6511 25.0665 67.6509 25.2006 67.5529C25.8727 67.0621 28.8022 61.7623 28.7498 61.0234C28.7413 60.9029 28.6905 60.8655 28.5773 60.7885C28.1734 60.5134 27.0475 60.6201 26.5538 60.6912C26.1642 61.14 25.7923 61.5988 25.4381 62.0676C25.0839 62.5364 24.7483 63.0142 24.4313 63.501C24.1143 63.9879 23.8164 64.4827 23.5377 64.9857C23.259 65.4886 23 65.9985 22.7609 66.5153Z" fill="#F7B622"/>
<path d="M35.1775 52.1817C35.2524 52.2091 35.3279 52.2346 35.404 52.2583C36.2424 52.5185 37.2191 52.431 37.9919 52.0163C38.6724 51.651 39.2105 51.008 39.419 50.2703C39.6384 49.4943 39.5343 48.5684 39.1109 47.8746C38.712 47.2208 38.0575 46.7796 37.3018 46.6213C36.5195 46.4575 35.5734 46.5467 34.8991 46.991C34.0192 47.5706 33.7278 48.523 33.5412 49.4901C33.5527 50.2854 33.6569 50.9616 34.2624 51.5468C34.5328 51.808 34.8494 52.0001 35.1775 52.1817Z" fill="#93A7BB"/>
<path d="M36.4693 47.7267C35.9124 47.6994 35.3896 47.72 34.8844 47.9144C34.8122 47.9424 34.742 47.973 34.674 48.0062C34.6058 48.0394 34.54 48.0751 34.4765 48.1133C34.413 48.1514 34.3521 48.1918 34.2939 48.2344C34.2357 48.2772 34.1805 48.3219 34.1282 48.3687C34.0759 48.4155 34.0267 48.4641 33.9807 48.5146C33.9347 48.5651 33.8922 48.6172 33.8531 48.6708C33.8139 48.7244 33.7784 48.7794 33.7464 48.8357C33.7144 48.892 33.6861 48.9493 33.6618 49.0077C33.4731 49.4527 33.4956 49.9683 33.8113 50.3779C34.1729 50.8471 34.7777 51.067 35.4496 51.1943C36.0743 51.2635 36.6665 51.2604 37.2307 51.0183C37.7383 50.8005 38.0949 50.4319 38.2427 50.0073C38.4187 49.5016 38.3447 48.903 37.9692 48.4567C37.6116 48.0317 37.1037 47.8307 36.4693 47.7267Z" fill="#6C7391"/>
<path d="M37.0708 50.3739C37.1593 49.7276 37.197 48.9879 36.9112 48.4124C36.7313 48.0501 36.4371 47.8153 36.1133 47.7421C35.7934 47.6697 35.4659 47.7526 35.2036 48.0067C34.9398 48.2625 34.7898 48.6606 34.7518 49.0812C34.7019 49.6353 34.8012 50.2804 35.081 50.7121C35.3183 51.0784 35.5847 51.2007 35.947 51.2303C36.2904 51.2582 36.548 51.0851 36.8356 50.8625L37.0708 50.3739Z" fill="#3A3B5B"/>
<path d="M63.49 54.7496C59.7052 54.9872 55.9471 55.3023 52.1696 55.6131C50.4439 55.7551 48.127 55.7227 46.494 56.2136C45.3395 56.5607 44.2311 57.2745 43.4404 58.1465C42.4575 59.2306 41.8446 60.7066 41.9366 62.1553C41.969 62.6644 42.0874 63.1933 42.2488 63.6787C42.8317 65.4322 43.5502 67.163 44.2185 68.8892L46.9686 76.0804L48.6839 80.5687C49.0137 81.4532 49.2923 82.4227 49.7307 83.262C49.8657 83.3517 49.7927 83.3254 49.9474 83.3459C50.4538 83.8055 50.7034 85.7072 50.7421 86.3898C51.7437 86.3669 53.1979 86.2322 54.1547 86.3962L54.1867 86.3719C54.4316 85.8927 54.1626 84.4075 54.085 83.8804C53.9317 83.5375 53.7809 83.2138 53.5732 82.8966C53.0099 81.7878 52.5786 80.5617 52.1029 79.4124C51.0276 76.8057 49.9859 74.1867 48.978 71.5555C47.8697 68.646 46.5283 65.7099 45.8255 62.6809C45.6231 61.8089 45.4786 60.9173 45.7428 60.042C46.0179 59.1309 46.6472 58.4497 47.5065 57.9955C49.1638 57.1198 53.7391 56.4902 55.7885 56.1203C57.3184 55.8441 58.8508 55.5107 60.3907 55.293C61.0609 55.1982 62.9463 55.0784 63.4048 54.8054C63.4341 54.7881 63.4616 54.7682 63.49 54.7496Z" fill="#0E374A"/>
<path d="M53.3149 82.914C52.4241 82.9035 51.2037 82.7589 50.3736 83.1571C50.3495 83.2261 50.3269 83.2885 50.3125 83.3611C50.7319 83.8184 50.9385 85.7106 50.9706 86.3898C51.8 86.367 53.0041 86.233 53.7964 86.3962L53.8229 86.372C54.0256 85.8952 53.8029 84.4174 53.7387 83.8929C53.6117 83.5517 53.4869 83.2296 53.3149 82.914Z" fill="#FBAB44"/>
<path d="M60.1217 34.8239C59.5307 35.5033 58.9761 36.2121 58.4162 36.9168C58.0238 37.5918 57.4882 38.2006 56.9879 38.7974C56.7091 38.6631 56.4397 38.4991 56.169 38.3487C53.8286 40.6957 51.2058 42.7525 48.8147 45.0402C47.8794 45.2258 46.92 45.3126 45.9743 45.4337C44.4298 45.6372 42.8876 45.8562 41.3477 46.0908C40.3443 46.2402 39.3214 46.3609 38.3331 46.5884C39.0275 47.7534 39.2616 48.6924 39.203 50.0477C40.3812 49.9718 41.6054 50.0396 42.7886 50.0445C45.0581 50.0593 47.3277 50.0605 49.5973 50.048C50.7934 50.0396 52.2072 50.1493 53.3654 49.854C53.9547 49.7037 54.4862 49.3445 54.96 48.9742C57.2418 47.1907 58.9243 44.8139 60.9873 42.8079C61.2897 42.2287 63.3769 40.22 63.9793 39.5713L64.6873 38.8921C64.1973 38.3612 63.5771 37.8884 63.0316 37.4139C62.0469 36.567 61.0769 35.7037 60.1217 34.8239Z" fill="#F1A35A"/>
<path d="M39.9893 53.6535C39.4943 53.2679 39.0499 52.8317 38.5934 52.4053C38.3747 52.851 38.205 53.2624 37.6987 53.4613C37.6763 53.47 37.653 53.4768 37.6302 53.4845C37.1845 53.6271 36.7532 53.6588 36.2862 53.6451C35.6938 55.0135 35.264 56.4499 34.7454 57.8458C34.0457 59.7295 29.9496 70.3232 29.9484 71.634C30.9309 74.4013 32.6969 77.0317 34.0839 79.6367L36.6253 84.4463C36.9603 85.0653 37.266 85.7419 37.6552 86.3285C38.6457 86.387 42.2693 86.4733 43.1255 86.2589C40.6803 82.4196 36.0448 74.5725 36.3617 70.117C36.4522 68.8467 36.8769 67.5738 37.1538 66.3296L38.9232 58.3304C39.2475 56.8061 39.7491 55.2601 39.9794 53.7242L39.9893 53.6535Z" fill="#AC2F20"/>
<defs>
<linearGradient id="paint0_linear_25_5120" x1="78.1949" y1="37.6558" x2="72.2896" y2="46.0523" gradientUnits="userSpaceOnUse">
<stop stop-color="#141E43"/>
<stop offset="1" stop-color="#26395A"/>
</linearGradient>
</defs>
</svg>
