<svg width="120" height="120" viewBox="0 0 120 120" fill="none" xmlns="http://www.w3.org/2000/svg">
<rect width="120" height="120" fill="#E8F0FB"/>
<path d="M80.9483 86.166C78.4442 87.8461 72.8148 90 60.4135 90C48.0122 90 42.3837 87.8461 39.8795 86.166C38.6291 85.3277 37.9245 83.8883 38.0064 82.3847C38.3918 75.3871 40.8575 67.9724 42.8618 66.4695C47.8584 62.7225 54.2843 61.0784 54.2843 61.0784L57.2607 68.2574L59.4239 63.8442L58.3013 61.7981C58.3289 61.8139 59.2082 62.1316 60.4135 62.1316C61.6187 62.1316 62.4989 61.8139 62.5256 61.7981L61.404 63.8442L63.5671 68.2574L66.5435 61.0784C66.5435 61.0784 72.9694 62.7225 77.966 66.4695C79.9694 67.9724 82.436 75.3871 82.8205 82.3847C82.9033 83.8883 82.1987 85.3277 80.9483 86.166Z" fill="#25374D"/>
<path d="M73.0354 45.3995C73.0354 46.2674 71.963 49.3546 70.6667 50.2086C70.2628 54.0257 67.8572 57.2622 64.7929 58.8969C64.7929 58.8969 63.0564 59.8206 60.4122 59.8206C57.415 59.8206 56.0377 58.8515 56.0377 58.8515C53.0244 57.2036 50.577 53.9922 50.1612 50.2093C48.8628 49.3575 47.7891 46.2688 47.7891 45.3995C47.7891 44.3879 48.6095 43.5681 49.6212 43.5681C49.7203 43.5681 49.8173 43.5758 49.9121 43.5918C49.5159 41.3355 49.2096 39.0262 49.6232 36.7783C50.06 34.4013 51.3996 31.9629 53.6587 31.102C55.8187 30.2794 58.0464 30.054 59.972 30.0073C62.8116 29.9375 65.9881 30.361 68.0825 31.6385C70.5593 33.1489 72.1905 35.3236 70.7261 43.6316C70.8782 43.5905 71.0386 43.5682 71.2033 43.5682C72.2149 43.568 73.0354 44.3878 73.0354 45.3995Z" fill="#1967D2"/>
</svg>
