<svg width="40" height="40" viewBox="0 0 40 40" fill="none" xmlns="http://www.w3.org/2000/svg">
<path fill-rule="evenodd" clip-rule="evenodd" d="M20.4636 7.76709C19.5641 7.76709 18.6671 8.10908 17.9786 8.79808L13.0111 13.7676C11.6356 15.1426 11.6356 17.3581 13.0111 18.7351C14.3861 20.1106 16.6032 20.1106 17.9786 18.7351L20.4636 16.2506L22.9461 18.7351C24.3236 20.1106 26.5387 20.1106 27.9136 18.7351C29.2911 17.3581 29.2911 15.1426 27.9136 13.7676L22.9461 8.79808C22.2597 8.10908 21.3606 7.76709 20.4636 7.76709Z" fill="#1729B3"/>
<path fill-rule="evenodd" clip-rule="evenodd" d="M10.5161 19.7658C9.61709 19.7658 8.72009 20.1103 8.0316 20.7988C6.65613 22.1758 6.65613 24.3913 8.0316 25.7663L12.9991 30.7338C13.7742 31.5089 14.8153 31.8474 15.8206 31.7512C16.6033 31.6761 17.3668 31.3362 17.9686 30.7338L20.4557 28.2473L22.9442 30.7338C23.7193 31.5089 24.7584 31.8474 25.7657 31.7512C26.5468 31.6761 27.3099 31.3362 27.9117 30.7338L32.8797 25.7663C34.2567 24.3913 34.2567 22.1758 32.8797 20.7988C31.5043 19.4233 29.2892 19.4233 27.9117 20.7988L25.4292 23.2833L22.9442 20.7988C22.3403 20.1949 21.5748 19.8564 20.7881 19.7814C19.7828 19.6852 18.7417 20.0257 17.9686 20.7988L15.4841 23.2833L12.9991 20.7988C12.3126 20.1103 11.4136 19.7658 10.5161 19.7658Z" fill="#0173EB"/>
</svg>
