<svg width="40" height="40" viewBox="0 0 40 40" fill="none" xmlns="http://www.w3.org/2000/svg">
<path d="M12.1682 13.8931C13.7956 13.8931 15.1148 12.5739 15.1148 10.9465C15.1148 9.31922 13.7956 8 12.1682 8C10.5409 8 9.22168 9.31922 9.22168 10.9465C9.22168 12.5739 10.5409 13.8931 12.1682 13.8931Z" fill="#794AFF"/>
<path d="M29.2864 13.8931C30.9137 13.8931 32.2329 12.5739 32.2329 10.9465C32.2329 9.31922 30.9137 8 29.2864 8C27.6591 8 26.3398 9.31922 26.3398 10.9465C26.3398 12.5739 27.6591 13.8931 29.2864 13.8931Z" fill="#794AFF"/>
<path d="M23.6377 19.8615C23.8984 18.2551 22.8076 16.7416 21.2012 16.4809C19.5949 16.2202 18.0814 17.311 17.8207 18.9174C17.56 20.5237 18.6508 22.0373 20.2572 22.298C21.8635 22.5587 23.377 21.4678 23.6377 19.8615Z" fill="#794AFF"/>
<path d="M14.2507 29.9165C15.4014 28.7658 15.4014 26.9002 14.2507 25.7495C13.1 24.5988 11.2344 24.5988 10.0837 25.7495C8.93303 26.9002 8.93303 28.7658 10.0837 29.9165C11.2344 31.0672 13.1 31.0672 14.2507 29.9165Z" fill="#794AFF"/>
<path d="M32.1595 28.5152C32.5334 26.9315 31.5527 25.3445 29.969 24.9705C28.3853 24.5966 26.7982 25.5773 26.4243 27.161C26.0503 28.7447 27.031 30.3317 28.6148 30.7057C30.1985 31.0796 31.7855 30.0989 32.1595 28.5152Z" fill="#794AFF"/>
<path d="M21.0116 24.8996C20.9876 24.8974 20.9635 24.8955 20.9395 24.8937C19.8248 24.8159 18.7751 24.3415 17.9796 23.5568L16.4822 22.0799C15.6807 21.2895 15.2046 20.2359 15.1024 19.1151C15.1014 19.104 15.1003 19.0929 15.0991 19.0818C14.956 17.6797 13.8074 16.5608 12.4022 16.4524C10.5891 16.3126 9.0884 17.8149 9.23108 19.6286C9.34219 21.041 10.4746 22.1912 11.8854 22.3233C11.9094 22.3255 11.9333 22.3275 11.9573 22.3292C13.0721 22.4072 14.1217 22.8816 14.9174 23.6662L16.4148 25.1431C17.2163 25.9335 17.6924 26.987 17.7947 28.108C17.7957 28.1191 17.7968 28.1302 17.798 28.1413C17.9412 29.5434 19.0898 30.6624 20.4952 30.7707C22.3082 30.9104 23.8087 29.4079 23.6659 27.5943C23.5547 26.1817 22.4224 25.0316 21.0116 24.8996Z" fill="#5625E2"/>
<path d="M29.537 16.4533C29.5255 16.4523 29.514 16.4515 29.5026 16.4507C28.3467 16.3691 27.2539 15.8952 26.4345 15.0759L25.0354 13.6767C24.2348 12.8761 23.7622 11.8139 23.6652 10.6859C23.6642 10.6748 23.6632 10.6636 23.6621 10.6523C23.5257 9.24701 22.3789 8.12174 20.9714 8.00964C19.154 7.86487 17.6483 9.37045 17.7928 11.1879C17.9048 12.5953 19.0302 13.7423 20.4355 13.8788C20.4467 13.8799 20.4578 13.8809 20.4691 13.8819C21.597 13.9791 22.6594 14.4516 23.4601 15.2523L24.9788 16.771C25.7674 17.5596 26.2428 18.5997 26.3607 19.7087C26.3618 19.7195 26.363 19.7305 26.3644 19.7413C26.5268 21.1273 27.6706 22.2229 29.0621 22.3277C30.8703 22.4638 32.3662 20.9667 32.2281 19.158C32.1189 17.7297 30.9649 16.5705 29.537 16.4533Z" fill="#5625E2"/>
</svg>
