<svg width="40" height="40" viewBox="0 0 40 40" fill="none" xmlns="http://www.w3.org/2000/svg">
<path d="M25.6676 32H7V19.1785C7 15.5539 9.93823 12.6154 13.5628 12.6154H25.6676C29.2922 12.6154 32.2307 15.5536 32.2307 19.1785V25.4372C32.2307 29.0618 29.2922 32 25.6676 32Z" fill="#1973DD"/>
<path d="M13.1833 24.2575C14.2601 24.2575 15.1331 23.3845 15.1331 22.3077C15.1331 21.2308 14.2601 20.3578 13.1833 20.3578C12.1064 20.3578 11.2334 21.2308 11.2334 22.3077C11.2334 23.3845 12.1064 24.2575 13.1833 24.2575Z" fill="white"/>
<path d="M19.6169 24.2575C20.6937 24.2575 21.5667 23.3845 21.5667 22.3077C21.5667 21.2308 20.6937 20.3578 19.6169 20.3578C18.54 20.3578 17.667 21.2308 17.667 22.3077C17.667 23.3845 18.54 24.2575 19.6169 24.2575Z" fill="white"/>
<path d="M26.0524 24.2575C27.1293 24.2575 28.0023 23.3845 28.0023 22.3077C28.0023 21.2308 27.1293 20.3578 26.0524 20.3578C24.9755 20.3578 24.1025 21.2308 24.1025 22.3077C24.1025 23.3845 24.9755 24.2575 26.0524 24.2575Z" fill="white"/>
<path d="M23.6188 14.0003H22.0805V12.0002C22.0805 10.6428 20.9763 9.5387 19.619 9.5387C18.2616 9.5387 17.1575 10.6428 17.1575 12.0002V14.0003H15.6191V12.0002C15.6191 9.79467 17.4135 8 19.619 8C21.8245 8 23.6191 9.79432 23.6191 12.0002L23.6188 14.0003Z" fill="#1973DD"/>
<path d="M17.6148 14.7693C17.6148 15.449 17.0638 16.0001 16.3841 16.0001C15.7043 16.0001 15.1533 15.449 15.1533 14.7693C15.1533 14.0896 15.7043 13.5386 16.3841 13.5386C17.0638 13.5382 17.6148 14.0896 17.6148 14.7693Z" fill="#1973DD"/>
<path d="M24.0748 14.7693C24.0748 15.449 23.5237 16.0001 22.844 16.0001C22.1643 16.0001 21.6133 15.449 21.6133 14.7693C21.6133 14.0896 22.1643 13.5386 22.844 13.5386C23.5237 13.5386 24.0748 14.0896 24.0748 14.7693Z" fill="#1973DD"/>
</svg>
