<svg width="40" height="40" viewBox="0 0 40 40" fill="none" xmlns="http://www.w3.org/2000/svg">
<path d="M19.6151 10.4096L14.5479 19.1576L13.8976 20.2803H10.2802L15.4024 11.4373C15.8623 10.6693 16.37 10.4096 17.4069 10.4096H19.6151ZM23.7954 8H17.4066C15.8079 8 14.3525 8.48827 13.3248 10.2163L6.09961 22.6897H18.0048L16.6329 20.3652L23.7954 8Z" fill="#54BE8D"/>
<path d="M25.2346 13.5435L30.3279 22.4024C30.763 23.1852 30.734 23.7545 30.2151 24.6526L29.1102 26.5647L24.0712 17.8003L23.4246 16.6756L25.2346 13.5435ZM25.2398 8.71826L19.2832 19.0261L21.9822 19.0013L29.1048 31.3897L32.3014 25.8581C33.1012 24.474 33.4068 22.9694 32.4246 21.2149L25.2398 8.71826Z" fill="#54BE8D"/>
<path d="M21.5874 26.4598L23.4008 29.5901L13.1819 29.5905C12.2865 29.5776 11.8073 29.2687 11.2875 28.3713L10.1806 26.4604L20.2901 26.4599L21.5874 26.4598ZM21.6137 21.698L20.29 24.0503L6 24.0509L9.20251 29.579C10.0039 30.9623 11.1559 31.9771 13.1664 32L27.5813 31.9995L21.6137 21.698Z" fill="#54BE8D"/>
</svg>
