<svg width="40" height="40" viewBox="0 0 40 40" fill="none" xmlns="http://www.w3.org/2000/svg">
<path d="M28.9241 31.9999C28.0549 31.9999 27.2374 31.6613 26.6233 31.047C26.0081 30.4332 25.6699 29.6164 25.6699 28.7468C25.6699 27.8786 26.0081 27.0618 26.6216 26.4485C27.2364 25.8337 28.0539 25.4951 28.9228 25.4951C29.7916 25.4951 30.6085 25.8327 31.2222 26.447C32.4906 27.7158 32.4906 29.7802 31.2222 31.0486C30.6085 31.6623 29.7922 31.9999 28.9241 31.9999Z" fill="#F87000"/>
<path d="M11.2542 14.6557C10.385 14.6557 9.56771 14.3171 8.95295 13.7023C8.33861 13.0886 8 12.2718 8 11.4026C8 10.5338 8.33778 9.7176 8.95151 9.1045C9.56668 8.48913 10.3844 8.15051 11.2537 8.15051C12.1219 8.15051 12.9387 8.4885 13.552 9.10243C14.1672 9.71719 14.5058 10.5345 14.5058 11.4032C14.5058 12.2724 14.1674 13.0892 13.5527 13.704C12.9387 14.3175 12.1223 14.6557 11.2542 14.6557Z" fill="#F87000"/>
<path d="M28.7776 14.5604C27.9078 14.5604 27.0912 14.2218 26.4768 13.6074C25.2091 12.339 25.208 10.2757 26.475 9.00835C27.0897 8.39359 27.907 8.05457 28.7768 8.05457C29.6454 8.05457 30.4622 8.39318 31.0766 9.00731C32.3443 10.2751 32.3443 12.3395 31.0766 13.6093C30.4626 14.2222 29.6458 14.5604 28.7776 14.5604Z" fill="#F87000"/>
<path d="M11.3414 32C10.4722 32 9.65498 31.6614 9.03961 31.047C8.42526 30.4329 8.08727 29.6164 8.08789 28.7473C8.08789 27.8785 8.42712 27.0619 9.04167 26.4475C9.17033 26.318 9.31533 26.1995 9.49984 26.075C9.55528 26.0363 9.60658 26.0055 9.65953 25.9732C9.77992 25.9041 9.89989 25.841 10.0118 25.7897C10.0728 25.7624 10.1353 25.7343 10.2013 25.7093C10.3181 25.6658 10.4487 25.6272 10.5978 25.5918C10.6276 25.5837 10.6539 25.5767 10.6805 25.569C10.6973 25.5645 10.7134 25.5589 10.7304 25.555L11.4546 25.5057C11.5464 25.5097 11.6447 25.5212 11.7495 25.5349L11.7909 25.5405C11.8155 25.5434 11.8488 25.5461 11.8821 25.5479L11.9113 25.55L11.9444 25.5566H11.9731C12.0261 25.5587 12.079 25.5595 12.1314 25.5595C13.3795 25.5595 14.6115 25.0279 15.5119 24.1018C16.4084 23.1797 16.9022 21.9392 16.8668 20.6975L16.8658 20.6607L16.8589 20.6222C16.8521 20.5875 16.8502 20.5523 16.8478 20.5174C16.8447 20.4756 16.8411 20.4342 16.836 20.3924L16.8279 20.3194C16.8209 20.2569 16.8138 20.1959 16.8097 20.1334L16.8651 19.407C16.8686 19.3888 16.8753 19.3722 16.8802 19.3544L16.8933 19.3096C16.9268 19.172 16.9623 19.0338 17.0143 18.9002C17.041 18.8243 17.0666 18.7682 17.0943 18.7107C17.1522 18.5837 17.2122 18.4683 17.2828 18.35C17.3134 18.2987 17.3432 18.2466 17.3785 18.1963C17.5099 18.0048 17.6294 17.8583 17.7533 17.7342C18.3677 17.1199 19.1843 16.7819 20.0545 16.7819C20.9231 16.7819 21.741 17.1194 22.3557 17.7332C23.6225 19.0016 23.6217 21.0655 22.3528 22.3341C22.2246 22.4628 22.0792 22.5807 21.8943 22.7071C21.8403 22.7439 21.789 22.7745 21.7375 22.8049C21.6206 22.8748 21.5027 22.9369 21.3854 22.9909C21.3219 23.0194 21.2584 23.0488 21.197 23.0713C21.0724 23.1177 20.9405 23.157 20.8019 23.1882L20.7239 23.2099C20.7061 23.2149 20.6889 23.2205 20.6714 23.225L19.9402 23.2769C19.8545 23.2734 19.7647 23.2618 19.6696 23.2496L19.6046 23.2416C19.5829 23.238 19.5488 23.2356 19.5145 23.2335L19.4888 23.231L19.4516 23.2238H19.4224C19.369 23.2219 19.3165 23.2213 19.2638 23.2213C18.0156 23.2213 16.784 23.7523 15.8843 24.6785C14.9874 25.6011 14.4934 26.8428 14.5288 28.0843L14.5298 28.1211L14.5366 28.158C14.5435 28.1933 14.5449 28.2281 14.5478 28.2632C14.5507 28.3052 14.5544 28.3464 14.5594 28.3878C14.5608 28.4124 14.5658 28.4573 14.5714 28.5011C14.5768 28.551 14.5834 28.5994 14.5834 28.6492V28.667L14.5308 29.3633C14.5275 29.378 14.5042 29.4582 14.4975 29.4832C14.4624 29.6334 14.4227 29.7664 14.3782 29.886C14.354 29.9526 14.3294 30.0099 14.3006 30.0699C14.2441 30.1934 14.1827 30.3119 14.1132 30.4323C14.0826 30.4815 14.0464 30.5394 14.0096 30.5951C13.8886 30.7705 13.7686 30.9179 13.6401 31.047C13.0272 31.6607 12.2102 32 11.3414 32Z" fill="#F87000"/>
<path d="M20.1247 31.9999C19.2549 31.9999 18.4376 31.6613 17.8229 31.0466C17.2087 30.4324 16.8705 29.616 16.8701 28.7468C16.8697 27.8787 17.2077 27.0622 17.8214 26.4496C17.9468 26.3236 18.0891 26.2077 18.2835 26.0733C18.3317 26.0406 18.3836 26.0088 18.438 25.9775C18.5574 25.906 18.6724 25.8456 18.7917 25.7905C18.8553 25.7618 18.9173 25.7332 18.9804 25.7094C19.1012 25.665 19.2328 25.6263 19.3724 25.5955C19.3724 25.5955 19.4868 25.5622 19.5014 25.5587L20.237 25.5049C20.3239 25.5088 20.4174 25.5214 20.5154 25.534L20.5698 25.5413C20.606 25.5448 20.6362 25.5477 20.6666 25.5483C20.6786 25.5493 20.6908 25.5493 20.7024 25.5504L20.7256 25.5535L20.7562 25.5566C20.81 25.558 20.8646 25.5595 20.9184 25.5595C22.164 25.5591 23.3941 25.0283 24.2925 24.1033C25.189 23.1817 25.6827 21.9396 25.6474 20.6981L25.6428 20.5465L25.6294 20.5297C25.6287 20.5248 25.6287 20.5188 25.6283 20.5132C25.6265 20.4778 25.6244 20.4422 25.6209 20.4064L25.6089 20.3022C25.6023 20.2449 25.5948 20.1884 25.5927 20.1309L25.6432 19.427C25.6472 19.4098 25.6726 19.3228 25.6784 19.2965C25.7198 19.1283 25.756 19.0053 25.7973 18.8958C25.8205 18.8305 25.8488 18.7705 25.8774 18.7074C25.9293 18.594 25.9903 18.4786 26.0648 18.3516L26.0788 18.3284C26.1039 18.2856 26.1281 18.2434 26.1579 18.2021C26.2911 18.008 26.4094 17.862 26.5343 17.7371C27.1493 17.1223 27.967 16.7837 28.8361 16.7837C29.7047 16.7837 30.5211 17.1217 31.1355 17.7356C32.4031 19.0034 32.4031 21.0684 31.1355 22.3376C31.0124 22.46 30.8658 22.5786 30.6748 22.7103C30.638 22.7356 30.6028 22.7567 30.5677 22.7778L30.5108 22.8131C30.402 22.8777 30.2835 22.9397 30.1681 22.9927C30.1029 23.0219 30.0417 23.05 29.9769 23.0742C29.8632 23.1172 29.7376 23.1534 29.5794 23.1913C29.5477 23.1987 29.5221 23.2068 29.4966 23.2144C29.4788 23.219 29.4623 23.2244 29.4451 23.2285L28.7222 23.2783C28.6163 23.2738 28.5019 23.2583 28.391 23.2436C28.3532 23.239 28.324 23.2376 28.2952 23.2359C28.2843 23.2355 28.2733 23.2355 28.2621 23.2339L28.2005 23.2275C28.1467 23.2254 28.0933 23.2244 28.04 23.2244C26.7933 23.2244 25.5634 23.7556 24.6638 24.6806C23.7679 25.6031 23.2746 26.8444 23.311 28.087L23.312 28.1234L23.3191 28.1592C23.3261 28.196 23.3275 28.2336 23.3302 28.2704C23.3327 28.3087 23.3356 28.3462 23.3397 28.3828C23.3422 28.4136 23.3468 28.4529 23.3509 28.491C23.3575 28.546 23.3642 28.6014 23.3656 28.6562L23.3122 29.3701C23.3083 29.3858 23.2804 29.482 23.2804 29.482C23.2456 29.6332 23.207 29.7656 23.161 29.8901C23.1393 29.9486 23.1137 30.0051 23.0874 30.064L23.0783 30.0847C23.0245 30.201 22.9639 30.316 22.8963 30.4283C22.8632 30.4837 22.8303 30.5381 22.7955 30.5896C22.6681 30.7746 22.5479 30.9216 22.4197 31.0511C21.808 31.6624 20.9928 31.9999 20.1247 31.9999Z" fill="#F87000"/>
<path d="M11.3381 23.2173C10.469 23.2173 9.65191 22.8793 9.03778 22.2654C8.42323 21.6502 8.08461 20.8333 8.08398 19.9642C8.08357 19.0958 8.42095 18.28 9.03529 17.6663C9.16127 17.5403 9.30792 17.4214 9.49657 17.2913C9.5458 17.2582 9.60123 17.2242 9.65667 17.1909C9.7692 17.1245 9.88401 17.0635 10.0064 17.007C10.0693 16.9783 10.1318 16.9502 10.1982 16.9253C10.3178 16.8815 10.4497 16.8426 10.5873 16.812L10.67 16.7888C10.6853 16.7843 10.7 16.7793 10.7151 16.7758L11.4513 16.7228C11.5469 16.7268 11.6503 16.7404 11.7587 16.7551L11.7814 16.7582C11.8193 16.7621 11.8484 16.7638 11.8782 16.7652C11.8888 16.7657 11.8993 16.7657 11.9099 16.7673L11.9415 16.7729L11.9713 16.7739C12.0259 16.7754 12.0797 16.7764 12.1335 16.7764C13.3787 16.7764 14.6086 16.2458 15.5076 15.3202C16.4037 14.3976 16.897 13.1559 16.861 11.914L16.86 11.8782L16.853 11.8428C16.8453 11.8035 16.8445 11.7636 16.8418 11.7233C16.8399 11.6906 16.8379 11.6577 16.8343 11.6236L16.8232 11.5233C16.8157 11.4637 16.8081 11.4033 16.8066 11.3429L16.8554 10.6597L16.86 10.644V10.6303C16.8639 10.6146 16.8906 10.524 16.8906 10.524C16.932 10.3492 16.9688 10.2228 17.0102 10.1113C17.0333 10.0499 17.0621 9.98844 17.0912 9.92494C17.1442 9.80807 17.2062 9.68975 17.2778 9.56916L17.289 9.55054C17.3171 9.50359 17.345 9.45684 17.3767 9.40989C17.5058 9.2229 17.6241 9.07686 17.748 8.95337C18.3629 8.33861 19.18 8 20.0498 8C20.919 8 21.7358 8.3382 22.3506 8.95234C23.6184 10.2207 23.6173 12.2851 22.3491 13.5529C22.2236 13.6788 22.074 13.8003 21.891 13.9242C21.8411 13.9595 21.7981 13.9846 21.7538 14.0108L21.7296 14.0249C21.6103 14.0961 21.4928 14.1579 21.3819 14.2088C21.3163 14.239 21.2549 14.2667 21.1924 14.2899C21.0704 14.3354 20.9409 14.3737 20.7947 14.4074C20.7641 14.4148 20.7363 14.4229 20.7086 14.4305C20.6919 14.4351 20.6749 14.4405 20.6577 14.4446L19.9367 14.4951C19.8454 14.4905 19.7478 14.4783 19.6452 14.4653L19.6009 14.4597C19.5676 14.4556 19.5368 14.4541 19.5072 14.452C19.4952 14.4514 19.483 14.4514 19.471 14.4496L19.4468 14.4465L19.4152 14.444C19.3614 14.4419 19.3078 14.4409 19.2538 14.4409C18.0082 14.4409 16.7781 14.9714 15.8793 15.8963C14.9828 16.8188 14.4891 18.0609 14.5244 19.3035L14.5255 19.3397L14.5319 19.3755C14.5395 19.4117 14.541 19.4495 14.5437 19.4863C14.5462 19.5246 14.5493 19.5618 14.5532 19.6001C14.5563 19.6303 14.5606 19.669 14.5654 19.7075C14.5714 19.7619 14.5784 19.8152 14.5795 19.8692L14.5275 20.5783C14.5236 20.5963 14.5176 20.6151 14.512 20.6344L14.4938 20.6979C14.4576 20.8565 14.4194 20.9887 14.3759 21.106C14.3528 21.1674 14.323 21.2309 14.2932 21.2961C14.2398 21.4129 14.1794 21.5284 14.1087 21.6463C14.0752 21.7027 14.0437 21.7557 14.01 21.8055C13.8766 21.9989 13.7616 22.141 13.636 22.2656C13.0215 22.8797 12.2057 23.2173 11.3381 23.2173Z" fill="#F87000"/>
</svg>
