<svg width="40" height="40" viewBox="0 0 40 40" fill="none" xmlns="http://www.w3.org/2000/svg">
<g clip-path="url(#clip0_216_12)">
<path d="M19.5078 10.1016L10.7578 13.8516C10.2109 14.0859 9.90621 14.6719 10.0273 15.25C10.1484 15.8281 10.6562 16.25 11.25 16.25V16.5625C11.25 17.082 11.6679 17.5 12.1875 17.5H27.8125C28.332 17.5 28.75 17.082 28.75 16.5625V16.25C29.3437 16.25 29.8554 15.832 29.9726 15.25C30.0898 14.668 29.7851 14.082 29.2422 13.8516L20.4922 10.1016C20.1797 9.96875 19.8203 9.96875 19.5078 10.1016ZM15 18.75H12.5V26.418C12.4765 26.4297 12.4531 26.4453 12.4297 26.4609L10.5547 27.7109C10.0976 28.0156 9.89059 28.5859 10.0507 29.1133C10.2109 29.6406 10.6992 30 11.25 30H28.75C29.3007 30 29.7851 29.6406 29.9453 29.1133C30.1054 28.5859 29.9023 28.0156 29.4414 27.7109L27.5664 26.4609C27.5429 26.4453 27.5195 26.4336 27.4961 26.418L27.5 18.75H25V26.25H23.4375V18.75H20.9375V26.25H19.0625V18.75H16.5625V26.25H15V18.75ZM20 12.5C20.3315 12.5 20.6494 12.6317 20.8838 12.8661C21.1183 13.1005 21.25 13.4185 21.25 13.75C21.25 14.0815 21.1183 14.3995 20.8838 14.6339C20.6494 14.8683 20.3315 15 20 15C19.6684 15 19.3505 14.8683 19.1161 14.6339C18.8817 14.3995 18.75 14.0815 18.75 13.75C18.75 13.4185 18.8817 13.1005 19.1161 12.8661C19.3505 12.6317 19.6684 12.5 20 12.5Z" fill="#1967D2"/>
</g>
<defs>
<clipPath id="clip0_216_12">
<rect width="20" height="20" fill="white" transform="translate(10 10)"/>
</clipPath>
</defs>
</svg>
