<svg width="50" height="50" viewBox="0 0 50 50" fill="none" xmlns="http://www.w3.org/2000/svg">
<path d="M43.8788 24.9394C43.8788 35.3993 35.3993 43.8788 24.9394 43.8788C14.4795 43.8788 6 35.3993 6 24.9394C6 14.4795 14.4795 6 24.9394 6C35.3993 6 43.8788 14.4795 43.8788 24.9394ZM9.78788 24.9394C9.78788 33.3073 16.5714 40.0909 24.9394 40.0909C33.3073 40.0909 40.0909 33.3073 40.0909 24.9394C40.0909 16.5714 33.3073 9.78788 24.9394 9.78788C16.5714 9.78788 9.78788 16.5714 9.78788 24.9394Z" fill="#267FE8"/>
<path fill-rule="evenodd" clip-rule="evenodd" d="M26.5152 0H23.4848V6.12036C23.9849 6.08076 24.4904 6.06059 25.0006 6.06059C25.5104 6.06059 26.0155 6.08073 26.5152 6.12026V0ZM43.8803 23.4848C43.9198 23.9847 43.94 24.49 43.94 25C43.94 25.51 43.9198 26.0153 43.8803 26.5152H50V23.4848H43.8803ZM26.5152 43.8797C26.0155 43.9192 25.5104 43.9394 25.0006 43.9394C24.4904 43.9394 23.9849 43.9192 23.4848 43.8796V50H26.5152V43.8797ZM6.12092 26.5152C6.08136 26.0153 6.0612 25.51 6.0612 25C6.0612 24.49 6.08136 23.9847 6.12092 23.4848H0V26.5152H6.12092Z" fill="#267FE8"/>
</svg>
