<svg width="50" height="50" viewBox="0 0 50 50" fill="none" xmlns="http://www.w3.org/2000/svg">
<path d="M43.9393 25C43.9393 35.4599 35.4599 43.9394 24.9999 43.9394C14.54 43.9394 6.06055 35.4599 6.06055 25C6.06055 14.54 14.54 6.06059 24.9999 6.06059C35.4599 6.06059 43.9393 14.54 43.9393 25ZM9.84843 25C9.84843 33.3679 16.632 40.1515 24.9999 40.1515C33.3679 40.1515 40.1515 33.3679 40.1515 25C40.1515 16.632 33.3679 9.84846 24.9999 9.84846C16.632 9.84846 9.84843 16.632 9.84843 25Z" fill="#267FE8"/>
<path fill-rule="evenodd" clip-rule="evenodd" d="M26.5152 0H23.4848V6.12036C23.9849 6.08076 24.4904 6.06059 25.0006 6.06059C25.5104 6.06059 26.0155 6.08073 26.5152 6.12026V0ZM43.8803 23.4848C43.9198 23.9847 43.94 24.49 43.94 25C43.94 25.51 43.9198 26.0153 43.8803 26.5152H50V23.4848H43.8803ZM26.5152 43.8797C26.0155 43.9192 25.5104 43.9394 25.0006 43.9394C24.4904 43.9394 23.9849 43.9192 23.4848 43.8796V50H26.5152V43.8797ZM6.12092 26.5152C6.08136 26.0153 6.0612 25.51 6.0612 25C6.0612 24.49 6.08136 23.9847 6.12092 23.4848H0V26.5152H6.12092Z" fill="#267FE8"/>
<path d="M24.875 25C26.0685 25 27.2131 24.5259 28.057 23.682C28.9009 22.8381 29.375 21.6935 29.375 20.5C29.375 19.3065 28.9009 18.1619 28.057 17.318C27.2131 16.4741 26.0685 16 24.875 16C23.6815 16 22.5369 16.4741 21.693 17.318C20.8491 18.1619 20.375 19.3065 20.375 20.5C20.375 21.6935 20.8491 22.8381 21.693 23.682C22.5369 24.5259 23.6815 25 24.875 25ZM23.2684 26.6875C19.8055 26.6875 17 29.493 17 32.9559C17 33.5324 17.4676 34 18.0441 34H31.7059C32.2824 34 32.75 33.5324 32.75 32.9559C32.75 29.493 29.9445 26.6875 26.4816 26.6875H23.2684Z" fill="#267FE8"/>
</svg>
