<svg width="16" height="19" viewBox="0 0 16 19" fill="none" xmlns="http://www.w3.org/2000/svg">
<path d="M7.875 9.26601C9.06847 9.26601 10.2131 8.77789 11.057 7.90903C11.9009 7.04018 12.375 5.86175 12.375 4.633C12.375 3.40426 11.9009 2.22583 11.057 1.35698C10.2131 0.488119 9.06847 0 7.875 0C6.68153 0 5.53693 0.488119 4.69302 1.35698C3.84911 2.22583 3.375 3.40426 3.375 4.633C3.375 5.86175 3.84911 7.04018 4.69302 7.90903C5.53693 8.77789 6.68153 9.26601 7.875 9.26601ZM6.26836 11.0034C2.80547 11.0034 0 13.8918 0 17.457C0 18.0506 0.467578 18.532 1.04414 18.532H14.7059C15.2824 18.532 15.75 18.0506 15.75 17.457C15.75 13.8918 12.9445 11.0034 9.48164 11.0034H6.26836Z" fill="#267FE8"/>
</svg>
